SplineFontDB: 3.0
FontName: ComicSpice
FullName: ComicSpice
FamilyName: ComicSpice
Weight: Book
Copyright: ComicSpice by Deevad\n\nBased on a fork of "Comic Relief"\nmade by David Revoy (Deevad, info@davidrevoy.com) in Nov,2016.\n\noriginal font is copyrighted (c) 2013, Jeff Davis (info@loudifier.com),\nwith Reserved Font Name "Comic Relief". Also, some accent from the font\n"Patrick Hand" by Patrick Wagesreiter, same license were used for \nlatin-extended. \n\nThis Font Software is licensed under the SIL Open Font License, Version 1.1.\nThis license is copied below, and is also available with a FAQ at:\nhttp://scripts.sil.org/OFL\n\n\n
Version: 1.1
ItalicAngle: 0
UnderlinePosition: -359
UnderlineWidth: 175
Ascent: 1638
Descent: 410
InvalidEm: 0
sfntRevision: 0x00010000
LayerCount: 2
Layer: 0 1 "Back" 1
Layer: 1 1 "Fore" 0
XUID: [1021 578 742194275 11159354]
StyleMap: 0x0040
FSType: 8
OS2Version: 1
OS2_WeightWidthSlopeOnly: 0
OS2_UseTypoMetrics: 0
CreationTime: 1358538608
ModificationTime: 1480284824
PfmFamily: 65
TTFWeight: 400
TTFWidth: 5
LineGap: 0
VLineGap: 0
Panose: 3 15 7 2 3 3 2 2 2 4
OS2TypoAscent: 1638
OS2TypoAOffset: 0
OS2TypoDescent: -597
OS2TypoDOffset: 0
OS2TypoLinegap: 0
OS2WinAscent: 2257
OS2WinAOffset: 0
OS2WinDescent: 599
OS2WinDOffset: 0
HheadAscent: 2257
HheadAOffset: 0
HheadDescent: -599
HheadDOffset: 0
OS2SubXSize: 1434
OS2SubYSize: 1331
OS2SubXOff: 0
OS2SubYOff: 293
OS2SupXSize: 1434
OS2SupYSize: 1331
OS2SupXOff: 0
OS2SupYOff: 928
OS2StrikeYSize: 175
OS2StrikeYPos: 630
OS2FamilyClass: 2568
OS2Vendor: 'LOUD'
OS2CodePages: 2000009f.00000000
OS2UnicodeRanges: 00000287.00000000.00000000.00000000
Lookup: 1 0 0 "'locl' Localized Forms in Latin lookup 0" { "'locl' Localized Forms in Latin lookup 0 subtable"  } ['locl' ('latn' <'LTH ' > ) ]
Lookup: 1 0 0 "'locl' Localized Forms in Latin lookup 1" { "'locl' Localized Forms in Latin lookup 1 subtable"  } ['locl' ('latn' <'ROM ' > ) ]
MarkAttachClasses: 1
DEI: 91125
TtTable: prep
PUSHW_6
 15
 280
 127

StartChar: .notdef
Encoding: 1114112 -1 0
Width: 549
Flags: W
HStem: 0 68<111.521 372.64> 1297 68<111.521 372.64>
VStem: 43.5205 68<68 1297> 372.64 68<68 1297>
LayerCount: 2
Fore
SplineSet
43.5205078125 0 m 1,0,-1
 43.5205078125 1365 l 1,1,-1
 440.639648438 1365 l 1,2,-1
 440.639648438 0 l 1,3,-1
 43.5205078125 0 l 1,0,-1
111.520507812 68 m 1,4,-1
 372.639648438 68 l 1,5,-1
 372.639648438 1297 l 1,6,-1
 111.520507812 1297 l 1,7,-1
 111.520507812 68 l 1,4,-1
EndSplineSet
Validated: 1
EndChar

StartChar: glyph1
Encoding: 1114113 -1 1
Width: 709
GlyphClass: 2
Flags: W
HStem: -603 216<215.28 356.632>
VStem: -45.4395 220<-350.31 -151.797> 379.712 204<-371.221 531.415> 401.712 199<176.585 1036>
LayerCount: 2
Fore
SplineSet
499.711914062 1049 m 0,0,1
 602.711914062 1049 602.711914062 1049 600.711914062 939 c 2,2,-1
 583.711914062 -231 l 2,3,4
 583.711914062 -235 583.711914062 -235 583.711914062 -238 c 0,5,6
 583.711914062 -603 583.711914062 -603 316.512695312 -603 c 0,7,8
 308.512695312 -603 308.512695312 -603 300.512695312 -603 c 0,9,10
 93.560546875 -593 93.560546875 -593 -2.439453125 -372 c 0,11,12
 -45.439453125 -274 -45.439453125 -274 -45.439453125 -214 c 0,13,14
 -45.439453125 -145 -45.439453125 -145 12.560546875 -129 c 0,15,16
 37.560546875 -122 37.560546875 -122 58.560546875 -122 c 0,17,18
 148.560546875 -122 148.560546875 -122 174.560546875 -249 c 0,19,20
 202.912109375 -387 202.912109375 -387 302.912109375 -387 c 0,21,22
 377.3125 -387 377.3125 -387 379.711914062 -231 c 2,23,-1
 401.711914062 939 l 2,24,25
 403.711914062 1049 403.711914062 1049 499.711914062 1049 c 0,0,1
EndSplineSet
Validated: 33
EndChar

StartChar: glyph2
Encoding: 1114114 -1 2
Width: 1080
GlyphClass: 2
Flags: W
HStem: 584 151<109.713 939.146>
LayerCount: 2
Fore
SplineSet
219.400390625 735 m 2,0,-1
 796.146484375 737 l 2,1,2
 947.146484375 737 947.146484375 737 948.146484375 661 c 0,3,4
 948.146484375 584 948.146484375 584 804.146484375 584 c 2,5,-1
 208.400390625 584 l 2,6,7
 102.400390625 584 102.400390625 584 102.400390625 658 c 0,8,9
 102.400390625 735 102.400390625 735 219.400390625 735 c 2,0,-1
EndSplineSet
Validated: 1
EndChar

StartChar: exclam
Encoding: 33 33 4
Width: 434
GlyphClass: 2
Flags: W
HStem: -65 249<98.3184 288.781>
VStem: 69.1201 248<-36.0469 154.846> 114.12 178<321.812 1598.07>
LayerCount: 2
Fore
SplineSet
162.120117188 181 m 0,0,1
 177.120117188 185 177.120117188 185 193.120117188 184 c 0,2,3
 210.120117188 184 210.120117188 184 226.120117188 180 c 0,4,5
 257.120117188 171 257.120117188 171 280.120117188 148 c 0,6,7
 307.120117188 123 307.120117188 123 313.120117188 93 c 0,8,9
 316.120117188 77 316.120117188 77 317.120117188 60 c 0,10,11
 317.120117188 40 317.120117188 40 314.120117188 29 c 0,12,13
 304.120117188 -8 304.120117188 -8 277.120117188 -33 c 0,14,15
 249.120117188 -58 249.120117188 -58 210.120117188 -63 c 0,16,17
 202.120117188 -64 202.120117188 -64 193.120117188 -65 c 0,18,19
 164.120117188 -65 164.120117188 -65 139.120117188 -52 c 0,20,21
 105.120117188 -36 105.120117188 -36 86.1201171875 -3 c 0,22,23
 69.1201171875 26 69.1201171875 26 69.1201171875 60 c 0,24,25
 69.1201171875 85 69.1201171875 85 78.1201171875 108 c 0,26,27
 89.1201171875 135 89.1201171875 135 112.120117188 154 c 0,28,29
 132.120117188 173 132.120117188 173 162.120117188 181 c 0,0,1
203.120117188 1606 m 0,30,31
 292.120117188 1606 292.120117188 1606 292.120117188 1516 c 2,32,-1
 291.120117188 394 l 2,33,34
 291.120117188 314 291.120117188 314 200.120117188 314 c 0,35,36
 198.120117188 314 198.120117188 314 196.120117188 314 c 0,37,38
 115.120117188 312 115.120117188 312 115.120117188 400 c 2,39,-1
 114.120117188 1518 l 2,40,41
 114.120117188 1519 114.120117188 1519 114.120117188 1520 c 0,42,43
 113.120117188 1608 113.120117188 1608 199.120117188 1606 c 0,44,45
 201.120117188 1606 201.120117188 1606 203.120117188 1606 c 0,30,31
EndSplineSet
Validated: 33
EndChar

StartChar: quotedbl
Encoding: 34 34 5
Width: 798
GlyphClass: 2
Flags: W
HStem: 932 656
VStem: 73.5996 177<941.375 1567.94> 453.6 177<937.375 1563.94>
LayerCount: 2
Fore
SplineSet
175.599609375 1588 m 0,0,1
 263.599609375 1583 263.599609375 1583 263.599609375 1489 c 0,2,3
 263.599609375 1486 263.599609375 1486 263.599609375 1483 c 2,4,-1
 250.599609375 1028 l 2,5,6
 247.599609375 932 247.599609375 932 166.599609375 932 c 2,7,-1
 164.599609375 932 l 2,8,9
 73.599609375 933 73.599609375 933 73.599609375 1024 c 0,10,11
 73.599609375 1027 73.599609375 1027 73.599609375 1030 c 2,12,-1
 87.599609375 1477 l 2,13,14
 91.599609375 1588 91.599609375 1588 171.599609375 1588 c 0,15,16
 173.599609375 1588 173.599609375 1588 175.599609375 1588 c 0,0,1
555.599609375 1584 m 0,17,18
 643.599609375 1579 643.599609375 1579 643.599609375 1485 c 0,19,20
 643.599609375 1482 643.599609375 1482 643.599609375 1479 c 2,21,-1
 630.599609375 1024 l 2,22,23
 627.599609375 928 627.599609375 928 546.599609375 928 c 2,24,-1
 544.599609375 928 l 2,25,26
 453.599609375 929 453.599609375 929 453.599609375 1020 c 0,27,28
 453.599609375 1023 453.599609375 1023 453.599609375 1026 c 2,29,-1
 467.599609375 1473 l 2,30,31
 471.599609375 1584 471.599609375 1584 551.599609375 1584 c 0,32,33
 553.599609375 1584 553.599609375 1584 555.599609375 1584 c 0,17,18
EndSplineSet
Validated: 1
EndChar

StartChar: numbersign
Encoding: 35 35 6
Width: 1289
GlyphClass: 2
Flags: W
HStem: 399 174<27.2041 290.074 440.474 727.193 877.594 1158.48> 992 176<124.354 401.434 553.113 837.914 990.233 1254.63>
LayerCount: 2
Fore
SplineSet
114.954101562 1092 m 0,0,1
 116.954101562 1167 116.954101562 1167 250.954101562 1167 c 0,2,3
 345.11328125 1167 345.11328125 1167 434.07421875 1167 c 1,4,-1
 490.393554688 1468 l 2,5,6
 511.513671875 1581 511.513671875 1581 562.713867188 1554 c 0,7,8
 620.313476562 1524 620.313476562 1524 595.993164062 1394 c 2,9,-1
 553.11328125 1168 l 1,10,11
 712.473632812 1168 712.473632812 1168 871.193359375 1168 c 1,12,-1
 927.513671875 1468 l 2,13,14
 948.6328125 1581 948.6328125 1581 999.833007812 1554 c 0,15,16
 1076.40039062 1524 1076.40039062 1524 1038.40039062 1394 c 2,17,-1
 990.233398438 1169 l 1,18,-1
 1154.40039062 1169 l 2,19,20
 1272.40039062 1169 1272.40039062 1169 1269.40039062 1085 c 0,21,22
 1265.40039062 990 1265.40039062 990 1130.40039062 990 c 0,23,24
 1024.40039062 990 1024.40039062 990 956.313476562 990 c 1,25,-1
 877.59375 575 l 1,26,-1
 1057.40039062 575 l 2,27,28
 1175.40039062 575 1175.40039062 575 1172.40039062 491 c 0,29,30
 1168.40039062 396 1168.40039062 396 1033.40039062 396 c 0,31,32
 937.11328125 396 937.11328125 396 843.673828125 397 c 1,33,-1
 787.353515625 98 l 2,34,35
 770.07421875 8 770.07421875 8 709.9140625 39 c 0,36,37
 664.473632812 62 664.473632812 62 688.153320312 190 c 2,38,-1
 727.193359375 397 l 1,39,-1
 407.193359375 398 l 1,40,-1
 350.233398438 98 l 2,41,42
 332.953125 8 332.953125 8 272.79296875 39 c 0,43,44
 206.954101562 62 206.954101562 62 243.954101562 190 c 2,45,-1
 290.07421875 399 l 1,46,-1
 108.954101562 399 l 2,47,48
 14.9541015625 399 14.9541015625 399 17.9541015625 498 c 0,49,50
 19.9541015625 573 19.9541015625 573 153.954101562 573 c 2,51,-1
 322.713867188 573 l 1,52,-1
 401.43359375 992 l 1,53,-1
 205.954101562 993 l 2,54,55
 111.954101562 993 111.954101562 993 114.954101562 1092 c 0,0,1
440.473632812 574 m 1,56,-1
 760.473632812 574 l 1,57,-1
 837.9140625 991 l 1,58,-1
 519.833007812 992 l 1,59,-1
 440.473632812 574 l 1,56,-1
EndSplineSet
Validated: 33
EndChar

StartChar: dollar
Encoding: 36 36 7
Width: 1172
GlyphClass: 2
Flags: W
HStem: -64 184<338.388 463.514> 631 192<429.611 462.233 637.153 758.973>
VStem: 463.514 173<-350.447 -246 144 631 837 1262 1477 1708.5>
LayerCount: 2
Fore
SplineSet
549.513671875 1715 m 0,0,1
 635.513671875 1716 635.513671875 1716 635.513671875 1638 c 2,2,-1
 636.513671875 1477 l 1,3,4
 640.993164062 1477 640.993164062 1477 644.833007812 1477 c 0,5,6
 745.313476562 1477 745.313476562 1477 900.571289062 1394 c 0,7,8
 964.571289062 1365 964.571289062 1365 964.571289062 1295 c 0,9,10
 964.571289062 1254 964.571289062 1254 905.571289062 1229 c 0,11,12
 853.571289062 1209 853.571289062 1209 780.513671875 1241 c 0,13,14
 700.513671875 1290 700.513671875 1290 636.513671875 1290 c 1,15,16
 636.513671875 1059 636.513671875 1059 636.513671875 827 c 1,17,18
 656.993164062 825 656.993164062 825 676.833007812 823 c 0,19,20
 842.571289062 799 842.571289062 799 924.571289062 714 c 0,21,22
 1050.57128906 584 1050.57128906 584 1041.57128906 423 c 0,23,24
 1027.57128906 175 1027.57128906 175 786.2734375 32 c 0,25,26
 721.6328125 -27 721.6328125 -27 636.513671875 -49 c 1,27,-1
 637.153320312 -247 l 2,28,29
 637.153320312 -361 637.153320312 -361 549.513671875 -361 c 0,30,31
 465.513671875 -360 465.513671875 -360 464.513671875 -246 c 0,32,33
 464.513671875 -155 464.513671875 -155 463.513671875 -64 c 1,34,35
 463.513671875 -64 463.513671875 -64 462.874023438 -64 c 0,36,37
 347.673828125 -65 347.673828125 -65 258.459960938 -15 c 0,38,39
 178.459960938 18 178.459960938 18 122.459960938 67 c 0,40,41
 38.4599609375 140 38.4599609375 140 50.4599609375 217 c 0,42,43
 60.4599609375 284 60.4599609375 284 110.459960938 305 c 0,44,45
 175.459960938 332 175.459960938 332 256.459960938 245 c 0,46,47
 309.2734375 180 309.2734375 180 358.553710938 151 c 0,48,49
 411.033203125 122 411.033203125 122 463.513671875 120 c 1,50,-1
 462.233398438 635 l 1,51,52
 210.459960938 640 210.459960938 640 144.459960938 909 c 0,53,54
 106.459960938 1064 106.459960938 1064 194.459960938 1217 c 0,55,56
 258.459960938 1328 258.459960938 1328 384.153320312 1411 c 0,57,58
 420.6328125 1438 420.6328125 1438 460.953125 1454 c 1,59,60
 460.953125 1546 460.953125 1546 460.953125 1638 c 0,61,62
 460.953125 1714 460.953125 1714 549.513671875 1715 c 0,0,1
636.513671875 631 m 1,63,-1
 636.513671875 144 l 1,64,65
 718.43359375 176 718.43359375 176 752.353515625 227 c 0,66,67
 861.571289062 356 861.571289062 356 823.571289062 495 c 0,68,69
 793.313476562 610 793.313476562 610 636.513671875 631 c 1,63,-1
462.233398438 837 m 1,70,-1
 461.59375 1262 l 1,71,72
 423.193359375 1242 423.193359375 1242 395.673828125 1209 c 0,73,74
 335.513671875 1136 335.513671875 1136 329.11328125 1045 c 0,75,76
 317.59375 866 317.59375 866 421.2734375 841 c 1,77,-1
 462.233398438 837 l 1,70,-1
EndSplineSet
Validated: 33
EndChar

StartChar: percent
Encoding: 37 37 8
Width: 1524
GlyphClass: 2
Flags: W
HStem: -29 165<1084.7 1232.46> 476 160<1086.33 1232.08> 1045 147<291.782 504.085> 1496 142<290.492 504.578>
VStem: 99.2002 147<1236.31 1450.37> 550.2 144<1237.68 1449.8> 885.2 164<170.379 442.707> 1267.44 161<169.254 442.063>
LayerCount: 2
Fore
SplineSet
1113.83984375 1609 m 0,0,1
 1158 1574 1158 1574 1138.79980469 1509 c 2,2,-1
 480.200195312 -32 l 2,3,4
 442.200195312 -114 442.200195312 -114 360.700195312 -77.5 c 128,-1,5
 279.200195312 -41 279.200195312 -41 317.200195312 40 c 2,6,-1
 1044.20019531 1582 l 2,7,8
 1065.83984375 1647 1065.83984375 1647 1113.83984375 1609 c 0,0,1
297.200195312 1621 m 0,9,10
 345.200195312 1638 345.200195312 1638 397.200195312 1638 c 0,11,12
 424.200195312 1638 424.200195312 1638 449.200195312 1633 c 0,13,14
 530.200195312 1618 530.200195312 1618 589.200195312 1568 c 0,15,16
 650.200195312 1516 650.200195312 1516 676.200195312 1443 c 0,17,18
 694.200195312 1394 694.200195312 1394 694.200195312 1341 c 0,19,20
 694.200195312 1316 694.200195312 1316 689.200195312 1291 c 0,21,22
 675.200195312 1210 675.200195312 1210 622.200195312 1149 c 0,23,24
 569.200195312 1087 569.200195312 1087 492.200195312 1061 c 0,25,26
 446.200195312 1045 446.200195312 1045 396.200195312 1045 c 0,27,28
 365.200195312 1045 365.200195312 1045 335.200195312 1051 c 0,29,30
 255.200195312 1068 255.200195312 1068 195.200195312 1123 c 0,31,32
 137.200195312 1176 137.200195312 1176 114.200195312 1250 c 0,33,34
 100.200195312 1294 100.200195312 1294 99.2001953125 1342 c 0,35,36
 99.2001953125 1372 99.2001953125 1372 105.200195312 1401 c 0,37,38
 121.200195312 1480 121.200195312 1480 172.200195312 1536 c 0,39,40
 225.200195312 1595 225.200195312 1595 297.200195312 1621 c 0,9,10
399.200195312 1192 m 2,41,42
 441.200195312 1192 441.200195312 1192 476.200195312 1214 c 0,43,44
 512.200195312 1236 512.200195312 1236 532.200195312 1272 c 0,45,46
 550.200195312 1306 550.200195312 1306 550.200195312 1344 c 0,47,48
 550.200195312 1347 550.200195312 1347 550.200195312 1350 c 0,49,50
 548.200195312 1394 548.200195312 1394 525.200195312 1427 c 0,51,52
 510.200195312 1451 510.200195312 1451 484.200195312 1469 c 0,53,54
 459.200195312 1486 459.200195312 1486 430.200195312 1492 c 0,55,56
 415.200195312 1496 415.200195312 1496 398.200195312 1496 c 0,57,58
 353.200195312 1496 353.200195312 1496 316.200195312 1472 c 0,59,60
 273.200195312 1445 273.200195312 1445 255.200195312 1397 c 0,61,62
 245.200195312 1371 245.200195312 1371 246.200195312 1344 c 0,63,64
 246.200195312 1322 246.200195312 1322 252.200195312 1301 c 0,65,66
 266.200195312 1252 266.200195312 1252 307.200195312 1222 c 128,-1,67
 348.200195312 1192 348.200195312 1192 398.200195312 1192 c 2,68,-1
 399.200195312 1192 l 2,41,42
1086.3203125 617 m 0,69,70
 1120.87988281 636 1120.87988281 636 1158 636 c 0,71,72
 1177.20019531 636 1177.20019531 636 1195.75976562 630 c 0,73,74
 1254 614 1254 614 1311.43945312 558 c 0,75,76
 1379.43945312 499 1379.43945312 499 1408.43945312 417 c 0,77,78
 1428.43945312 362 1428.43945312 362 1428.43945312 303 c 0,79,80
 1428.43945312 275 1428.43945312 275 1424.43945312 247 c 0,81,82
 1408.43945312 156 1408.43945312 156 1349.43945312 88 c 0,83,84
 1290.43945312 19 1290.43945312 19 1226.47949219 -11 c 0,85,86
 1193.20019531 -29 1193.20019531 -29 1157.36035156 -29 c 0,87,88
 1134.95996094 -29 1134.95996094 -29 1113.83984375 -22 c 0,89,90
 1056.24023438 -3 1056.24023438 -3 993.200195312 58 c 0,91,92
 928.200195312 117 928.200195312 117 901.200195312 201 c 0,93,94
 885.200195312 251 885.200195312 251 885.200195312 304 c 0,95,96
 885.200195312 338 885.200195312 338 892.200195312 370 c 0,97,98
 910.200195312 459 910.200195312 459 967.200195312 521 c 0,99,100
 1026.20019531 588 1026.20019531 588 1086.3203125 617 c 0,69,70
1159.27929688 136 m 2,101,102
 1189.36035156 136 1189.36035156 136 1214.95996094 160 c 128,-1,103
 1240.56054688 184 1240.56054688 184 1254.63964844 225 c 0,104,105
 1267.43945312 263 1267.43945312 263 1267.43945312 306 c 0,106,107
 1267.43945312 310 1267.43945312 310 1267.43945312 313 c 0,108,109
 1266.16015625 362 1266.16015625 362 1250.16015625 399 c 0,110,111
 1239.27929688 426 1239.27929688 426 1220.08007812 446 c 0,112,113
 1202.79980469 465 1202.79980469 465 1181.6796875 472 c 0,114,115
 1170.79980469 476 1170.79980469 476 1158.63964844 476 c 0,116,117
 1126 476 1126 476 1099.75976562 449 c 0,118,119
 1069.04003906 418 1069.04003906 418 1056.24023438 365 c 0,120,121
 1049.20019531 336 1049.20019531 336 1049.20019531 306 c 0,122,123
 1049.20019531 281 1049.20019531 281 1053.6796875 258 c 0,124,125
 1063.91992188 203 1063.91992188 203 1093.36035156 169 c 128,-1,126
 1122.79980469 135 1122.79980469 135 1158.63964844 136 c 2,127,-1
 1159.27929688 136 l 2,101,102
EndSplineSet
Validated: 33
EndChar

StartChar: ampersand
Encoding: 38 38 9
Width: 1063
GlyphClass: 2
Flags: W
LayerCount: 2
Fore
SplineSet
974.72265625 41 m 1,0,1
 1011.72265625 -35 1011.72265625 -35 945.72265625 -76 c 0,2,3
 870.72265625 -122 870.72265625 -122 818.72265625 -40 c 2,4,-1
 671.513671875 255 l 1,5,-1
 608.153320312 132 l 2,6,7
 518.553710938 -41 518.553710938 -41 398.233398438 -38 c 0,8,9
 187.689453125 -33 187.689453125 -33 89.689453125 184 c 0,10,11
 -4.310546875 393 -4.310546875 393 175.689453125 596 c 2,12,-1
 402.713867188 915 l 1,13,-1
 362.393554688 1014 l 2,14,15
 236.689453125 1264 236.689453125 1264 320.153320312 1418 c 0,16,17
 385.43359375 1587 385.43359375 1587 548.6328125 1572 c 0,18,19
 683.033203125 1560 683.033203125 1560 713.75390625 1382 c 0,20,21
 741.9140625 1216 741.9140625 1216 640.79296875 1036 c 2,22,-1
 556.313476562 886 l 1,23,-1
 677.2734375 582 l 1,24,-1
 750.72265625 724 l 2,25,26
 818.72265625 811 818.72265625 811 900.72265625 752 c 0,27,28
 983.72265625 692 983.72265625 692 906.72265625 596 c 2,29,-1
 750.72265625 403 l 1,30,-1
 974.72265625 41 l 1,0,1
486.553710938 1063 m 1,31,-1
 555.673828125 1184 l 2,32,33
 612.6328125 1284 612.6328125 1284 591.513671875 1336 c 0,34,35
 568.473632812 1392 568.473632812 1392 519.833007812 1388 c 0,36,37
 448.79296875 1382 448.79296875 1382 432.79296875 1312 c 0,38,39
 416.153320312 1240 416.153320312 1240 454.553710938 1144 c 2,40,-1
 486.553710938 1063 l 1,31,-1
474.393554688 739 m 1,41,-1
 386.713867188 584 l 2,42,43
 265.689453125 393 265.689453125 393 281.689453125 312 c 0,44,45
 305.43359375 174 305.43359375 174 398.233398438 164 c 0,46,47
 465.43359375 157 465.43359375 157 546.713867188 320 c 2,48,-1
 600.473632812 428 l 1,49,-1
 474.393554688 739 l 1,41,-1
EndSplineSet
Validated: 33
EndChar

StartChar: quotesingle
Encoding: 39 39 10
Width: 666
GlyphClass: 2
Flags: W
HStem: 1141 518
VStem: 190.335 176<1150.53 1649.82>
LayerCount: 2
Fore
SplineSet
274.334960938 1659 m 0,0,1
 366.334960938 1662 366.334960938 1662 366.334960938 1553 c 2,2,-1
 366.334960938 1244 l 2,3,4
 366.334960938 1141 366.334960938 1141 281.334960938 1141 c 0,5,6
 192.334960938 1140 192.334960938 1140 190.334960938 1243 c 2,7,-1
 184.334960938 1551 l 2,8,9
 182.334960938 1655 182.334960938 1655 274.334960938 1659 c 0,0,1
EndSplineSet
Validated: 33
EndChar

StartChar: parenleft
Encoding: 40 40 11
Width: 724
GlyphClass: 2
Flags: W
LayerCount: 2
Fore
SplineSet
538.090820312 -214 m 0,0,1
 722.090820312 -338 722.090820312 -338 616.090820312 -420 c 0,2,3
 542.090820312 -476 542.090820312 -476 382.090820312 -330 c 0,4,5
 223.090820312 -185 223.090820312 -185 156.090820312 22 c 0,6,7
 61.0908203125 318 61.0908203125 318 72.0908203125 630 c 0,8,9
 82.0908203125 899 82.0908203125 899 198.090820312 1166 c 0,10,11
 280.090820312 1360 280.090820312 1360 396.090820312 1484 c 0,12,13
 556.090820312 1652 556.090820312 1652 626.090820312 1578 c 0,14,15
 702.090820312 1498 702.090820312 1498 520.090820312 1332 c 0,16,17
 372.090820312 1196 372.090820312 1196 308.090820312 890 c 0,18,19
 254.090820312 630 254.090820312 630 286.090820312 362 c 0,20,21
 339.090820312 -80 339.090820312 -80 538.090820312 -214 c 0,0,1
EndSplineSet
Validated: 33
EndChar

StartChar: parenright
Encoding: 41 41 12
Width: 726
GlyphClass: 2
Flags: W
LayerCount: 2
Fore
SplineSet
190.508789062 -214 m 0,0,1
 389.508789062 -80 389.508789062 -80 442.508789062 362 c 0,2,3
 474.508789062 630 474.508789062 630 420.508789062 890 c 0,4,5
 356.508789062 1196 356.508789062 1196 208.508789062 1332 c 0,6,7
 26.5087890625 1498 26.5087890625 1498 102.508789062 1578 c 0,8,9
 172.508789062 1652 172.508789062 1652 332.508789062 1484 c 0,10,11
 448.508789062 1360 448.508789062 1360 530.508789062 1166 c 0,12,13
 646.508789062 899 646.508789062 899 656.508789062 630 c 0,14,15
 667.508789062 318 667.508789062 318 572.508789062 22 c 0,16,17
 505.508789062 -185 505.508789062 -185 346.508789062 -330 c 0,18,19
 186.508789062 -476 186.508789062 -476 112.508789062 -420 c 0,20,21
 6.5087890625 -338 6.5087890625 -338 190.508789062 -214 c 0,0,1
EndSplineSet
Validated: 33
EndChar

StartChar: asterisk
Encoding: 42 42 13
Width: 891
GlyphClass: 2
Flags: W
VStem: 350.233 113.28<1271 1591.5>
LayerCount: 2
Fore
SplineSet
407.833007812 1593 m 0,0,1
 464.153320312 1591 464.153320312 1591 464.153320312 1500 c 2,2,-1
 463.513671875 1271 l 1,3,-1
 637.990234375 1347 l 2,4,5
 735.990234375 1382 735.990234375 1382 764.990234375 1297 c 0,6,7
 794.990234375 1216 794.990234375 1216 703.990234375 1183 c 2,8,-1
 508.953125 1107 l 1,9,-1
 655.990234375 949 l 2,10,11
 719.990234375 884 719.990234375 884 652.990234375 821 c 0,12,13
 588.990234375 761 588.990234375 761 525.59375 826 c 2,14,-1
 405.2734375 1019 l 1,15,-1
 288.153320312 833 l 2,16,17
 215.682617188 759 215.682617188 759 152.682617188 823 c 0,18,19
 90.6826171875 883 90.6826171875 883 158.682617188 953 c 2,20,-1
 301.59375 1107 l 1,21,-1
 102.682617188 1182 l 2,22,23
 17.6826171875 1213 17.6826171875 1213 50.6826171875 1298 c 0,24,25
 82.6826171875 1380 82.6826171875 1380 167.682617188 1349 c 2,26,-1
 350.233398438 1269 l 1,27,28
 350.233398438 1387 350.233398438 1387 349.59375 1504 c 0,29,30
 348.953125 1595 348.953125 1595 407.833007812 1593 c 0,0,1
EndSplineSet
Validated: 33
EndChar

StartChar: plus
Encoding: 43 43 14
Width: 888
GlyphClass: 2
Flags: W
HStem: 558 179<42.8232 331.113 509.113 785.112>
VStem: 329.113 180<239.593 558 737 1034.61>
LayerCount: 2
Fore
SplineSet
423.11328125 1045 m 0,0,1
 509.11328125 1044 509.11328125 1044 509.11328125 943 c 2,2,-1
 509.11328125 737 l 1,3,-1
 695.986328125 738 l 2,4,5
 795.986328125 738 795.986328125 738 795.986328125 649 c 0,6,7
 795.986328125 563 795.986328125 563 694.986328125 562 c 0,8,9
 589.986328125 561 589.986328125 561 509.11328125 560 c 1,10,-1
 509.11328125 319 l 2,11,12
 509.11328125 229 509.11328125 229 419.11328125 231 c 0,13,14
 327.833007812 232 327.833007812 232 329.11328125 323 c 0,15,16
 330.11328125 440 330.11328125 440 331.11328125 558 c 1,17,18
 240.936523438 557 240.936523438 557 121.936523438 556 c 0,19,20
 31.9365234375 555 31.9365234375 555 33.9365234375 645 c 0,21,22
 33.9365234375 736 33.9365234375 736 124.936523438 736 c 2,23,-1
 332.11328125 737 l 1,24,25
 333.11328125 841 333.11328125 841 333.11328125 945 c 0,26,27
 333.11328125 1046 333.11328125 1046 423.11328125 1045 c 0,0,1
EndSplineSet
Validated: 33
EndChar

StartChar: comma
Encoding: 44 44 15
Width: 320
GlyphClass: 2
Flags: W
LayerCount: 2
Fore
SplineSet
116.791992188 138 m 0,0,1
 186.791992188 102 186.791992188 102 150.791992188 25 c 2,2,-1
 20.7919921875 -256 l 2,3,4
 -23.2080078125 -353 -23.2080078125 -353 -87.2080078125 -325 c 0,5,6
 -155.208007812 -294 -155.208007812 -294 -121.208007812 -206 c 2,7,-1
 -5.2080078125 86 l 2,8,9
 32.7919921875 182 32.7919921875 182 116.791992188 138 c 0,0,1
EndSplineSet
Validated: 33
EndChar

StartChar: hyphen
Encoding: 45 45 16
Width: 814
GlyphClass: 2
Flags: W
HStem: 469 151<76.1797 712.516>
VStem: 71.6797 646<474.875 614.567>
LayerCount: 2
Fore
SplineSet
143.6796875 620 m 2,0,-1
 623.6796875 622 l 2,1,2
 717.6796875 622 717.6796875 622 717.6796875 546 c 0,3,4
 717.6796875 468 717.6796875 468 628.6796875 468 c 2,5,-1
 137.6796875 469 l 2,6,7
 71.6796875 469 71.6796875 469 71.6796875 543 c 0,8,9
 71.6796875 620 71.6796875 620 143.6796875 620 c 2,0,-1
EndSplineSet
Validated: 1
EndChar

StartChar: period
Encoding: 46 46 17
Width: 461
GlyphClass: 2
Flags: W
HStem: -93 249<121.536 311.732>
VStem: 91.5205 249<-64.208 126.343>
LayerCount: 2
Fore
SplineSet
212.520507812 156 m 0,0,1
 214.520507812 156 214.520507812 156 216.520507812 156 c 0,2,3
 250.520507812 156 250.520507812 156 279.520507812 139 c 0,4,5
 310.520507812 121 310.520507812 121 326.520507812 89 c 0,6,7
 340.520507812 62 340.520507812 62 340.520507812 31 c 0,8,9
 340.520507812 26 340.520507812 26 340.520507812 21 c 0,10,11
 337.520507812 -15 337.520507812 -15 315.520507812 -44 c 0,12,13
 295.520507812 -70 295.520507812 -70 271.520507812 -81 c 0,14,15
 246.520507812 -94 246.520507812 -94 215.520507812 -93 c 0,16,17
 212.520507812 -93 212.520507812 -93 209.520507812 -93 c 0,18,19
 178.520507812 -92 178.520507812 -92 152.520507812 -76 c 0,20,21
 125.520507812 -60 125.520507812 -60 108.520507812 -32 c 0,22,23
 91.5205078125 -3 91.5205078125 -3 91.5205078125 31 c 0,24,25
 91.5205078125 63 91.5205078125 63 107.520507812 91 c 0,26,27
 124.520507812 120 124.520507812 120 150.520507812 138 c 0,28,29
 178.520507812 156 178.520507812 156 212.520507812 156 c 0,0,1
EndSplineSet
Validated: 1
EndChar

StartChar: slash
Encoding: 47 47 18
Width: 873
GlyphClass: 2
Flags: W
LayerCount: 2
Fore
SplineSet
753.5546875 1609 m 0,0,1
 822.5546875 1574 822.5546875 1574 792.5546875 1509 c 2,2,-1
 228.131835938 -32 l 2,3,4
 190.131835938 -115 190.131835938 -115 109.131835938 -79 c 0,5,6
 27.1318359375 -43 27.1318359375 -43 65.1318359375 40 c 2,7,-1
 647.5546875 1582 l 2,8,9
 678.5546875 1647 678.5546875 1647 753.5546875 1609 c 0,0,1
EndSplineSet
Validated: 33
EndChar

StartChar: zero
Encoding: 48 48 19
Width: 963
GlyphClass: 2
Flags: W
HStem: -50 186<362.913 569.498> 1328 189<368.692 583.688>
VStem: 39.04 198<327.701 1134.74> 695.92 204<333.619 1159.11>
LayerCount: 2
Fore
SplineSet
484.720703125 1328 m 0,0,1
 237.040039062 1328 237.040039062 1328 237.040039062 748 c 0,2,3
 237.040039062 136 237.040039062 136 465.520507812 136 c 0,4,5
 695.919921875 136 695.919921875 136 695.919921875 763 c 0,6,7
 695.919921875 1328 695.919921875 1328 484.720703125 1328 c 0,0,1
482.799804688 1517 m 0,8,9
 899.919921875 1517 899.919921875 1517 899.919921875 760 c 0,10,11
 899.919921875 -50 899.919921875 -50 465.520507812 -50 c 0,12,13
 39.0400390625 -50 39.0400390625 -50 39.0400390625 745 c 0,14,15
 39.0400390625 1517 39.0400390625 1517 482.799804688 1517 c 0,8,9
EndSplineSet
Validated: 1
EndChar

StartChar: one
Encoding: 49 49 20
Width: 874
GlyphClass: 2
Flags: W
HStem: -48 184<119.021 355.754 538.754 739.987>
VStem: 355.754 183<136 1197>
LayerCount: 2
Fore
SplineSet
544.75390625 1406 m 2,0,1
 544.75390625 1406 544.75390625 1406 538.75390625 135 c 1,2,3
 593.75390625 135 593.75390625 135 647.75390625 135 c 0,4,5
 750.75390625 135 750.75390625 135 750.75390625 42 c 0,6,7
 750.75390625 -48 750.75390625 -48 650.75390625 -48 c 2,8,-1
 196.75390625 -48 l 2,9,10
 106.75390625 -48 106.75390625 -48 106.75390625 36 c 0,11,12
 107.75390625 136 107.75390625 136 206.75390625 136 c 0,13,14
 280.75390625 136 280.75390625 136 355.75390625 136 c 1,15,-1
 357.75390625 1197 l 1,16,-1
 283.75390625 1127 l 2,17,18
 188.75390625 1036 188.75390625 1036 123.75390625 1124 c 0,19,20
 71.75390625 1194 71.75390625 1194 142.75390625 1261 c 2,21,-1
 341.75390625 1448 l 2,22,23
 422.75390625 1524 422.75390625 1524 490.75390625 1508 c 0,24,25
 545.75390625 1496 545.75390625 1496 544.75390625 1406 c 2,0,1
EndSplineSet
Validated: 33
EndChar

StartChar: two
Encoding: 50 50 21
Width: 1028
GlyphClass: 2
Flags: W
HStem: -49 189<302 869.972>
VStem: 669.943 197<917.236 1272.07>
LayerCount: 2
Fore
SplineSet
106 90 m 0,0,1
 112 292 112 292 255 502 c 0,2,3
 375.193359375 695 375.193359375 695 544.153320312 823 c 0,4,5
 664.943359375 906 664.943359375 906 669.943359375 1125 c 0,6,7
 672.943359375 1249 672.943359375 1249 585.11328125 1308 c 0,8,9
 512.79296875 1365 512.79296875 1365 435.353515625 1326 c 0,10,11
 389.2734375 1302 389.2734375 1302 300 1172 c 0,12,13
 218 1078 218 1078 142 1142 c 0,14,15
 72 1198 72 1198 128 1266 c 0,16,17
 243 1407 243 1407 325 1455 c 0,18,19
 401.43359375 1518 401.43359375 1518 505.75390625 1518 c 0,20,21
 603.673828125 1518 603.673828125 1518 676.943359375 1462 c 0,22,23
 871.943359375 1340 871.943359375 1340 866.943359375 1108 c 0,24,25
 859.943359375 796 859.943359375 796 619.033203125 682 c 0,26,27
 473.11328125 578 473.11328125 578 396.313476562 403 c 0,28,29
 309 237 309 237 302 140 c 1,30,31
 521.75390625 139 521.75390625 139 774.943359375 138 c 0,32,33
 881.943359375 138 881.943359375 138 880.943359375 46 c 0,34,35
 879.943359375 -50 879.943359375 -50 775.943359375 -49 c 2,36,-1
 204 -49 l 2,37,38
 101 -49 101 -49 106 90 c 0,0,1
EndSplineSet
Validated: 33
EndChar

StartChar: three
Encoding: 51 51 22
Width: 1023
GlyphClass: 2
Flags: W
LayerCount: 2
Fore
SplineSet
344.473632812 810 m 0,0,1
 345.75390625 868 345.75390625 868 384.153320312 894 c 0,2,3
 411.673828125 913 411.673828125 913 540.313476562 962 c 0,4,5
 667.340820312 1005 667.340820312 1005 653.340820312 1155 c 0,6,7
 638.340820312 1317 638.340820312 1317 486.553710938 1335 c 0,8,9
 420.6328125 1343 420.6328125 1343 370.07421875 1287 c 0,10,11
 271.758789062 1205 271.758789062 1205 221.758789062 1211 c 0,12,13
 152.758789062 1219 152.758789062 1219 147.758789062 1289 c 0,14,15
 141.758789062 1375 141.758789062 1375 239.758789062 1433 c 0,16,17
 384.79296875 1534 384.79296875 1534 471.833007812 1525 c 0,18,19
 670.340820312 1507 670.340820312 1507 761.340820312 1372 c 0,20,21
 916.340820312 1143 916.340820312 1143 776.340820312 937 c 0,22,23
 725.340820312 862 725.340820312 862 611.993164062 816 c 1,24,25
 637.340820312 810 637.340820312 810 721.340820312 756 c 0,26,27
 902.340820312 641 902.340820312 641 862.340820312 335 c 0,28,29
 822.340820312 34 822.340820312 34 545.43359375 -32 c 0,30,31
 372.6328125 -87 372.6328125 -87 217.758789062 39 c 0,32,33
 97.7587890625 127 97.7587890625 127 94.7587890625 225 c 0,34,35
 91.7587890625 318 91.7587890625 318 172.758789062 327 c 0,36,37
 215.758789062 331 215.758789062 331 316.758789062 208 c 0,38,39
 371.353515625 120 371.353515625 120 501.9140625 150 c 0,40,41
 684.340820312 187 684.340820312 187 670.340820312 410 c 0,42,43
 655.340820312 666 655.340820312 666 448.79296875 718 c 1,44,45
 343.833007812 732 343.833007812 732 344.473632812 810 c 0,0,1
EndSplineSet
Validated: 33
EndChar

StartChar: four
Encoding: 52 52 23
Width: 1052
GlyphClass: 2
Flags: W
HStem: 414 198<311.833 583.833 773.113 978.744>
VStem: 585.113 188<-37.9258 414 612 1237>
LayerCount: 2
Fore
SplineSet
524.313476562 1423 m 2,0,1
 567.833007812 1516 567.833007812 1516 671.11328125 1515 c 0,2,3
 773.11328125 1514 773.11328125 1514 773.11328125 1409 c 2,4,-1
 773.11328125 612 l 1,5,6
 813.11328125 612 813.11328125 612 853.11328125 612 c 0,7,8
 994.11328125 612 994.11328125 612 997.11328125 512 c 0,9,10
 999.11328125 414 999.11328125 414 858.11328125 414 c 2,11,-1
 773.11328125 414 l 1,12,-1
 773.11328125 56 l 2,13,14
 773.11328125 -51 773.11328125 -51 681.11328125 -50 c 0,15,16
 585.11328125 -49 585.11328125 -49 585.11328125 58 c 0,17,18
 584.473632812 236 584.473632812 236 584.473632812 414 c 1,19,-1
 124.720703125 413 l 2,20,21
 30.720703125 413 30.720703125 413 30.720703125 504 c 0,22,23
 30.720703125 554 30.720703125 554 65.720703125 602 c 2,24,-1
 524.313476562 1423 l 2,0,1
583.833007812 611 m 1,25,26
 583.833007812 895 583.833007812 895 585.11328125 1237 c 1,27,-1
 311.833007812 610 l 1,28,-1
 583.833007812 611 l 1,25,26
EndSplineSet
Validated: 33
EndChar

StartChar: five
Encoding: 53 53 24
Width: 1016
GlyphClass: 2
Flags: W
HStem: 853 195<408.961 656.734> 1312 192<337.434 850.137>
LayerCount: 2
Fore
SplineSet
242.18359375 1500 m 2,0,-1
 753.73828125 1504 l 2,1,2
 860.73828125 1505 860.73828125 1505 861.73828125 1412 c 0,3,4
 862.73828125 1312 862.73828125 1312 759.73828125 1312 c 2,5,-1
 337.43359375 1312 l 1,6,-1
 304.18359375 925 l 1,7,8
 412.953125 1048 412.953125 1048 519.193359375 1048 c 0,9,10
 924.73828125 1047 924.73828125 1047 916.73828125 556 c 0,11,12
 905.73828125 -90 905.73828125 -90 409.11328125 -60 c 0,13,14
 218.18359375 -49 218.18359375 -49 106.18359375 134 c 0,15,16
 54.18359375 219 54.18359375 219 104.18359375 262 c 0,17,18
 194.18359375 340 194.18359375 340 255.18359375 261 c 0,19,20
 345.75390625 127 345.75390625 127 433.43359375 127 c 0,21,22
 688.73828125 126 688.73828125 126 721.73828125 553 c 0,23,24
 745.73828125 855 745.73828125 855 519.193359375 853 c 0,25,26
 419.993164062 852 419.993164062 852 357.9140625 748 c 1,27,28
 247.18359375 623 247.18359375 623 169.18359375 625 c 0,29,30
 86.18359375 628 86.18359375 628 97.18359375 754 c 2,31,-1
 158.18359375 1442 l 1,32,33
 172.18359375 1500 172.18359375 1500 242.18359375 1500 c 2,0,-1
EndSplineSet
Validated: 33
EndChar

StartChar: six
Encoding: 54 54 25
Width: 976
GlyphClass: 2
Flags: W
HStem: -53 176<337.941 562.141> 749 202<343.24 572.77>
VStem: 83.7402 184<199.453 653.995> 653.021 192<225.147 665.805>
LayerCount: 2
Fore
SplineSet
263.740234375 1175 m 0,0,1
 356.700195312 1384 356.700195312 1384 504.540039062 1502 c 0,2,3
 580.700195312 1563 580.700195312 1563 606.939453125 1456 c 0,4,5
 620.379882812 1394 620.379882812 1394 545.5 1321 c 0,6,7
 469.979492188 1247 469.979492188 1247 416.860351562 1162 c 0,8,9
 357.33984375 1066 357.33984375 1066 304.220703125 884 c 1,10,11
 348.379882812 951 348.379882812 951 476.379882812 951 c 0,12,13
 845.020507812 952 845.020507812 952 845.020507812 458 c 0,14,15
 845.020507812 -49 845.020507812 -49 434.139648438 -53 c 0,16,17
 101.740234375 -57 101.740234375 -57 83.740234375 418 c 0,18,19
 65.740234375 886 65.740234375 886 263.740234375 1175 c 0,0,1
461.020507812 749 m 0,20,21
 267.740234375 749 267.740234375 749 267.740234375 437 c 0,22,23
 267.740234375 123 267.740234375 123 431.580078125 123 c 0,24,25
 653.020507812 123 653.020507812 123 653.020507812 449 c 0,26,27
 653.020507812 749 653.020507812 749 461.020507812 749 c 0,20,21
EndSplineSet
Validated: 33
EndChar

StartChar: seven
Encoding: 55 55 26
Width: 999
GlyphClass: 2
Flags: W
HStem: 1317 192<59.969 691.354>
LayerCount: 2
Fore
SplineSet
46.080078125 1413 m 128,-1,1
 46.080078125 1509 46.080078125 1509 175.080078125 1509 c 2,2,-1
 816.471679688 1512 l 2,3,4
 948.471679688 1512 948.471679688 1512 954.471679688 1422 c 0,5,6
 956.471679688 1382 956.471679688 1382 939.471679688 1357 c 0,7,8
 937.471679688 1354 937.471679688 1354 935.471679688 1350 c 2,9,-1
 403.353515625 24 l 2,10,11
 359.833007812 -105 359.833007812 -105 300.953125 -49 c 0,12,13
 214.080078125 6 214.080078125 6 273.080078125 116 c 2,14,-1
 691.353515625 1317 l 1,15,-1
 172.080078125 1317 l 2,16,0
 46.080078125 1317 46.080078125 1317 46.080078125 1413 c 128,-1,1
EndSplineSet
Validated: 33
EndChar

StartChar: eight
Encoding: 56 56 27
Width: 1002
GlyphClass: 2
Flags: W
HStem: -44 21G<277.517 680.014> 1331 183<375.474 588.283>
VStem: 126.721 197.912<951.688 1278.35> 634.394 177.32<974.065 1281.87> 674.714 209<201.25 577.464>
LayerCount: 2
Fore
SplineSet
485.9140625 1514 m 0,0,1
 811.713867188 1514 811.713867188 1514 811.713867188 1118 c 0,2,3
 811.713867188 882 811.713867188 882 619.033203125 801 c 1,4,5
 883.713867188 719 883.713867188 719 883.713867188 392 c 0,6,7
 883.713867188 -44 883.713867188 -44 476.313476562 -44 c 0,8,9
 78.720703125 -44 78.720703125 -44 78.720703125 346 c 0,10,11
 78.720703125 696 78.720703125 696 326.553710938 792 c 1,12,13
 126.720703125 866 126.720703125 866 126.720703125 1112 c 0,14,15
 126.720703125 1514 126.720703125 1514 485.9140625 1514 c 0,0,1
634.393554688 1121 m 0,16,17
 632.473632812 1329 632.473632812 1329 489.75390625 1331 c 0,18,19
 315.720703125 1333 315.720703125 1333 324.6328125 1088 c 0,20,21
 327.833007812 924 327.833007812 924 472.473632812 894 c 1,22,23
 636.953125 948 636.953125 948 634.393554688 1121 c 0,16,17
273.720703125 364 m 0,24,25
 294.720703125 108 294.720703125 108 507.033203125 123 c 0,26,27
 674.07421875 135 674.07421875 135 674.713867188 392 c 0,28,29
 676.713867188 621 676.713867188 621 476.313476562 717 c 1,30,31
 255.720703125 590 255.720703125 590 273.720703125 364 c 0,24,25
EndSplineSet
Validated: 33
EndChar

StartChar: nine
Encoding: 57 57 28
Width: 1016
GlyphClass: 2
Flags: W
HStem: 519 996<80.6396 601.754>
VStem: 80.6396 183<791.98 1220.81>
LayerCount: 2
Fore
SplineSet
663.944335938 583 m 1,0,1
 601.75390625 519 601.75390625 519 465.43359375 519 c 0,2,3
 80.6396484375 519 80.6396484375 519 80.6396484375 984 c 0,4,5
 80.6396484375 1527 80.6396484375 1527 510.874023438 1515 c 0,6,7
 898.944335938 1504 898.944335938 1504 896.944335938 912 c 0,8,9
 895.944335938 666 895.944335938 666 831.944335938 491 c 0,10,11
 685.944335938 94 685.944335938 94 355.993164062 -43 c 0,12,13
 251.639648438 -76 251.639648438 -76 220.639648438 14 c 0,14,15
 187.639648438 111 187.639648438 111 288.639648438 135 c 0,16,17
 439.193359375 187 439.193359375 187 526.874023438 297 c 0,18,19
 599.193359375 388 599.193359375 388 663.944335938 583 c 1,0,1
486.553710938 712 m 0,20,21
 731.944335938 726 731.944335938 726 708.944335938 995 c 0,22,23
 681.944335938 1321 681.944335938 1321 507.673828125 1331 c 0,24,25
 262.639648438 1345 262.639648438 1345 263.639648438 985 c 0,26,27
 264.639648438 699 264.639648438 699 486.553710938 712 c 0,20,21
EndSplineSet
Validated: 33
EndChar

StartChar: less
Encoding: 60 60 31
Width: 721
GlyphClass: 2
Flags: W
LayerCount: 2
Fore
SplineSet
61.7998046875 695 m 2,0,-1
 443.799804688 1027 l 2,1,2
 529.799804688 1102 529.799804688 1102 591.799804688 1024 c 0,3,4
 643.799804688 958 643.799804688 958 556.799804688 884 c 2,5,-1
 243.799804688 618 l 1,6,-1
 568.799804688 348 l 2,7,8
 635.799804688 292 635.799804688 292 573.799804688 222 c 0,9,10
 519.799804688 161 519.799804688 161 451.799804688 216 c 2,11,-1
 68.7998046875 525 l 2,12,13
 12.7998046875 570 12.7998046875 570 12.7998046875 605 c 0,14,15
 13.7998046875 653 13.7998046875 653 61.7998046875 695 c 2,0,-1
EndSplineSet
Validated: 33
EndChar

StartChar: equal
Encoding: 61 61 32
Width: 874
GlyphClass: 2
Flags: W
HStem: 277 179<66.1052 722.909> 819 179<74.1934 731.38>
LayerCount: 2
Fore
SplineSet
153.599609375 998 m 2,0,-1
 627.427734375 1000 l 2,1,2
 741.427734375 1000 741.427734375 1000 741.427734375 910 c 0,3,4
 741.427734375 818 741.427734375 818 632.427734375 818 c 2,5,-1
 144.599609375 819 l 2,6,7
 65.599609375 819 65.599609375 819 65.599609375 906 c 0,8,9
 65.599609375 998 65.599609375 998 153.599609375 998 c 2,0,-1
144.599609375 456 m 2,10,-1
 618.427734375 458 l 2,11,12
 731.427734375 458 731.427734375 458 732.427734375 368 c 0,13,14
 732.427734375 276 732.427734375 276 624.427734375 276 c 2,15,-1
 136.599609375 277 l 2,16,17
 57.599609375 277 57.599609375 277 57.599609375 364 c 0,18,19
 57.599609375 456 57.599609375 456 144.599609375 456 c 2,10,-1
EndSplineSet
Validated: 1
EndChar

StartChar: greater
Encoding: 62 62 33
Width: 752
GlyphClass: 2
Flags: W
LayerCount: 2
Fore
SplineSet
624.682617188 723 m 2,0,1
 672.682617188 681 672.682617188 681 673.682617188 633 c 0,2,3
 673.682617188 598 673.682617188 598 617.682617188 553 c 2,4,-1
 234.682617188 244 l 2,5,6
 166.682617188 189 166.682617188 189 112.682617188 250 c 0,7,8
 49.6826171875 321 49.6826171875 321 117.682617188 376 c 2,9,-1
 442.682617188 646 l 1,10,-1
 129.682617188 912 l 2,11,12
 42.6826171875 986 42.6826171875 986 94.6826171875 1052 c 0,13,14
 156.682617188 1130 156.682617188 1130 242.682617188 1055 c 2,15,-1
 624.682617188 723 l 2,0,1
EndSplineSet
Validated: 33
EndChar

StartChar: question
Encoding: 63 63 34
Width: 951
GlyphClass: 2
Flags: W
HStem: -70 249<256.145 446.607>
VStem: 226.946 246.92<-41.0469 150.493> 269.946 202<383.448 646.932>
LayerCount: 2
Fore
SplineSet
319.946289062 176 m 0,0,1
 334.946289062 180 334.946289062 180 350.946289062 179 c 0,2,3
 367.946289062 179 367.946289062 179 383.946289062 175 c 0,4,5
 414.946289062 166 414.946289062 166 437.946289062 143 c 0,6,7
 464.946289062 118 464.946289062 118 470.946289062 88 c 0,8,9
 473.2265625 72 473.2265625 72 473.866210938 55 c 0,10,11
 473.866210938 35 473.866210938 35 471.946289062 24 c 0,12,13
 461.946289062 -13 461.946289062 -13 434.946289062 -38 c 0,14,15
 406.946289062 -63 406.946289062 -63 367.946289062 -68 c 0,16,17
 359.946289062 -69 359.946289062 -69 350.946289062 -70 c 0,18,19
 321.946289062 -70 321.946289062 -70 296.946289062 -57 c 0,20,21
 262.946289062 -41 262.946289062 -41 243.946289062 -8 c 0,22,23
 226.946289062 21 226.946289062 21 226.946289062 55 c 0,24,25
 226.946289062 80 226.946289062 80 235.946289062 103 c 0,26,27
 246.946289062 130 246.946289062 130 269.946289062 149 c 0,28,29
 289.946289062 168 289.946289062 168 319.946289062 176 c 0,0,1
99.9462890625 1339 m 0,30,31
 217.946289062 1472 217.946289062 1472 475.787109375 1477 c 0,32,33
 765.633789062 1484 765.633789062 1484 811.633789062 1156 c 0,34,35
 867.633789062 770 867.633789062 770 601.633789062 697 c 0,36,37
 471.946289062 646 471.946289062 646 471.946289062 562 c 0,38,39
 467.946289062 363 467.946289062 363 377.946289062 358 c 0,40,41
 241.946289062 351 241.946289062 351 269.946289062 580 c 0,42,43
 294.946289062 787 294.946289062 787 489.866210938 851 c 0,44,45
 645.633789062 914 645.633789062 914 604.633789062 1120 c 0,46,47
 577.633789062 1255 577.633789062 1255 480.90625 1273 c 0,48,49
 347.946289062 1290 347.946289062 1290 267.946289062 1219 c 0,50,51
 143.946289062 1108 143.946289062 1108 89.9462890625 1150 c 0,52,53
 -2.0537109375 1222 -2.0537109375 1222 99.9462890625 1339 c 0,30,31
EndSplineSet
Validated: 33
EndChar

StartChar: at
Encoding: 64 64 35
Width: 1537
GlyphClass: 2
Flags: W
HStem: -140 190<578.045 921.547> 1426 201<555.626 935.714>
VStem: 72.96 201<437.274 1058.86> 401.32 174<538.004 918.214> 812.76 193<633.848 1001.94> 1195.84 210<661.336 1125.3>
LayerCount: 2
Fore
SplineSet
1022.40039062 626 m 1,0,1
 1036.47949219 589 1036.47949219 589 1074.87988281 598 c 0,2,3
 1134.40039062 611 1134.40039062 611 1172.79980469 705 c 0,4,5
 1195.83984375 761 1195.83984375 761 1195.83984375 891 c 0,6,7
 1195.83984375 988 1195.83984375 988 1175.36035156 1070 c 0,8,9
 1156.16015625 1150 1156.16015625 1150 1112.63964844 1226 c 0,10,11
 1072.3203125 1296 1072.3203125 1296 1017.27929688 1342 c 0,12,13
 869.759765625 1426 869.759765625 1426 728.279296875 1426 c 0,14,15
 707.16015625 1426 707.16015625 1426 686.6796875 1423 c 0,16,17
 567.3203125 1408 567.3203125 1408 447.3203125 1309 c 0,18,19
 393.639648438 1261 393.639648438 1261 362.919921875 1192 c 0,20,21
 307.879882812 1065 307.879882812 1065 286.120117188 895 c 0,22,23
 274.599609375 805 274.599609375 805 273.959960938 717 c 0,24,25
 272.959960938 643 272.959960938 643 282.279296875 574 c 0,26,27
 304.6796875 389 304.6796875 389 380.83984375 256 c 0,28,29
 493.3203125 118 493.3203125 118 635.479492188 70 c 0,30,31
 684.120117188 50 684.120117188 50 734.6796875 50 c 0,32,33
 787.799804688 50 787.799804688 50 877.759765625 79 c 0,34,35
 927.759765625 93 927.759765625 93 1036.47949219 145 c 0,36,37
 1113.27929688 195 1113.27929688 195 1140.16015625 110 c 0,38,39
 1169.59960938 19 1169.59960938 19 1099.83984375 -39 c 0,40,41
 1024.95996094 -101 1024.95996094 -101 819.759765625 -137 c 0,42,43
 807 -140 807 -140 721.240234375 -140 c 0,44,45
 653.400390625 -140 653.400390625 -140 548.3203125 -83 c 0,46,47
 429.3203125 -37 429.3203125 -37 351.400390625 46 c 0,48,49
 204.959960938 197 204.959960938 197 112.959960938 445 c 0,50,51
 72.9599609375 553 72.9599609375 553 72.9599609375 761 c 0,52,53
 72.9599609375 809 72.9599609375 809 76.9599609375 856 c 0,54,55
 90.9599609375 1008 90.9599609375 1008 150.959960938 1147 c 0,56,57
 210.959960938 1290 210.959960938 1290 297.639648438 1390 c 0,58,59
 380.83984375 1523 380.83984375 1523 551.3203125 1594 c 0,60,61
 614.360351562 1627 614.360351562 1627 730.83984375 1627 c 0,62,63
 754.520507812 1627 754.520507812 1627 777.560546875 1624 c 0,64,65
 919.759765625 1611 919.759765625 1611 1023.6796875 1561 c 0,66,67
 1096.63964844 1512 1096.63964844 1512 1161.91992188 1426 c 0,68,69
 1306.83984375 1290 1306.83984375 1290 1370.83984375 1102 c 0,70,71
 1406.83984375 998 1406.83984375 998 1405.83984375 888 c 0,72,73
 1405.83984375 777 1405.83984375 777 1369.83984375 676 c 0,74,75
 1327.83984375 558 1327.83984375 558 1256.83984375 462 c 0,76,77
 1195.20019531 378 1195.20019531 378 1088.95996094 348 c 0,78,79
 1032 332 1032 332 971.759765625 390 c 0,80,81
 952.759765625 405 952.759765625 405 935.759765625 426 c 1,82,83
 861.759765625 361 861.759765625 361 767.3203125 346 c 0,84,85
 411.3203125 287 411.3203125 287 401.3203125 664 c 0,86,87
 393.639648438 1136 393.639648438 1136 750.6796875 1195 c 0,88,89
 798.6796875 1205 798.6796875 1205 847.759765625 1185 c 1,90,91
 868.759765625 1219 868.759765625 1219 918.759765625 1219 c 0,92,93
 1010.24023438 1219 1010.24023438 1219 1005.75976562 1146 c 0,94,95
 984.759765625 877 984.759765625 877 1022.40039062 626 c 1,0,1
730.83984375 999 m 0,96,97
 575.3203125 974 575.3203125 974 575.3203125 688 c 0,98,99
 575.3203125 520 575.3203125 520 680.919921875 511 c 0,100,101
 776.919921875 503 776.919921875 503 841.759765625 594 c 1,102,103
 803.799804688 841 803.799804688 841 812.759765625 994 c 1,104,105
 772.439453125 1007 772.439453125 1007 730.83984375 999 c 0,96,97
EndSplineSet
Validated: 33
EndChar

StartChar: A
Encoding: 65 65 36
Width: 1178
GlyphClass: 2
Flags: W
HStem: 270 185<397 707>
VStem: 830.867 194<-11.0645 66>
LayerCount: 2
Fore
SplineSet
656.79296875 1363 m 2,0,-1
 1024.8671875 122 l 2,1,2
 1064 -11 1064 -11 974.8671875 -44 c 0,3,4
 890 -76 890 -76 830.8671875 66 c 2,5,-1
 742 280 l 1,6,-1
 362 270 l 1,7,-1
 296.9609375 66 l 2,8,9
 252.675132329 -72.9058191752 252.675132329 -72.9058191752 153.009681032 -44.0122873448 c 0,10,11
 61.8052949496 -16.9422102274 61.8052949496 -16.9422102274 102.9609375 122 c 2,12,-1
 470.553710938 1363 l 2,13,14
 520 1529 520 1529 563.993164062 1529 c 128,-1,15
 608 1529 608 1529 656.79296875 1363 c 2,0,-1
559 1100 m 1,16,-1
 397 455 l 1,17,-1
 707 463 l 1,18,-1
 559 1100 l 1,16,-1
EndSplineSet
Validated: 33
EndChar

StartChar: B
Encoding: 66 66 37
Width: 1053
GlyphClass: 2
Flags: W
VStem: 125.475 198<120.796 532.949> 158.475 177.378<830.281 1331>
LayerCount: 2
Fore
SplineSet
346.154296875 1331 m 1,0,-1
 335.852539062 727 l 1,1,2
 516 693 516 693 609.1953125 909 c 0,3,4
 671 1054 671 1054 632.235351562 1176 c 0,5,6
 586 1321 586 1321 435.754882812 1328 c 0,7,8
 391 1330 391 1330 346.154296875 1331 c 1,0,-1
251.474609375 1528 m 0,9,10
 274 1528 274 1528 292.474609375 1523 c 1,11,12
 342 1533 342 1533 464.5546875 1515 c 0,13,14
 708 1479 708 1479 804.973632812 1214 c 0,15,16
 911 925 911 925 696.3515625 682 c 0,17,18
 676 659 676 659 658.413085938 638 c 1,19,20
 712 618 712 618 740.3515625 597 c 0,21,22
 979 420 979 420 899.973632812 210 c 0,23,24
 842 55 842 55 610.653320312 -23 c 0,25,26
 485 -65 485 -65 230.474609375 -65 c 0,27,28
 230 -65 230 -65 212.474609375 -66 c 0,29,30
 122.771720748 -71.0127566499 122.771720748 -71.0127566499 125.474609375 43 c 2,31,-1
 158.474609375 1435 l 2,32,33
 161 1528 161 1528 251.474609375 1528 c 0,9,10
328 530 m 1,34,-1
 323.474609375 124 l 1,35,36
 390 116 390 116 452.120117188 127 c 0,37,38
 516 139 516 139 606.10546875 186 c 0,39,40
 712 241 712 241 722.973632812 339 c 0,41,42
 727 376 727 376 644.416015625 450 c 0,43,44
 575 512 575 512 482.633789062 525 c 0,45,46
 386 538 386 538 328 530 c 1,34,-1
EndSplineSet
Validated: 33
EndChar

StartChar: C
Encoding: 67 67 38
Width: 1019
GlyphClass: 2
Flags: W
VStem: 87.9238 218<353.708 1014.35>
LayerCount: 2
Fore
SplineSet
465.923828125 1244 m 0,0,1
 405.124023438 1181 405.124023438 1181 358.404296875 1056 c 0,2,3
 305.923828125 915 305.923828125 915 305.923828125 673 c 0,4,5
 305.923828125 450 305.923828125 450 366.724609375 304 c 0,6,7
 415.364257812 189 415.364257812 189 496.643554688 183 c 0,8,9
 612.484375 174 612.484375 174 675.204101562 238 c 0,10,11
 804.154296875 329 804.154296875 329 860.154296875 317 c 0,12,13
 957.154296875 299 957.154296875 299 942.154296875 164 c 0,14,15
 934.154296875 88 934.154296875 88 741.154296875 9 c 0,16,17
 624.00390625 -57 624.00390625 -57 506.244140625 -50 c 0,18,19
 351.364257812 -42 351.364257812 -42 232.923828125 148 c 0,20,21
 86.923828125 340 86.923828125 340 87.923828125 649 c 0,22,23
 87.923828125 1018 87.923828125 1018 221.923828125 1209 c 0,24,25
 377.603515625 1485 377.603515625 1485 517.124023438 1520 c 0,26,27
 650.244140625 1553 650.244140625 1553 790.154296875 1468 c 0,28,29
 917.154296875 1403 917.154296875 1403 921.154296875 1346 c 0,30,31
 925.154296875 1273 925.154296875 1273 886.154296875 1235 c 0,32,33
 815.154296875 1169 815.154296875 1169 740.154296875 1221 c 0,34,35
 680.963867188 1268 680.963867188 1268 624.00390625 1289 c 0,36,37
 538.884765625 1319 538.884765625 1319 465.923828125 1244 c 0,0,1
EndSplineSet
Validated: 33
EndChar

StartChar: D
Encoding: 68 68 39
Width: 1174
GlyphClass: 2
Flags: W
HStem: -51 189<316.794 660.105>
VStem: 117.794 199<138 634.981> 151.794 191<852.019 1290>
LayerCount: 2
Fore
SplineSet
243.793945312 1525 m 0,0,1
 267.793945312 1525 267.793945312 1525 287.793945312 1520 c 0,2,3
 299.793945312 1519 299.793945312 1519 311.793945312 1517 c 0,4,5
 552.07421875 1476 552.07421875 1476 726.793945312 1243 c 0,6,7
 1072.67089844 910 1072.67089844 910 1049.67089844 539 c 0,8,9
 1034.67089844 268 1034.67089844 268 779.419921875 52 c 0,10,11
 698.508789062 -48 698.508789062 -48 464.913085938 -53 c 0,12,13
 327.887695312 -56 327.887695312 -56 240.793945312 -51 c 0,14,15
 225.793945312 -54 225.793945312 -54 205.793945312 -54 c 0,16,17
 114.793945312 -52 114.793945312 -52 117.793945312 51 c 2,18,-1
 151.793945312 1436 l 2,19,20
 153.793945312 1525 153.793945312 1525 243.793945312 1525 c 0,0,1
342.793945312 1290 m 1,21,-1
 316.793945312 138 l 1,22,-1
 457.083007812 135 l 1,23,24
 672.408203125 143 672.408203125 143 738.311523438 255 c 0,25,26
 838.670898438 406 838.670898438 406 847.670898438 549 c 0,27,28
 864.670898438 798 864.670898438 798 646.154296875 1081 c 0,29,30
 512.39453125 1276 512.39453125 1276 342.793945312 1290 c 1,21,-1
EndSplineSet
Validated: 33
EndChar

StartChar: E
Encoding: 69 69 40
Width: 1036
GlyphClass: 2
Flags: W
HStem: -41 208<304.635 845.24> 481 207<320 794.301> 1298 207<327.595 905.56>
VStem: 105.635 199<167 481> 138.635 181.365<828.224 1294>
LayerCount: 2
Fore
SplineSet
292.634765625 1501 m 2,0,-1
 783.40625 1505 l 2,1,2
 924 1506 924 1506 927.40625 1390 c 0,3,4
 930 1299 930 1299 789.40625 1298 c 0,5,6
 539 1296 539 1296 327.594726562 1294 c 1,7,-1
 320 688 l 1,8,-1
 673.919921875 691 l 2,9,10
 810 692 810 692 814.571289062 577 c 0,11,12
 817.9938317 485.165509319 817.9938317 485.165509319 677.759765625 484 c 2,13,-1
 316.799804688 481 l 1,14,-1
 304.634765625 167 l 1,15,-1
 721.40625 170 l 2,16,17
 861.999644036 171.012017851 861.999644036 171.012017851 865.40625 56 c 0,18,19
 867.996277693 -35.8679702268 867.996277693 -35.8679702268 727.40625 -37 c 2,20,-1
 230.634765625 -41 l 2,21,22
 219 -39 219 -39 208.634765625 -39 c 0,23,24
 201 -39 201 -39 192.634765625 -39 c 0,25,26
 103.195634768 -37.0043651538 103.195634768 -37.0043651538 105.634765625 63 c 2,27,-1
 138.634765625 1416 l 2,28,29
 141 1503 141 1503 232.634765625 1502 c 0,30,31
 251 1502 251 1502 269.634765625 1499 c 0,32,33
 276 1498 276 1498 292.634765625 1501 c 2,0,-1
EndSplineSet
Validated: 33
EndChar

StartChar: F
Encoding: 70 70 41
Width: 1015
GlyphClass: 2
Flags: W
HStem: 544 207<322 796.762> 1296 207<331.416 909.465>
VStem: 110.096 197<-27.8794 544> 144.096 177.904<843.512 1292>
LayerCount: 2
Fore
SplineSet
236.095703125 1501 m 0,0,1
 257 1501 257 1501 274.095703125 1497 c 1,2,3
 282.507279516 1498.88932973 282.507279516 1498.88932973 296.095703125 1499 c 2,4,-1
 787.227539062 1503 l 2,5,6
 928 1504 928 1504 931.227539062 1389 c 0,7,8
 934 1297 934 1297 793.227539062 1296 c 0,9,10
 543 1294 543 1294 331.416015625 1292 c 1,11,-1
 322 751 l 1,12,-1
 675.920898438 754 l 2,13,14
 813 755 813 755 816.572265625 639 c 0,15,16
 819.993688109 548.16756903 819.993688109 548.16756903 679.760742188 547 c 2,17,-1
 319.440429688 544 l 1,18,-1
 307.095703125 59 l 2,19,20
 304.499252609 -43.0094283731 304.499252609 -43.0094283731 198.095703125 -41 c 0,21,22
 107.583001522 -38.9907432105 107.583001522 -38.9907432105 110.095703125 61 c 2,23,-1
 144.095703125 1414 l 2,24,25
 146 1501 146 1501 236.095703125 1501 c 0,0,1
EndSplineSet
Validated: 33
EndChar

StartChar: G
Encoding: 71 71 42
Width: 1088
GlyphClass: 2
Flags: W
HStem: 555 212<463.369 776.442>
VStem: 49.2822 207<347.817 1000.36> 726.043 203.027<1153.69 1253.97>
LayerCount: 2
Fore
SplineSet
681.8828125 276 m 0,0,1
 754.842773438 375 754.842773438 375 776.442382812 555 c 1,2,-1
 530.842773438 551 l 2,3,4
 450.842773438 550 450.842773438 550 448.922851562 658 c 0,5,6
 447.001953125 757 447.001953125 757 541.72265625 759 c 2,7,-1
 936.0703125 767 l 2,8,9
 1031.0703125 768 1031.0703125 768 1023.0703125 668 c 0,10,11
 993.0703125 287 993.0703125 287 799.0703125 111 c 0,12,13
 663.322265625 -58 663.322265625 -58 463.642578125 -49 c 0,14,15
 310.682617188 -42 310.682617188 -42 195.282226562 150 c 0,16,17
 48.2822265625 342 48.2822265625 342 49.2822265625 650 c 0,18,19
 49.2822265625 1018 49.2822265625 1018 201.282226562 1242 c 0,20,21
 317.083007812 1464 317.083007812 1464 474.522460938 1508 c 0,22,23
 635.801757812 1550 635.801757812 1550 745.2421875 1452 c 0,24,25
 903.0703125 1352 903.0703125 1352 929.0703125 1262 c 0,26,27
 955.0703125 1171 955.0703125 1171 893.0703125 1127 c 0,28,29
 825.0703125 1079 825.0703125 1079 726.04296875 1200 c 0,30,31
 667.801757812 1297 667.801757812 1297 564.762695312 1304 c 0,32,33
 502.04296875 1308 502.04296875 1308 430.362304688 1250 c 0,34,35
 353.5625 1189 353.5625 1189 308.762695312 1057 c 0,36,37
 256.282226562 905 256.282226562 905 256.282226562 674 c 0,38,39
 256.282226562 422 256.282226562 422 313.8828125 305 c 0,40,41
 379.801757812 171 379.801757812 171 461.72265625 164 c 0,42,43
 598.682617188 152 598.682617188 152 681.8828125 276 c 0,0,1
EndSplineSet
Validated: 33
EndChar

StartChar: H
Encoding: 72 72 43
Width: 1207
GlyphClass: 2
Flags: W
HStem: 631 209<316.795 865.755> 1493 20G<182.795 277.915 929.396 1026.4>
VStem: 101.795 197<-31.7766 631> 134.795 182<840 1502.64> 851.755 197<-32.7344 631> 870.396 206<840 1495.36>
LayerCount: 2
Fore
SplineSet
228.794921875 1513 m 0,0,1
 327.03515625 1513 327.03515625 1513 325.754882812 1420 c 2,2,-1
 316.794921875 840 l 1,3,-1
 870.395507812 840 l 1,4,-1
 882.395507812 1424 l 2,5,6
 884.395507812 1510 884.395507812 1510 974.395507812 1512 c 0,7,8
 1078.39550781 1512 1078.39550781 1512 1076.39550781 1419 c 2,9,-1
 1048.75488281 55 l 2,10,11
 1047.75488281 -48 1047.75488281 -48 939.754882812 -46 c 0,12,13
 850.474609375 -44 850.474609375 -44 851.754882812 57 c 0,14,15
 858.754882812 344 858.754882812 344 865.754882812 631 c 1,16,-1
 307.114257812 631 l 1,17,-1
 298.794921875 56 l 2,18,19
 296.794921875 -47 296.794921875 -47 188.794921875 -46 c 0,20,21
 98.794921875 -44 98.794921875 -44 101.794921875 57 c 2,22,-1
 134.794921875 1425 l 2,23,24
 136.794921875 1511 136.794921875 1511 228.794921875 1513 c 0,0,1
EndSplineSet
Validated: 33
EndChar

StartChar: I
Encoding: 73 73 44
Width: 985
GlyphClass: 2
Flags: W
HStem: -42 207<60.5986 354.074 550.074 899.813> 1287 207<74.5986 383.074 567.993 913.813>
VStem: 354.074 196<165 719.655> 383.074 184.919<732.345 1287>
LayerCount: 2
Fore
SplineSet
191.879882812 1494 m 2,0,-1
 808.016601562 1494 l 2,1,2
 929.016601562 1494 929.016601562 1494 931.016601562 1386 c 0,3,4
 933.016601562 1287 933.016601562 1287 802.016601562 1287 c 2,5,-1
 567.993164062 1287 l 1,6,-1
 550.07421875 165 l 1,7,-1
 794.016601562 165 l 2,8,9
 915.016601562 165 915.016601562 165 917.016601562 57 c 0,10,11
 919.016601562 -42 919.016601562 -42 788.016601562 -42 c 2,12,-1
 168.879882812 -42 l 2,13,14
 42.8798828125 -42 42.8798828125 -42 42.8798828125 71 c 0,15,16
 42.8798828125 166 42.8798828125 166 177.879882812 165 c 2,17,-1
 354.07421875 165 l 1,18,-1
 383.07421875 1287 l 1,19,-1
 182.879882812 1287 l 2,20,21
 56.8798828125 1287 56.8798828125 1287 56.8798828125 1399 c 0,22,23
 56.8798828125 1494 56.8798828125 1494 191.879882812 1494 c 2,0,-1
EndSplineSet
Validated: 33
EndChar

StartChar: J
Encoding: 74 74 45
Width: 1340
GlyphClass: 2
Flags: W
HStem: -58 198<362.939 671.061> 1301 197<308.912 712.639 916.639 1263.9>
VStem: 64.6387 201<240.604 476.016> 712.639 204<184.447 1301>
LayerCount: 2
Fore
SplineSet
427.638671875 1498 m 2,0,-1
 1156.63867188 1498 l 2,1,2
 1277.63867188 1498 1277.63867188 1498 1279.63867188 1395 c 0,3,4
 1281.63867188 1300 1281.63867188 1300 1150.63867188 1301 c 2,5,-1
 916.638671875 1301 l 1,6,-1
 916.638671875 303 l 2,7,8
 916.638671875 -76 916.638671875 -76 544.638671875 -58 c 0,9,10
 33.638671875 -34 33.638671875 -34 64.638671875 400 c 0,11,12
 70.638671875 488 70.638671875 488 168.638671875 489 c 0,13,14
 265.638671875 488 265.638671875 488 265.638671875 395 c 0,15,16
 265.638671875 140 265.638671875 140 541.638671875 140 c 0,17,18
 712.638671875 140 712.638671875 140 712.638671875 297 c 2,19,-1
 712.638671875 1301 l 1,20,-1
 418.638671875 1301 l 2,21,22
 292.638671875 1301 292.638671875 1301 292.638671875 1408 c 0,23,24
 292.638671875 1498 292.638671875 1498 427.638671875 1498 c 2,0,-1
EndSplineSet
Validated: 33
EndChar

StartChar: K
Encoding: 75 75 46
Width: 1034
GlyphClass: 2
Flags: W
VStem: 136.354 197<-43.5938 558> 169.354 182<843 1510.54>
LayerCount: 2
Fore
SplineSet
263.354492188 1521 m 0,0,1
 361.594726562 1521 361.594726562 1521 360.314453125 1427 c 2,2,-1
 351.354492188 843 l 1,3,-1
 720.681640625 1454 l 2,4,5
 799.681640625 1539 799.681640625 1539 874.681640625 1466 c 0,6,7
 948.681640625 1393 948.681640625 1393 876.681640625 1319 c 2,8,-1
 432.634765625 699 l 1,9,-1
 902.681640625 173 l 2,10,11
 995.681640625 95 995.681640625 95 930.681640625 30 c 0,12,13
 862.681640625 -38 862.681640625 -38 766.681640625 41 c 2,14,-1
 341.168945312 558 l 1,15,-1
 333.354492188 45 l 2,16,17
 331.354492188 -59 331.354492188 -59 223.354492188 -57 c 0,18,19
 133.354492188 -55 133.354492188 -55 136.354492188 47 c 2,20,-1
 169.354492188 1432 l 2,21,22
 171.354492188 1519 171.354492188 1519 263.354492188 1521 c 0,0,1
EndSplineSet
Validated: 33
EndChar

StartChar: L
Encoding: 76 76 47
Width: 1012
GlyphClass: 2
Flags: W
HStem: -44 206<283.02 832.52> -31 208<308.471 944.573>
VStem: 84.0195 199<162 662.678> 117.02 190<844.322 1524.54>
LayerCount: 2
Fore
SplineSet
171.01953125 -44 m 0,0,1
 81.01953125 -45 81.01953125 -45 84.01953125 61 c 2,2,-1
 117.01953125 1446 l 2,3,4
 119.01953125 1533 119.01953125 1533 211.01953125 1535 c 0,5,6
 308.619140625 1535 308.619140625 1535 307.01953125 1440 c 2,7,-1
 283.01953125 162 l 1,8,-1
 857.971679688 177 l 2,9,10
 956.971679688 179 956.971679688 179 956.971679688 74 c 0,11,12
 956.971679688 -30 956.971679688 -30 860.971679688 -31 c 2,13,-1
 192.01953125 -44 l 1,14,15
 192.01953125 -44 192.01953125 -44 171.01953125 -44 c 0,0,1
EndSplineSet
Validated: 33
EndChar

StartChar: M
Encoding: 77 77 48
Width: 1358
GlyphClass: 2
Flags: W
VStem: 80.3887 198<-22.2344 160.44>
LayerCount: 2
Fore
SplineSet
638.995117188 -19 m 1,0,1
 580.115234375 -13 580.115234375 -13 555.794921875 144 c 2,2,-1
 418.834960938 1000 l 1,3,-1
 278.388671875 65 l 2,4,5
 244.388671875 -92 244.388671875 -92 138.388671875 -32 c 0,6,7
 44.388671875 21 44.388671875 21 80.388671875 177 c 2,8,-1
 334.35546875 1355 l 2,9,10
 354.834960938 1490 354.834960938 1490 413.715820312 1504 c 0,11,12
 473.875 1518 473.875 1518 490.515625 1410 c 2,13,14
 490.515625 1410 490.515625 1410 646.674804688 383 c 1,15,-1
 838.03515625 1360 l 2,16,17
 870.674804688 1526 870.674804688 1526 935.315429688 1523 c 0,18,19
 994.1953125 1521 994.1953125 1521 1016.59570312 1353 c 2,20,-1
 1265.39355469 103 l 2,21,22
 1295.39355469 -40 1295.39355469 -40 1187.39355469 -53 c 0,23,24
 1072.39355469 -67 1072.39355469 -67 1038.39355469 107 c 2,25,-1
 923.794921875 1013 l 1,26,-1
 736.275390625 156 l 2,27,28
 696.595703125 -26 696.595703125 -26 638.995117188 -19 c 1,0,1
EndSplineSet
Validated: 33
EndChar

StartChar: N
Encoding: 78 78 49
Width: 1245
GlyphClass: 2
Flags: W
VStem: 83.2344 197<-28.8725 631.332> 117.234 177.766<843.668 1045> 927.875 192<331 713.772> 955.875 195<875.12 1522.46>
LayerCount: 2
Fore
SplineSet
927.875 331 m 1,0,-1
 955.875 1446 l 2,1,2
 958 1532 958 1532 1048.875 1533 c 0,3,4
 1153.03192784 1534.00030663 1153.03192784 1534.00030663 1150.875 1440 c 2,5,-1
 1119.875 89 l 2,6,7
 1118 -14 1118 -14 1009.875 -11 c 0,8,9
 866.450216473 -8.00938765887 866.450216473 -8.00938765887 829 61 c 2,10,-1
 295 1045 l 1,11,-1
 280.234375 58 l 2,12,13
 278.708525074 -43.994590577 278.708525074 -43.994590577 171.234375 -42 c 0,14,15
 80.7253026827 -39.9939114707 80.7253026827 -39.9939114707 83.234375 60 c 2,16,-1
 117.234375 1415 l 2,17,18
 119 1500 119 1500 209.234375 1502 c 0,19,20
 271.427331076 1503.00691859 271.427331076 1503.00691859 288.234375 1473 c 2,21,-1
 927.875 331 l 1,0,-1
EndSplineSet
Validated: 33
EndChar

StartChar: O
Encoding: 79 79 50
Width: 1231
GlyphClass: 2
Flags: W
HStem: -63 206<437.544 710.189>
VStem: 73.5996 210<330.728 893.169> 938.32 201<551.182 1153.31>
LayerCount: 2
Fore
SplineSet
686.799804688 1313 m 0,0,1
 544.080078125 1328 544.080078125 1328 439.120117188 1170 c 0,2,3
 283.599609375 936 283.599609375 936 283.599609375 575 c 0,4,5
 283.599609375 393 283.599609375 393 354.639648438 278 c 0,6,7
 437.83984375 143 437.83984375 143 579.279296875 143 c 0,8,9
 716.240234375 143 716.240234375 143 794.3203125 290 c 0,10,11
 935.759765625 555 935.759765625 555 938.3203125 878 c 0,12,13
 944.3203125 1286 944.3203125 1286 686.799804688 1313 c 0,0,1
679.120117188 1512 m 0,14,15
 1140.3203125 1505 1140.3203125 1505 1139.3203125 879 c 0,16,17
 1138.3203125 475 1138.3203125 475 911.439453125 185 c 0,18,19
 779.599609375 -63 779.599609375 -63 579.279296875 -63 c 0,20,21
 370.639648438 -63 370.639648438 -63 217.599609375 160 c 0,22,23
 73.599609375 319 73.599609375 319 73.599609375 573 c 0,24,25
 73.599609375 970 73.599609375 970 316.240234375 1274 c 0,26,27
 450 1516 450 1516 679.120117188 1512 c 0,14,15
EndSplineSet
Validated: 33
EndChar

StartChar: P
Encoding: 80 80 51
Width: 967
GlyphClass: 2
Flags: W
HStem: 1327 191<277.339 461.619>
VStem: 150.339 198<-30.5938 593> 184.339 180<852.344 1322.62>
LayerCount: 2
Fore
SplineSet
277.338867188 1518 m 0,0,1
 300.338867188 1518 300.338867188 1518 318.338867188 1514 c 1,2,3
 435.37890625 1528 435.37890625 1528 502.579101562 1518 c 0,4,5
 767.14453125 1483 767.14453125 1483 864.14453125 1232 c 0,6,7
 962.14453125 977 962.14453125 977 780.14453125 748 c 0,8,9
 673.14453125 615 673.14453125 615 392.045898438 592 c 0,10,11
 372.475585938 590 372.475585938 590 356.166992188 593 c 1,12,-1
 348.338867188 58 l 2,13,14
 346.338867188 -46 346.338867188 -46 238.338867188 -44 c 0,15,16
 148.338867188 -42 148.338867188 -42 150.338867188 60 c 2,17,-1
 184.338867188 1430 l 2,18,19
 186.338867188 1518 186.338867188 1518 277.338867188 1518 c 0,0,1
372.018554688 1317 m 1,20,-1
 364.338867188 782 l 1,21,22
 590.899414062 745 590.899414062 745 647.21875 897 c 0,23,24
 730.14453125 1046 730.14453125 1046 662.14453125 1177 c 0,25,26
 606.258789062 1329 606.258789062 1329 461.619140625 1327 c 0,27,28
 423.858398438 1326 423.858398438 1326 372.018554688 1317 c 1,20,-1
EndSplineSet
Validated: 33
EndChar

StartChar: Q
Encoding: 81 81 52
Width: 1344
GlyphClass: 2
Flags: W
HStem: -35 201<459.975 704.148>
VStem: 97.2793 210<350.928 899.161> 962 201<574.28 1154.19>
LayerCount: 2
Fore
SplineSet
702.799804688 1505 m 0,0,1
 1164 1498 1164 1498 1163 886 c 0,2,3
 1162 506 1162 506 935.120117188 207 c 0,4,5
 924.240234375 186 924.240234375 186 912.080078125 168 c 1,6,-1
 1042 18 l 2,7,8
 1142 -77 1142 -77 1081 -143 c 0,9,10
 1008 -222 1008 -222 926.799804688 -129 c 2,11,-1
 807.759765625 43 l 1,12,13
 716.240234375 -35 716.240234375 -35 602.959960938 -35 c 0,14,15
 396.240234375 -35 396.240234375 -35 241.279296875 186 c 0,16,17
 97.279296875 341 97.279296875 341 97.279296875 587 c 0,18,19
 97.279296875 975 97.279296875 975 339.919921875 1272 c 0,20,21
 473.6796875 1509 473.6796875 1509 702.799804688 1505 c 0,0,1
710.479492188 1310 m 0,22,23
 567.120117188 1325 567.120117188 1325 462.799804688 1170 c 0,24,25
 307.279296875 939 307.279296875 939 307.279296875 589 c 0,26,27
 307.279296875 411 307.279296875 411 378.3203125 298 c 0,28,29
 461.520507812 166 461.520507812 166 602.959960938 166 c 0,30,31
 659.279296875 166 659.279296875 166 705.360351562 191 c 1,32,-1
 611.919921875 325 l 2,33,34
 542.799804688 424 542.799804688 424 611.919921875 504 c 0,35,36
 654.799804688 553 654.799804688 553 722 452 c 2,37,-1
 817.360351562 309 l 1,38,39
 817.360351562 309 817.360351562 309 818 310 c 0,40,41
 959.439453125 569 959.439453125 569 962 885 c 0,42,43
 968 1284 968 1284 710.479492188 1310 c 0,22,23
EndSplineSet
Validated: 33
EndChar

StartChar: R
Encoding: 82 82 53
Width: 1030
GlyphClass: 2
Flags: W
HStem: 1492 20G<164.608 221.608>
VStem: 83.2158 198<-41.5919 451> 117.216 187.68<844.235 1317>
LayerCount: 2
Fore
SplineSet
847.717773438 20 m 1,0,1
 770 -23 770 -23 667.071289062 92 c 2,2,-1
 343.958007812 452 l 1,3,4
 334 451 334 451 322.522460938 450 c 0,5,6
 303 448 303 448 286.794921875 451 c 1,7,-1
 281.215820312 47 l 2,8,9
 279.779671889 -56.9959492619 279.779671889 -56.9959492619 171.215820312 -55 c 0,10,11
 80.6938063437 -52.9932119742 80.6938063437 -52.9932119742 83.2158203125 49 c 2,12,-1
 117.215820312 1424 l 2,13,14
 119 1512 119 1512 210.215820312 1512 c 0,15,16
 233 1512 233 1512 251.215820312 1508 c 1,17,18
 343 1519 343 1519 423.295898438 1509 c 0,19,20
 648 1483 648 1483 748.717773438 1218 c 0,21,22
 879 875 879 875 661.080078125 602 c 0,23,24
 596 521 596 521 501.809570312 486 c 1,25,-1
 862.717773438 198 l 2,26,27
 990.323132818 96.1726012782 990.323132818 96.1726012782 847.717773438 20 c 1,0,1
304.895507812 1317 m 1,28,-1
 295 640 l 1,29,30
 513 604 513 604 582.360351562 761 c 0,31,32
 675 970 675 970 595.456054688 1179 c 0,33,34
 545 1311 545 1311 394.495117188 1314 c 0,35,36
 350 1315 350 1315 304.895507812 1317 c 1,28,-1
EndSplineSet
Validated: 33
EndChar

StartChar: S
Encoding: 83 83 54
Width: 1132
GlyphClass: 2
Flags: W
HStem: 551 189<423.54 745.997>
LayerCount: 2
Fore
SplineSet
238.982421875 1238 m 0,0,1
 302 1344 302 1344 428.313476562 1434 c 0,2,3
 526 1504 526 1504 627.353515625 1498 c 0,4,5
 701 1493 701 1493 793.090820312 1447 c 0,6,7
 939 1375 939 1375 942.090820312 1321 c 0,8,9
 945 1270 945 1270 888.090820312 1242 c 0,10,11
 843 1220 843 1220 763.033203125 1262 c 0,12,13
 661 1315 661 1315 604.313476562 1310 c 0,14,15
 498 1300 498 1300 440.473632812 1230 c 0,16,17
 379 1155 379 1155 373.9140625 1066 c 0,18,19
 360 781 360 781 467.091796875 757 c 0,20,21
 518 746 518 746 660.37109375 740 c 0,22,23
 807 733 807 733 892.017578125 645 c 0,24,25
 1012 520 1012 520 1008 459 c 0,26,27
 993 206 993 206 768.79296875 53 c 0,28,29
 630 -42 630 -42 507.673828125 -43 c 0,30,31
 405 -44 405 -44 302.982421875 6 c 0,32,33
 207 53 207 53 166.982421875 88 c 0,34,35
 87 159 87 159 94.982421875 219 c 0,36,37
 104 285 104 285 154.982421875 300 c 0,38,39
 216 317 216 317 296.982421875 241 c 0,40,41
 363 179 363 179 416.153320312 159 c 0,42,43
 499 129 499 129 568.473632812 148 c 0,44,45
 683 180 683 180 734.874023438 248 c 0,46,47
 813 353 813 353 798 429 c 0,48,49
 773 557 773 557 525.970703125 551 c 0,50,51
 252 545 252 545 190 825 c 0,52,53
 137 1066 137 1066 238.982421875 1238 c 0,0,1
EndSplineSet
Validated: 33
EndChar

StartChar: T
Encoding: 84 84 55
Width: 1175
GlyphClass: 2
Flags: W
HStem: 1307 193<91.1528 551.034 742.273 1169.72>
VStem: 526.233 197<-36.875 778.026> 551.034 191.239<581.974 1308>
LayerCount: 2
Fore
SplineSet
209.879882812 1500 m 2,0,-1
 1052.81640625 1500 l 2,1,2
 1182.81640625 1500 1182.81640625 1500 1184.81640625 1402 c 0,3,4
 1186.81640625 1310 1186.81640625 1310 1052.81640625 1310 c 2,5,-1
 742.2734375 1309 l 1,6,-1
 723.233398438 50 l 2,7,8
 721.233398438 -52 721.233398438 -52 614.233398438 -50 c 0,9,10
 524.953125 -48 524.953125 -48 526.233398438 52 c 2,11,-1
 551.034179688 1308 l 1,12,13
 395.033203125 1307 395.033203125 1307 200.879882812 1307 c 0,14,15
 74.8798828125 1307 74.8798828125 1307 74.8798828125 1412 c 0,16,17
 74.8798828125 1500 74.8798828125 1500 209.879882812 1500 c 2,0,-1
EndSplineSet
Validated: 33
EndChar

StartChar: U
Encoding: 85 85 56
Width: 1168
GlyphClass: 2
Flags: W
HStem: -40 179<443.726 675.067>
VStem: 102.428 201<356.914 1470.02> 821.827 204<382.426 1285.9> 833.827 207<769.099 1463.54>
LayerCount: 2
Fore
SplineSet
-644.572265625 1999 m 1024,0,-1
935.827148438 1485 m 0,1,2
 1045.82714844 1483 1045.82714844 1483 1040.82714844 1311 c 2,3,-1
 1025.82714844 744 l 2,4,5
 1004.82714844 -41 1004.82714844 -41 563.267578125 -40 c 0,6,7
 97.427734375 -39 97.427734375 -39 102.427734375 762 c 2,8,-1
 105.427734375 1299 l 2,9,10
 106.427734375 1498 106.427734375 1498 207.427734375 1498 c 0,11,12
 305.987304688 1497 305.987304688 1497 305.346679688 1324 c 2,13,-1
 303.427734375 777 l 2,14,15
 299.427734375 132 299.427734375 132 566.467773438 139 c 0,16,17
 813.506835938 145 813.506835938 145 821.827148438 765 c 2,18,-1
 833.827148438 1332 l 2,19,20
 836.827148438 1487 836.827148438 1487 935.827148438 1485 c 0,1,2
EndSplineSet
Validated: 33
EndChar

StartChar: V
Encoding: 86 86 57
Width: 1075
GlyphClass: 2
Flags: W
HStem: 1492 20G<118.78 229.28 783.187 894.187>
VStem: 727.187 168<1369.41 1501.32>
LayerCount: 2
Fore
SplineSet
488.473632812 -41 m 0,0,1
 438.553710938 -12 438.553710938 -12 409.11328125 143 c 2,2,-1
 118.280273438 1260 l 2,3,4
 44.2802734375 1512 44.2802734375 1512 193.280273438 1512 c 0,5,6
 265.280273438 1512 265.280273438 1512 286.280273438 1442 c 2,7,-1
 506.393554688 324 l 1,8,-1
 727.186523438 1442 l 2,9,10
 747.186523438 1512 747.186523438 1512 819.186523438 1512 c 0,11,12
 969.186523438 1512 969.186523438 1512 895.186523438 1260 c 2,13,-1
 604.313476562 143 l 2,14,15
 574.233398438 -16 574.233398438 -16 524.313476562 -41 c 0,16,17
 506.393554688 -50 506.393554688 -50 488.473632812 -41 c 0,0,1
EndSplineSet
Validated: 33
EndChar

StartChar: W
Encoding: 87 87 58
Width: 1583
GlyphClass: 2
Flags: W
VStem: 1245.51 168<1372.26 1505.63>
LayerCount: 2
Fore
SplineSet
1007.51367188 -55 m 0,0,1
 956.953125 -24 956.953125 -24 928.153320312 131 c 2,2,-1
 764.313476562 1010 l 1,3,-1
 600.473632812 132 l 2,4,5
 569.75390625 -32 569.75390625 -32 520.473632812 -54 c 0,6,7
 502.553710938 -62 502.553710938 -62 484.6328125 -54 c 0,8,9
 435.353515625 -31 435.353515625 -31 405.2734375 132 c 2,10,-1
 114.440429688 1263 l 2,11,12
 40.4404296875 1518 40.4404296875 1518 189.440429688 1519 c 0,13,14
 261.440429688 1519 261.440429688 1519 282.440429688 1447 c 2,15,-1
 502.553710938 315 l 1,16,-1
 704.153320312 1447 l 2,17,18
 716.953125 1518 716.953125 1518 763.033203125 1519 c 0,19,20
 811.673828125 1519 811.673828125 1519 824.473632812 1446 c 2,21,-1
 1025.43359375 314 l 1,22,-1
 1245.5078125 1446 l 2,23,24
 1267.5078125 1517 1267.5078125 1517 1339.5078125 1518 c 0,25,26
 1487.5078125 1518 1487.5078125 1518 1413.5078125 1262 c 2,27,-1
 1122.71386719 131 l 2,28,29
 1091.99316406 -33 1091.99316406 -33 1043.35351562 -55 c 0,30,31
 1025.43359375 -63 1025.43359375 -63 1007.51367188 -55 c 0,0,1
EndSplineSet
Validated: 33
EndChar

StartChar: X
Encoding: 88 88 59
Width: 1155
GlyphClass: 2
Flags: W
LayerCount: 2
Fore
SplineSet
156.719726562 1498 m 0,0,1
 237.719726562 1545 237.719726562 1545 329.75390625 1408 c 2,2,-1
 564.6328125 927 l 1,3,-1
 800.153320312 1408 l 2,4,5
 892.1875 1545 892.1875 1545 973.1875 1498 c 0,6,7
 1078.1875 1437 1078.1875 1437 1006.1875 1344 c 2,8,-1
 649.11328125 755 l 1,9,-1
 1042.1875 113 l 2,10,11
 1101.1875 36 1101.1875 36 1030.1875 -18 c 0,12,13
 940.1875 -86 940.1875 -86 880.1875 -10 c 2,14,-1
 564.6328125 586 l 1,15,-1
 249.719726562 -10 l 2,16,17
 189.719726562 -87 189.719726562 -87 99.7197265625 -18 c 0,18,19
 28.7197265625 36 28.7197265625 36 87.7197265625 113 c 2,20,-1
 480.79296875 755 l 1,21,-1
 123.719726562 1344 l 2,22,23
 51.7197265625 1437 51.7197265625 1437 156.719726562 1498 c 0,0,1
EndSplineSet
Validated: 33
EndChar

StartChar: Y
Encoding: 89 89 60
Width: 1017
GlyphClass: 2
Flags: W
VStem: 355.993 113.28<-36.3789 47>
LayerCount: 2
Fore
SplineSet
904.915039062 1496 m 0,0,1
 990.915039062 1450 990.915039062 1450 952.915039062 1370 c 2,2,-1
 469.2734375 47 l 2,3,4
 428.953125 -87 428.953125 -87 357.9140625 -30 c 0,5,6
 306.07421875 9 306.07421875 9 355.993164062 170 c 2,7,-1
 457.75390625 500 l 1,8,-1
 36.193359375 1358 l 2,9,10
 -12.806640625 1437 -12.806640625 1437 66.193359375 1491 c 0,11,12
 152.193359375 1550 152.193359375 1550 216.193359375 1446 c 2,13,-1
 523.673828125 711 l 1,14,-1
 766.915039062 1441 l 2,15,16
 816.915039062 1544 816.915039062 1544 904.915039062 1496 c 0,0,1
EndSplineSet
Validated: 33
EndChar

StartChar: Z
Encoding: 90 90 61
Width: 1114
GlyphClass: 2
Flags: W
HStem: -46 215<345.754 1042.5> 1285 217<78.0244 771.354>
LayerCount: 2
Fore
SplineSet
992.423828125 1242 m 2,0,-1
 345.75390625 169 l 1,1,-1
 938.423828125 166 l 2,2,3
 1062.42382812 166 1062.42382812 166 1061.42382812 53 c 0,4,5
 1061.42382812 -53 1061.42382812 -53 937.423828125 -52 c 2,6,-1
 180.879882812 -46 l 2,7,8
 58.8798828125 -45 58.8798828125 -45 58.8798828125 59 c 0,9,10
 58.8798828125 116 58.8798828125 116 99.8798828125 165 c 2,11,-1
 771.353515625 1285 l 1,12,-1
 180.879882812 1290 l 2,13,14
 58.8798828125 1291 58.8798828125 1291 58.8798828125 1395 c 0,15,16
 58.8798828125 1506 58.8798828125 1506 174.879882812 1506 c 2,17,-1
 938.423828125 1502 l 2,18,19
 1062.42382812 1502 1062.42382812 1502 1061.42382812 1389 c 0,20,21
 1061.42382812 1323 1061.42382812 1323 992.423828125 1242 c 2,0,-1
EndSplineSet
Validated: 33
EndChar

StartChar: bracketleft
Encoding: 91 91 62
Width: 738
GlyphClass: 2
Flags: W
HStem: -415 193<293.004 627.251> 1323 193<314.004 589.268>
VStem: 112.004 181<-225 831.768> 124.004 190<266.232 1323>
LayerCount: 2
Fore
SplineSet
515.00390625 1518 m 2,0,1
 601.00390625 1519 601.00390625 1519 601.00390625 1419 c 0,2,3
 601.00390625 1324 601.00390625 1324 492.00390625 1324 c 2,4,-1
 314.00390625 1323 l 1,5,-1
 293.00390625 -225 l 1,6,7
 420.00390625 -224 420.00390625 -224 547.00390625 -222 c 0,8,9
 638.00390625 -221 638.00390625 -221 638.00390625 -322 c 0,10,11
 638.00390625 -415 638.00390625 -415 529.00390625 -415 c 0,12,13
 521.00390625 -415 521.00390625 -415 211.00390625 -414 c 0,14,15
 111.00390625 -413 111.00390625 -413 112.00390625 -287 c 2,16,-1
 124.00390625 1393 l 2,17,18
 125.00390625 1515 125.00390625 1515 223.00390625 1516 c 2,19,-1
 515.00390625 1518 l 2,0,1
EndSplineSet
Validated: 33
EndChar

StartChar: backslash
Encoding: 92 92 63
Width: 937
GlyphClass: 2
Flags: W
LayerCount: 2
Fore
SplineSet
129.952148438 1609 m 0,0,1
 204.952148438 1647 204.952148438 1647 235.952148438 1582 c 2,2,-1
 818.182617188 40 l 2,3,4
 857.182617188 -42 857.182617188 -42 775.182617188 -78 c 0,5,6
 692.182617188 -115 692.182617188 -115 655.182617188 -32 c 2,7,-1
 90.9521484375 1509 l 2,8,9
 60.9521484375 1574 60.9521484375 1574 129.952148438 1609 c 0,0,1
EndSplineSet
Validated: 33
EndChar

StartChar: bracketright
Encoding: 93 93 64
Width: 739
GlyphClass: 2
Flags: W
HStem: -417 195<124.673 458.92> 1324 194<162.027 437.92>
VStem: 437.92 190<266.232 1323> 458.92 181<-225 831.768>
LayerCount: 2
Fore
SplineSet
236.919921875 1518 m 2,0,-1
 528.919921875 1516 l 2,1,2
 626.919921875 1516 626.919921875 1516 627.919921875 1393 c 2,3,-1
 639.919921875 -287 l 2,4,5
 640.919921875 -412 640.919921875 -412 540.919921875 -414 c 0,6,7
 224.919921875 -419 224.919921875 -419 222.919921875 -417 c 0,8,9
 113.919921875 -418 113.919921875 -418 113.919921875 -322 c 0,10,11
 113.919921875 -221 113.919921875 -221 204.919921875 -222 c 0,12,13
 331.919921875 -223 331.919921875 -223 458.919921875 -225 c 1,14,-1
 437.919921875 1323 l 1,15,-1
 259.919921875 1324 l 2,16,17
 150.919921875 1324 150.919921875 1324 150.919921875 1419 c 0,18,19
 150.919921875 1519 150.919921875 1519 236.919921875 1518 c 2,0,-1
EndSplineSet
Validated: 33
EndChar

StartChar: asciicircum
Encoding: 94 94 65
Width: 1004
GlyphClass: 2
Flags: W
LayerCount: 2
Fore
SplineSet
480.153320312 1647 m 0,0,1
 507.673828125 1648 507.673828125 1648 536.473632812 1599 c 2,2,-1
 788.166992188 1293 l 2,3,4
 858.166992188 1216 858.166992188 1216 808.166992188 1164 c 0,5,6
 732.166992188 1084 732.166992188 1084 662.166992188 1161 c 2,7,-1
 480.153320312 1423 l 1,8,-1
 299.668945312 1161 l 2,9,10
 229.668945312 1084 229.668945312 1084 151.668945312 1164 c 0,11,12
 103.668945312 1216 103.668945312 1216 173.668945312 1293 c 2,13,-1
 424.473632812 1599 l 2,14,15
 452.6328125 1648 452.6328125 1648 480.153320312 1647 c 0,0,1
EndSplineSet
Validated: 33
EndChar

StartChar: underscore
Encoding: 95 95 66
Width: 987
GlyphClass: 2
Flags: W
HStem: -345 185<-22.4004 1023.67>
LayerCount: 2
Fore
SplineSet
1023.66699219 -160 m 1,0,-1
 1023.66699219 -345 l 1,1,-1
 -22.400390625 -345 l 1,2,-1
 -22.400390625 -160 l 1,3,-1
 1023.66699219 -160 l 1,0,-1
EndSplineSet
Validated: 1
EndChar

StartChar: grave
Encoding: 96 96 67
Width: 929
GlyphClass: 2
Flags: W
LayerCount: 2
Fore
SplineSet
134.569335938 1636 m 0,0,1
 208.569335938 1696 208.569335938 1696 265.569335938 1625 c 2,2,-1
 473.569335938 1365 l 2,3,4
 554.569335938 1263 554.569335938 1263 501.569335938 1210 c 0,5,6
 445.569335938 1154 445.569335938 1154 357.569335938 1250 c 2,7,-1
 120.569335938 1510 l 2,8,9
 59.5693359375 1577 59.5693359375 1577 134.569335938 1636 c 0,0,1
EndSplineSet
Validated: 33
EndChar

StartChar: a
Encoding: 97 97 68
Width: 836
GlyphClass: 2
Flags: W
HStem: -60.5 177.097<174.923 456.582>
VStem: -26.9141 165.084<152.021 423.996>
LayerCount: 2
Fore
SplineSet
572.739257812 44.5654296875 m 5,0,1
 414.477539062 -60 414.477539062 -60 358.977539062 -60.5 c 4,2,3
 188.477539062 -62 188.477539062 -62 101.793945312 -12.01953125 c 4,4,5
 15.4775390625 38 15.4775390625 38 -12.3271484375 172.240234375 c 4,6,7
 -28.5224609375 252 -28.5224609375 252 -26.9140625 317.170898438 c 5,8,9
 -7.5224609375 452 -7.5224609375 452 36.4775390625 512 c 4,10,11
 133.477539062 644 133.477539062 644 324.494140625 694.541015625 c 4,12,13
 416.477539062 719 416.477539062 719 486.255859375 685.844726562 c 5,14,15
 490.477539062 739 490.477539062 739 494.477539062 793 c 4,16,17
 454.477539062 855 l 4,18,19
 362.477539062 871 l 4,20,21
 341.477539062 871 341.477539062 871 238.477539062 831 c 4,22,23
 99.4775390625 777 99.4775390625 777 85.2529296875 821.669921875 c 4,24,25
 50.4775390625 929 50.4775390625 929 120.477539062 965 c 4,26,27
 205.477539062 1008 205.477539062 1008 304.477539062 1029 c 4,28,29
 539.477539062 1080 539.477539062 1080 606.477539062 979 c 4,30,31
 654.477539062 899 l 4,32,-1
 676.477539062 775 l 4,33,34
 666.477539062 621 l 4,35,36
 655.477539062 530 655.477539062 530 689.944335938 359.036132812 c 4,37,38
 715.477539062 233 715.477539062 233 741.739257812 106.565429688 c 5,39,40
 784.477539062 29 784.477539062 29 776.477539062 -14.5 c 132,-1,41
 768.477539062 -58 768.477539062 -58 698.846679688 -64.533203125 c 5,42,43
 592.477539062 -81 592.477539062 -81 572.739257812 44.5654296875 c 5,0,1
343.147460938 116.596679688 m 4,44,45
 415.477539062 114 415.477539062 114 475.6953125 178.7734375 c 4,46,47
 482.477539062 186 482.477539062 186 496.096679688 203.661132812 c 4,48,49
 513.477539062 225 513.477539062 225 513.739257812 225.565429688 c 4,50,51
 514.477539062 261 514.477539062 261 479.861328125 468.260742188 c 5,52,53
 486.477539062 493 486.477539062 493 441.477539062 515 c 4,54,55
 431.477539062 520 431.477539062 520 427.380859375 522.048828125 c 4,56,57
 349.477539062 549 349.477539062 549 260.508789062 502.458984375 c 4,58,59
 222.784179688 482.581054688 222.784179688 482.581054688 202.477539062 455 c 4,60,61
 135.477539062 364 135.477539062 364 138.169921875 283.102539062 c 4,62,63
 138.477539062 276 138.477539062 276 140.26953125 262.51953125 c 4,64,65
 141.477539062 249 141.477539062 249 142.28515625 244.125 c 4,66,67
 153.477539062 157 153.477539062 157 211.51171875 134.021484375 c 4,68,69
 238.477539062 123 238.477539062 123 285.758789062 120.0859375 c 4,70,71
 329.477539062 117 329.477539062 117 343.147460938 116.596679688 c 4,44,45
EndSplineSet
Validated: 33
EndChar

StartChar: b
Encoding: 98 98 69
Width: 982
GlyphClass: 2
Flags: W
HStem: 1590 20G<169.336 261.296>
VStem: 88.3359 202<223 677.81> 122.336 177.601<960 1600.33>
LayerCount: 2
Fore
SplineSet
214.3359375 1610 m 0,0,1
 308.255859375 1610 308.255859375 1610 306.975585938 1511 c 2,2,-1
 299.936523438 960 l 1,3,4
 316.576171875 977 316.576171875 977 335.776367188 994 c 0,5,6
 393.375976562 1045 393.375976562 1045 470.17578125 1045 c 0,7,8
 608.416015625 1045 608.416015625 1045 740.806640625 874 c 0,9,10
 893.806640625 696 893.806640625 696 878.806640625 427 c 0,11,12
 867.806640625 225 867.806640625 225 722.806640625 82 c 0,13,14
 603.936523438 -49 603.936523438 -49 495.135742188 -50 c 0,15,16
 383.776367188 -51 383.776367188 -51 284.3359375 50 c 1,17,18
 276.3359375 -45 276.3359375 -45 176.3359375 -43 c 0,19,20
 86.3359375 -41 86.3359375 -41 88.3359375 66 c 2,21,-1
 122.3359375 1517 l 2,22,23
 124.3359375 1610 124.3359375 1610 214.3359375 1610 c 0,0,1
495.135742188 145 m 0,24,25
 581.536132812 163 581.536132812 163 623.776367188 250 c 0,26,27
 697.806640625 358 697.806640625 358 700.806640625 475 c 0,28,29
 704.806640625 647 704.806640625 647 621.85546875 745 c 0,30,31
 575.135742188 825 575.135742188 825 507.295898438 851 c 0,32,33
 402.3359375 890 402.3359375 890 296.095703125 729 c 1,34,-1
 290.3359375 271 l 1,35,36
 413.215820312 128 413.215820312 128 495.135742188 145 c 0,24,25
EndSplineSet
Validated: 33
EndChar

StartChar: c
Encoding: 99 99 70
Width: 838
GlyphClass: 2
Flags: W
VStem: 64.342 178<256.305 719.617>
LayerCount: 2
Fore
SplineSet
619.973632812 211 m 0,0,1
 707.973632812 270 707.973632812 270 763.973632812 176 c 0,2,3
 796.973632812 120 796.973632812 120 711.973632812 45 c 0,4,5
 601.973632812 -49 601.973632812 -49 424.102539062 -48 c 0,6,7
 305.0625 -47 305.0625 -47 217.341796875 72 c 0,8,9
 64.341796875 220 64.341796875 220 64.341796875 443 c 0,10,11
 64.341796875 689 64.341796875 689 173.341796875 846 c 0,12,13
 282.662109375 1037 282.662109375 1037 413.221679688 1052 c 0,14,15
 489.381835938 1061 489.381835938 1061 565.973632812 1029 c 0,16,17
 686.973632812 988 686.973632812 988 726.973632812 926 c 0,18,19
 787.973632812 830 787.973632812 830 719.973632812 781 c 0,20,21
 672.973632812 747 672.973632812 747 575.973632812 819 c 0,22,23
 483.622070312 906 483.622070312 906 388.90234375 859 c 0,24,25
 335.782226562 833 335.782226562 833 292.90234375 737 c 0,26,27
 244.262695312 627 244.262695312 627 242.341796875 485 c 0,28,29
 239.341796875 351 239.341796875 351 292.262695312 240 c 0,30,31
 339.622070312 141 339.622070312 141 424.102539062 136 c 0,32,33
 511.141601562 131 511.141601562 131 619.973632812 211 c 0,0,1
EndSplineSet
EndChar

StartChar: d
Encoding: 100 100 71
Width: 945
GlyphClass: 2
Flags: W
HStem: 1590 20G<704.467 801.467>
VStem: 63.5469 178<269.502 712.909> 627.467 193<221.984 733.167> 643.467 208<940 1591.05>
LayerCount: 2
Fore
SplineSet
749.466796875 1610 m 0,0,1
 853.466796875 1610 853.466796875 1610 851.466796875 1511 c 2,2,-1
 820.466796875 64 l 2,3,4
 819.466796875 -45 819.466796875 -45 711.466796875 -43 c 0,5,6
 631.466796875 -41 631.466796875 -41 625.546875 43 c 1,7,8
 530.827148438 -51 530.827148438 -51 423.306640625 -50 c 0,9,10
 312.586914062 -49 312.586914062 -49 219.546875 82 c 0,11,12
 71.546875 230 71.546875 230 63.546875 427 c 0,13,14
 54.546875 693 54.546875 693 201.546875 874 c 0,15,16
 304.907226562 1045 304.907226562 1045 448.267578125 1045 c 0,17,18
 525.067382812 1045 525.067382812 1045 582.666992188 994 c 0,19,20
 612.747070312 967 612.747070312 967 643.466796875 940 c 1,21,-1
 657.466796875 1517 l 2,22,23
 659.466796875 1608 659.466796875 1608 749.466796875 1610 c 0,0,1
627.466796875 269 m 1,24,25
 638.466796875 477 638.466796875 477 638.466796875 710 c 1,26,27
 521.227539062 893 521.227539062 893 411.146484375 851 c 0,28,29
 330.506835938 820 330.506835938 820 294.666992188 751 c 0,30,31
 244.107421875 652 244.107421875 652 241.546875 475 c 0,32,33
 239.546875 361 239.546875 361 294.666992188 250 c 0,34,35
 338.186523438 160 338.186523438 160 423.306640625 145 c 0,36,37
 512.907226562 129 512.907226562 129 627.466796875 269 c 1,24,25
EndSplineSet
Validated: 33
EndChar

StartChar: e
Encoding: 101 101 72
Width: 833
GlyphClass: 2
Flags: W
HStem: -43 180<283.372 547.574>
VStem: 11.1582 184.08<231.296 361>
LayerCount: 2
Fore
SplineSet
195.23828125 361 m 1,0,1
 198.23828125 282 198.23828125 282 233.478515625 235 c 0,2,3
 305.23828125 136 305.23828125 136 394.758789062 137 c 0,4,5
 522.23828125 139 522.23828125 139 588.749023438 217 c 0,6,7
 652.23828125 291 652.23828125 291 698.749023438 301 c 0,8,9
 747.23828125 311 747.23828125 311 766.749023438 271 c 0,10,11
 814.23828125 178 814.23828125 178 722.749023438 97 c 0,12,13
 561.23828125 -47 561.23828125 -47 387.078125 -43 c 0,14,15
 293.23828125 -41 293.23828125 -41 173.318359375 77 c 0,16,17
 11.23828125 237 11.23828125 237 11.158203125 394 c 0,18,19
 11.23828125 679 11.23828125 679 110.198242188 840 c 0,20,21
 235.23828125 1043 235.23828125 1043 362.758789062 1055 c 0,22,23
 503.23828125 1068 503.23828125 1068 631.73828125 916 c 0,24,25
 761.23828125 763 761.23828125 763 756.708984375 589 c 0,26,27
 753.23828125 472 753.23828125 472 645.708984375 451 c 2,28,-1
 195.23828125 361 l 1,0,1
211 561 m 1,29,-1
 596.470703125 626 l 1,30,31
 581 744 581 744 500.358398438 820 c 0,32,33
 424 892 424 892 380.677734375 875 c 0,34,35
 292 841 292 841 247 744 c 0,36,37
 211 668 211 668 211 561 c 1,29,-1
EndSplineSet
Validated: 33
EndChar

StartChar: f
Encoding: 102 102 73
Width: 940
GlyphClass: 2
Flags: W
HStem: 847 198<68.4016 316.313 513.874 812.774> 1409 190<573.735 838.812>
VStem: 307.993 193.32<-38.8906 847 1045 1315.37>
LayerCount: 2
Fore
SplineSet
55.04296875 946 m 128,-1,1
 56.04296875 1045 56.04296875 1045 174.04296875 1045 c 2,2,-1
 321.313476562 1045 l 1,3,4
 326.313476562 1341 326.313476562 1341 424.313476562 1481 c 0,5,6
 501.313476562 1592 501.313476562 1592 661.529296875 1599 c 0,7,8
 874.529296875 1606 874.529296875 1606 854.529296875 1494 c 0,9,10
 837.529296875 1398 837.529296875 1398 717.529296875 1409 c 0,11,12
 559.953125 1427 559.953125 1427 530.513671875 1265 c 0,13,14
 513.233398438 1171 513.233398438 1171 513.874023438 1045 c 1,15,-1
 688.529296875 1045 l 2,16,17
 821.529296875 1045 821.529296875 1045 827.529296875 955 c 0,18,19
 834.529296875 847 834.529296875 847 701.529296875 847 c 2,20,-1
 511.313476562 847 l 1,21,-1
 501.313476562 54 l 2,22,23
 500.313476562 -55 500.313476562 -55 391.313476562 -53 c 0,24,25
 306.713867188 -51 306.713867188 -51 307.993164062 56 c 2,26,-1
 316.313476562 847 l 1,27,-1
 162.04296875 847 l 2,28,0
 54.04296875 847 54.04296875 847 55.04296875 946 c 128,-1,1
EndSplineSet
Validated: 33
EndChar

StartChar: g
Encoding: 103 103 74
Width: 849
GlyphClass: 2
Flags: W
HStem: -522 176<7.01493 497.504>
VStem: 580.999 202<409.418 827.393>
LayerCount: 2
Fore
SplineSet
568.999023438 600 m 0,0,1
 584.999023438 693 584.999023438 693 580.999023438 721 c 0,2,3
 575.999023438 848 575.999023438 848 465.83203125 849 c 0,4,5
 383.272460938 849 383.272460938 849 314.151367188 782 c 0,6,7
 232.94140625 707 232.94140625 707 208.94140625 473 c 0,8,9
 180.94140625 207 180.94140625 207 330.791992188 190 c 0,10,11
 470.311523438 172 470.311523438 172 523.432617188 356 c 0,12,13
 535.591796875 390 535.591796875 390 568.999023438 600 c 0,0,1
702.999023438 933 m 0,14,15
 785.689453125 916.935546875 785.689453125 916.935546875 782.999023438 797 c 2,16,-1
 764.358398438 -34 l 2,17,18
 751.358398438 -611 751.358398438 -611 278.952148438 -565 c 0,19,20
 112.358398438 -549 112.358398438 -549 54.94140625 -522 c 0,21,22
 -15.6416015625 -488 -15.6416015625 -488 0.94140625 -410 c 0,23,24
 20.3583984375 -324 20.3583984375 -324 113.94140625 -346 c 0,25,26
 286.358398438 -388 286.358398438 -388 446.358398438 -349 c 0,27,28
 532.23828125 -328.029296875 532.23828125 -328.029296875 554.358398438 -46 c 2,29,-1
 566.358398438 107 l 1,30,31
 511.358398438 -31 511.358398438 -31 310.311523438 -8 c 0,32,33
 -93.6416015625 39 -93.6416015625 39 29.94140625 620 c 0,34,35
 113.358398438 1012 113.358398438 1012 415.272460938 1053 c 0,36,37
 619.358398438 1081 619.358398438 1081 679.999023438 935 c 1,38,39
 690.358398438 935 690.358398438 935 702.999023438 933 c 0,14,15
EndSplineSet
Validated: 33
EndChar

StartChar: h
Encoding: 104 104 75
Width: 948
GlyphClass: 2
Flags: W
HStem: 1591 20G<175.096 266.976>
VStem: 94.0957 211.08<-17.25 696.35> 127.096 178.08<919 1600> 623.896 202<-39.5837 778.125>
LayerCount: 2
Fore
SplineSet
221.095703125 1611 m 0,0,1
 312.85546875 1611 312.85546875 1611 311.576171875 1511 c 2,2,-1
 305.17578125 919 l 1,3,4
 385.17578125 1035 385.17578125 1035 518.295898438 1035 c 0,5,6
 833.895507812 1034 833.895507812 1034 829.895507812 579 c 2,7,-1
 825.895507812 72 l 2,8,9
 824.895507812 -49 824.895507812 -49 729.895507812 -57 c 0,10,11
 623.255859375 -66 623.255859375 -66 623.895507812 54 c 2,12,-1
 626.895507812 533 l 2,13,14
 628.895507812 799 628.895507812 799 523.416015625 812 c 0,15,16
 405.015625 828 405.015625 828 305.17578125 641 c 1,17,-1
 291.095703125 64 l 2,18,19
 287.095703125 -45 287.095703125 -45 181.095703125 -43 c 0,20,21
 92.095703125 -41 92.095703125 -41 94.095703125 66 c 2,22,-1
 127.095703125 1517 l 2,23,24
 129.095703125 1609 129.095703125 1609 221.095703125 1611 c 0,0,1
EndSplineSet
Validated: 33
EndChar

StartChar: k
Encoding: 107 107 78
Width: 921
GlyphClass: 2
Flags: W
HStem: 1590 20G<186.635 279.595>
VStem: 105.635 203<-24.9319 360 626 696.35> 138.635 186.64<886.65 1599.11>
LayerCount: 2
Fore
SplineSet
232.634765625 1610 m 0,0,1
 326.5546875 1610 326.5546875 1610 325.274414062 1511 c 2,2,-1
 312.474609375 626 l 1,3,-1
 605.741210938 1046 l 2,4,5
 713.741210938 1144 713.741210938 1144 777.741210938 1072 c 0,6,7
 845.741210938 994 845.741210938 994 761.741210938 920 c 2,8,-1
 512.154296875 647 l 1,9,-1
 803.741210938 172 l 2,10,11
 885.741210938 59 885.741210938 59 825.741210938 0 c 0,12,13
 731.741210938 -93 731.741210938 -93 651.741210938 23 c 2,14,-1
 417.434570312 513 l 1,15,-1
 308.634765625 360 l 1,16,-1
 302.634765625 64 l 2,17,18
 300.634765625 -45 300.634765625 -45 192.634765625 -43 c 0,19,20
 102.634765625 -41 102.634765625 -41 105.634765625 66 c 2,21,-1
 138.634765625 1517 l 2,22,23
 140.634765625 1608 140.634765625 1608 232.634765625 1610 c 0,0,1
EndSplineSet
Validated: 33
EndChar

StartChar: l
Encoding: 108 108 79
Width: 438
GlyphClass: 2
Flags: W
HStem: 1590 20G<135.331 232.331>
VStem: 54.3311 197<-28.8906 677.81> 88.3311 194<905.19 1598.3>
LayerCount: 2
Fore
SplineSet
180.331054688 1610 m 0,0,1
 284.331054688 1610 284.331054688 1610 282.331054688 1511 c 2,2,-1
 251.331054688 64 l 2,3,4
 250.331054688 -45 250.331054688 -45 142.331054688 -43 c 0,5,6
 52.3310546875 -41 52.3310546875 -41 54.3310546875 66 c 2,7,-1
 88.3310546875 1517 l 2,8,9
 90.3310546875 1608 90.3310546875 1608 180.331054688 1610 c 0,0,1
EndSplineSet
Validated: 33
EndChar

StartChar: m
Encoding: 109 109 80
Width: 1270
GlyphClass: 2
Flags: W
HStem: 827 208<335.497 486.521 776.843 934.984>
VStem: 73.6348 194<-20.8906 625> 96.6348 181.88<423.197 766.039 954 1083.99> 512.114 196<-14.6697 747.4> 972.435 202<-29.1653 799.025>
LayerCount: 2
Fore
SplineSet
190.634765625 1094 m 4,0,1
 284.915039062 1094 284.915039062 1094 283.634765625 995 c 6,2,-1
 282.995117188 954 l 5,3,4
 339.954101562 1034 339.954101562 1034 421.875 1035 c 4,5,6
 579.114257812 1037 579.114257812 1037 652.114257812 888 c 5,7,8
 737.5546875 1036 737.5546875 1036 868.754882812 1035 c 4,9,10
 1189.43457031 1034 1189.43457031 1034 1182.43457031 579 c 6,11,-1
 1174.43457031 82 l 6,12,13
 1172.43457031 -39 1172.43457031 -39 1078.43457031 -47 c 4,14,15
 971.154296875 -57 971.154296875 -57 972.434570312 64 c 6,16,-1
 978.434570312 525 l 6,17,18
 982.434570312 821 982.434570312 821 877.71484375 825 c 4,19,20
 760.594726562 830 760.594726562 830 718.354492188 658 c 4,21,22
 716.434570312 655 716.434570312 655 715.794921875 597 c 6,23,-1
 708.114257812 96 l 6,24,25
 705.114257812 -25 705.114257812 -25 612.114257812 -33 c 4,26,27
 510.1953125 -42 510.1953125 -42 512.114257812 78 c 6,28,-1
 522.114257812 537 l 6,29,30
 528.114257812 822 528.114257812 822 423.794921875 827 c 4,31,32
 313.075195312 833 313.075195312 833 278.514648438 625 c 5,33,-1
 267.634765625 72 l 6,34,35
 264.634765625 -37 264.634765625 -37 160.634765625 -35 c 4,36,37
 70.634765625 -33 70.634765625 -33 73.634765625 74 c 6,38,-1
 96.634765625 1001 l 6,39,40
 98.634765625 1094 98.634765625 1094 190.634765625 1094 c 4,0,1
EndSplineSet
Validated: 33
EndChar

StartChar: n
Encoding: 110 110 81
Width: 891
GlyphClass: 2
Flags: W
VStem: 102.221 197<-23.8906 650.673> 125.221 184.241<421.327 735.476 936 1083.99> 593.622 202<-32.1653 799.025>
LayerCount: 2
Fore
SplineSet
219.220703125 1094 m 0,0,1
 315.220703125 1094 315.220703125 1094 313.301757812 995 c 0,2,3
 312.661132812 966 312.661132812 966 312.020507812 936 c 1,4,5
 381.78125 1035 381.78125 1035 490.581054688 1035 c 0,6,7
 810.62109375 1034 810.62109375 1034 803.62109375 579 c 2,8,-1
 795.62109375 79 l 2,9,10
 793.62109375 -42 793.62109375 -42 699.62109375 -50 c 0,11,12
 591.701171875 -60 591.701171875 -60 593.62109375 61 c 2,13,-1
 605.62109375 535 l 2,14,15
 612.62109375 811 612.62109375 811 500.180664062 823 c 0,16,17
 411.220703125 833 411.220703125 833 309.461914062 674 c 1,18,-1
 299.220703125 69 l 2,19,20
 296.220703125 -40 296.220703125 -40 189.220703125 -38 c 0,21,22
 99.220703125 -36 99.220703125 -36 102.220703125 71 c 2,23,-1
 125.220703125 1001 l 2,24,25
 127.220703125 1094 127.220703125 1094 219.220703125 1094 c 0,0,1
EndSplineSet
Validated: 33
EndChar

StartChar: o
Encoding: 111 111 82
Width: 807
GlyphClass: 2
Flags: W
HStem: -49 189<281.674 453.196> 845 187<307.075 504.311>
VStem: 13.8359 196<223.67 703.695> 576.642 189<319.138 760.813>
LayerCount: 2
Fore
SplineSet
399.276367188 845 m 0,0,1
 315.641601562 842 315.641601562 842 273.8359375 754 c 0,2,3
 209.641601562 618 209.641601562 618 209.8359375 455 c 0,4,5
 209.641601562 298 209.641601562 298 255.916992188 220 c 0,6,7
 303.641601562 140 303.641601562 140 364.716796875 140 c 0,8,9
 434.641601562 140 434.641601562 140 482.4765625 220 c 0,10,11
 575.641601562 377 575.641601562 377 576.641601562 501 c 0,12,13
 577.641601562 851 577.641601562 851 399.276367188 845 c 0,0,1
387.641601562 1032 m 0,14,15
 768.641601562 1029 768.641601562 1029 765.641601562 486 c 4,16,17
 764.641601562 233 764.641601562 233 648.641601562 96 c 1,18,19
 547.641601562 -51 547.641601562 -51 349.356445312 -49 c 0,20,21
 242.641601562 -48 242.641601562 -48 125.8359375 99 c 0,22,23
 13.6416015625 241 13.6416015625 241 13.8359375 473 c 0,24,25
 13.6416015625 682 13.6416015625 682 147.8359375 877 c 0,26,27
 254.641601562 1033 254.641601562 1033 387.641601562 1032 c 0,14,15
EndSplineSet
Validated: 33
EndChar

StartChar: p
Encoding: 112 112 83
Width: 840
GlyphClass: 2
Flags: W
HStem: -571 21G<90.7324 188.232>
VStem: 40.7324 195<-559.184 56> 72.7324 174.721<327.744 843.585> 573.037 178<313.019 763.16>
LayerCount: 2
Fore
SplineSet
142.732421875 -571 m 0,0,1
 38.732421875 -571 38.732421875 -571 40.732421875 -471 c 2,2,-1
 72.732421875 976 l 2,3,4
 74.732421875 1085 74.732421875 1085 181.732421875 1083 c 0,5,6
 233.732421875 1082 233.732421875 1082 256.237304688 1025 c 1,7,8
 288.237304688 1064 288.237304688 1064 405.997070312 1062 c 0,9,10
 519.916992188 1061 519.916992188 1061 621.037109375 919 c 0,11,12
 751.037109375 780 751.037109375 780 751.037109375 594 c 0,13,14
 752.037109375 325 752.037109375 325 634.037109375 178 c 0,15,16
 526.803710938 14 526.803710938 14 400.477539062 0 c 0,17,18
 289.126953125 -13 289.126953125 -13 245.499023438 54 c 0,19,20
 244.848632812 55 244.848632812 55 243.545898438 56 c 2,21,-1
 235.732421875 -477 l 2,22,23
 233.732421875 -571 233.732421875 -571 142.732421875 -571 c 0,0,1
260.716796875 808 m 1,24,-1
 247.453125 290 l 1,25,26
 310.616210938 182 310.616210938 182 383.546875 190 c 0,27,28
 479.919921875 200 479.919921875 200 529.408203125 313 c 0,29,30
 571.734375 408 571.734375 408 573.037109375 546 c 0,31,32
 575.037109375 675 575.037109375 675 525.037109375 771 c 0,33,34
 482.796875 853 482.796875 853 400.876953125 870 c 0,35,36
 313.836914062 888 313.836914062 888 260.716796875 808 c 1,24,-1
EndSplineSet
Validated: 33
EndChar

StartChar: q
Encoding: 113 113 84
Width: 841
GlyphClass: 2
Flags: W
HStem: -570 21G<564.22 656.5>
VStem: 42.2402 184<274.691 713.328> 525.12 178.88<-560.332 -20> 536 202<362.19 841.012>
LayerCount: 2
Fore
SplineSet
611 -570 m 0,0,1
 517.439453125 -570 517.439453125 -570 518.720703125 -471 c 2,2,-1
 525.120117188 -20 l 1,3,4
 497.599609375 -44 497.599609375 -44 406.080078125 -43 c 0,5,6
 286.400390625 -42 286.400390625 -42 188.240234375 91 c 0,7,8
 42.240234375 236 42.240234375 236 42.240234375 446 c 0,9,10
 42.240234375 714 42.240234375 714 179.240234375 874 c 0,11,12
 288.959960938 1046 288.959960938 1046 427.200195312 1046 c 0,13,14
 504 1046 504 1046 544 1010 c 1,15,16
 561 1085 561 1085 650 1083 c 0,17,18
 740 1081 740 1081 738 974 c 2,19,-1
 704 -477 l 2,20,21
 702 -570 702 -570 611 -570 c 0,0,1
528.3203125 216 m 1,22,-1
 536 794 l 1,23,24
 497.599609375 864 497.599609375 864 410.560546875 854 c 0,25,26
 331.200195312 846 331.200195312 846 282.560546875 743 c 0,27,28
 228.799804688 628 228.799804688 628 226.240234375 500 c 0,29,30
 224.240234375 358 224.240234375 358 273.599609375 266 c 0,31,32
 326.080078125 168 326.080078125 168 417.599609375 159 c 0,33,34
 486.720703125 152 486.720703125 152 528.3203125 216 c 1,22,-1
EndSplineSet
Validated: 33
EndChar

StartChar: r
Encoding: 114 114 85
Width: 777
GlyphClass: 2
Flags: W
VStem: 33.6318 195<-28.8906 648.79> 56.6318 187.36<418.21 781.823 958 1083.99>
LayerCount: 2
Fore
SplineSet
150.631835938 1094 m 0,0,1
 243.9921875 1094 243.9921875 1094 243.9921875 995 c 0,2,3
 243.9921875 977 243.9921875 977 243.9921875 958 c 1,4,5
 315.672851562 1043 315.672851562 1043 385.431640625 1045 c 0,6,7
 481.599609375 1047 481.599609375 1047 567.599609375 1004 c 0,8,9
 719.599609375 928 719.599609375 928 692.599609375 847 c 0,10,11
 648.599609375 719 648.599609375 719 533.599609375 797 c 0,12,13
 446.232421875 858 446.232421875 858 371.9921875 835 c 0,14,15
 299.672851562 813 299.672851562 813 239.512695312 720 c 1,16,-1
 228.631835938 64 l 2,17,18
 225.631835938 -45 225.631835938 -45 120.631835938 -43 c 0,19,20
 30.6318359375 -41 30.6318359375 -41 33.6318359375 66 c 2,21,-1
 56.6318359375 1001 l 2,22,23
 58.6318359375 1094 58.6318359375 1094 150.631835938 1094 c 0,0,1
EndSplineSet
Validated: 33
EndChar

StartChar: s
Encoding: 115 115 86
Width: 790
GlyphClass: 2
Flags: W
LayerCount: 2
Fore
SplineSet
305.473632812 144 m 0,0,1
 445.120117188 130 445.120117188 130 480.833984375 202 c 0,2,3
 521.120117188 284 521.120117188 284 497.376953125 321 c 0,4,5
 456.120117188 384 456.120117188 384 334.81640625 408 c 0,6,7
 118.120117188 451 118.120117188 451 92.1201171875 565 c 0,8,9
 60.1201171875 708 60.1201171875 708 97.6201171875 804 c 128,-1,10
 135.120117188 900 135.120117188 900 226.115234375 979 c 0,11,12
 312.120117188 1054 312.120117188 1054 377.153320312 1063 c 0,13,14
 467.120117188 1076 467.120117188 1076 572.416992188 1022 c 0,15,16
 716.120117188 949 716.120117188 949 729.416992188 861 c 0,17,18
 738.120117188 801 738.120117188 801 692.416992188 764 c 0,19,20
 632.120117188 715 632.120117188 715 519.416992188 829 c 0,21,22
 463.120117188 886 463.120117188 886 397.633789062 881 c 0,23,24
 310.120117188 874 310.120117188 874 283.073242188 807 c 0,25,26
 251.120117188 728 251.120117188 728 269.120117188 661 c 0,27,28
 283.120117188 606 283.120117188 606 398.176757812 587 c 0,29,30
 441.120117188 580 441.120117188 580 510.81640625 539 c 0,31,32
 622.120117188 473 622.120117188 473 653.120117188 436 c 0,33,34
 712.120117188 363 712.120117188 363 694.416992188 222 c 0,35,36
 679.120117188 98 679.120117188 98 554.416992188 10 c 0,37,38
 459.120117188 -57 459.120117188 -57 359.233398438 -58 c 0,39,40
 277.120117188 -59 277.120117188 -59 199.115234375 -34 c 0,41,42
 136.120117188 -14 136.120117188 -14 67.115234375 26 c 0,43,44
 -2.8798828125 66 -2.8798828125 66 -6.884765625 126 c 0,45,46
 -10.8798828125 192 -10.8798828125 192 35.115234375 222 c 0,47,48
 93.1201171875 260 93.1201171875 260 163.115234375 210 c 0,49,50
 246.120117188 150 246.120117188 150 305.473632812 144 c 0,0,1
EndSplineSet
EndChar

StartChar: t
Encoding: 116 116 87
Width: 712
GlyphClass: 2
Flags: W
HStem: 892 201<64.128 178.448 371.527 654.978>
VStem: 133 219.268<-27.6252 330.657> 183.448 188.079<1093 1518.99>
LayerCount: 2
Fore
SplineSet
280.801757812 1531 m 0,0,1
 372 1531 372 1531 371.641601562 1432 c 0,2,3
 372 1098 372 1098 371.52734375 1093 c 1,4,-1
 545.641601562 1094 l 2,5,6
 669 1095 669 1095 668.641601562 994 c 0,7,8
 669 892 669 892 551.641601562 892 c 0,9,10
 445 892 445 892 368.328125 892 c 1,11,-1
 352.267578125 64 l 2,12,13
 350 -45 350 -45 243.267578125 -43 c 0,14,15
 126.792731628 -39.9946519475 126.792731628 -39.9946519475 133 72 c 2,16,-1
 178.448242188 892 l 1,17,18
 138.822265625 896 l 0,19,20
 53 896 53 896 52.822265625 994 c 0,21,22
 53 1099 53 1099 147.822265625 1095 c 0,23,24
 169 1094 169 1094 183.448242188 1092 c 1,25,-1
 188.801757812 1438 l 2,26,27
 190 1531 190 1531 280.801757812 1531 c 0,0,1
EndSplineSet
Validated: 33
EndChar

StartChar: u
Encoding: 117 117 88
Width: 883
GlyphClass: 2
Flags: W
VStem: 86.2093 202<219.497 1037.45> 574.93 194<-64.3018 82 257.125 574.909> 595.93 197<448 1045.87>
LayerCount: 2
Fore
SplineSet
676.9296875 -76 m 0,0,1
 573.650390625 -76 573.650390625 -76 574.9296875 23 c 2,2,-1
 575.9296875 82 l 1,3,4
 505.809570312 -17 505.809570312 -17 397.009765625 -17 c 0,5,6
 82.208984375 -16 82.208984375 -16 86.208984375 439 c 2,7,-1
 90.208984375 930 l 2,8,9
 92.208984375 1050 92.208984375 1050 186.208984375 1059 c 0,10,11
 290.76953125 1068 290.76953125 1068 289.490234375 948 c 2,12,-1
 288.208984375 511 l 2,13,14
 286.208984375 269 286.208984375 269 335.569335938 216 c 0,15,16
 402.129882812 146 402.129882812 146 494.290039062 218 c 0,17,18
 578.9296875 284 578.9296875 284 583.9296875 448 c 2,19,-1
 595.9296875 953 l 2,20,21
 598.9296875 1062 598.9296875 1062 704.9296875 1061 c 0,22,23
 794.9296875 1059 794.9296875 1059 792.9296875 951 c 2,24,-1
 768.9296875 17 l 2,25,26
 766.9296875 -76 766.9296875 -76 676.9296875 -76 c 0,0,1
EndSplineSet
Validated: 33
EndChar

StartChar: v
Encoding: 118 118 89
Width: 835
GlyphClass: 2
Flags: W
HStem: -45 21G<400.138 438.997>
VStem: 58.7158 182<911.822 1039.83>
LayerCount: 2
Fore
SplineSet
95.7158203125 1046 m 0,0,1
 202 1093 202 1093 240.715820312 961 c 2,2,-1
 413 370 l 1,3,-1
 597.350585938 961 l 2,4,5
 637.637256831 1090.15295266 637.637256831 1090.15295266 742.350585938 1046 c 0,6,7
 823.700067801 1012.12489612 823.700067801 1012.12489612 779.350585938 884 c 2,8,-1
 495.513671875 64 l 2,9,10
 458 -45 458 -45 419.993164062 -45 c 0,11,12
 380.283381764 -45 380.283381764 -45 342.553710938 64 c 2,13,-1
 58.7158203125 884 l 2,14,15
 15 1010 15 1010 95.7158203125 1046 c 0,0,1
EndSplineSet
Validated: 33
EndChar

StartChar: w
Encoding: 119 119 90
Width: 1099
GlyphClass: 2
Flags: W
HStem: -50 21G<281.621 363.137>
VStem: 450 181<851.91 1019.92>
LayerCount: 2
Fore
SplineSet
631 919 m 2,0,-1
 691 384 l 1,1,-1
 847.458984375 915 l 2,2,3
 889 1057 889 1057 966.458984375 1045 c 0,4,5
 1067.51287891 1029.07675654 1067.51287891 1029.07675654 1027.45898438 905 c 2,6,-1
 758.553710938 72 l 2,7,8
 719 -51 719 -51 677.9140625 -50 c 0,9,10
 589.960414327 -47.9990994462 589.960414327 -47.9990994462 573 70 c 2,11,-1
 518.8125 447 l 1,12,-1
 430 72 l 2,13,14
 401 -50 401 -50 325.2734375 -50 c 0,15,16
 237.96760462 -50 237.96760462 -50 214.827148438 72 c 2,17,-1
 56.8271484375 905 l 2,18,19
 33 1030 33 1030 125 1045 c 0,20,21
 214.783619504 1059.96393658 214.783619504 1059.96393658 224.233398438 1005 c 2,22,-1
 331 384 l 1,23,-1
 450 916 l 2,24,25
 479 1046 479 1046 546.07421875 1046 c 0,26,27
 617 1046 617 1046 631 919 c 2,0,-1
EndSplineSet
Validated: 33
EndChar

StartChar: x
Encoding: 120 120 91
Width: 975
GlyphClass: 2
Flags: W
LayerCount: 2
Fore
SplineSet
91.2021484375 1027 m 0,0,1
 179.921771815 1098.93657021 179.921771815 1098.93657021 257.202148438 984 c 2,2,-1
 469 669 l 1,3,-1
 677.504882812 984 l 2,4,5
 755 1102 755 1102 843.504882812 1027 c 0,6,7
 909.112851279 970.903509271 909.112851279 970.903509271 841.504882812 872 c 2,8,-1
 592 507 l 1,9,-1
 814.504882812 147 l 2,10,11
 891 23 891 23 834.504882812 -27 c 0,12,13
 750 -102 750 -102 668.504882812 17 c 2,14,-1
 468 310 l 1,15,-1
 266.202148438 17 l 2,16,17
 184.150514053 -102.134711735 184.150514053 -102.134711735 100.202148438 -27 c 0,18,19
 39.7490353871 27.2251097253 39.7490353871 27.2251097253 120.202148438 147 c 2,20,-1
 360 504 l 1,21,-1
 93.2021484375 872 l 2,22,23
 22 970 22 970 91.2021484375 1027 c 0,0,1
EndSplineSet
Validated: 33
EndChar

StartChar: y
Encoding: 121 121 92
Width: 869
GlyphClass: 2
Flags: W
VStem: 634.658 192<902.971 1017.28>
LayerCount: 2
Fore
SplineSet
781.658203125 1029 m 0,0,1
 877.658203125 988 877.658203125 988 826.658203125 870 c 2,2,-1
 379.114257812 -447 l 2,3,4
 334.955078125 -607 334.955078125 -607 278.634765625 -571 c 0,5,6
 185.942382812 -528 185.942382812 -528 254.942382812 -369 c 2,7,-1
 382.955078125 91 l 1,8,-1
 37.9423828125 861 l 2,9,10
 -26.0576171875 979 -26.0576171875 979 61.9423828125 1026 c 0,11,12
 154.942382812 1076 154.942382812 1076 217.942382812 957 c 2,13,-1
 446.314453125 320 l 1,14,-1
 634.658203125 951 l 2,15,16
 685.658203125 1069 685.658203125 1069 781.658203125 1029 c 0,0,1
EndSplineSet
Validated: 33
EndChar

StartChar: z
Encoding: 122 122 93
Width: 922
GlyphClass: 2
Flags: W
HStem: -46 185<365.594 802.042> 848 199<124.851 563.993>
LayerCount: 2
Fore
SplineSet
801.8046875 858 m 2,0,-1
 365.59375 139 l 1,1,-1
 702.8046875 139 l 2,2,3
 816.8046875 139 816.8046875 139 813.8046875 43 c 0,4,5
 810.8046875 -46 810.8046875 -46 695.8046875 -46 c 2,6,-1
 183.116210938 -46 l 2,7,8
 95.1162109375 -46 95.1162109375 -46 82.1162109375 31 c 0,9,10
 76.1162109375 67 76.1162109375 67 136.116210938 142 c 2,11,-1
 563.993164062 848 l 1,12,-1
 222.116210938 848 l 2,13,14
 107.116210938 848 107.116210938 848 111.116210938 958 c 0,15,16
 114.116210938 1047 114.116210938 1047 229.116210938 1047 c 2,17,-1
 741.8046875 1047 l 2,18,19
 818.8046875 1047 818.8046875 1047 842.8046875 970 c 0,20,21
 856.8046875 927 856.8046875 927 801.8046875 858 c 2,0,-1
EndSplineSet
Validated: 33
EndChar

StartChar: braceleft
Encoding: 123 123 94
Width: 709
GlyphClass: 2
Flags: W
HStem: -383 186<435.133 641.962> 1434 186<426.909 657.56>
VStem: 206.615 186<-160.25 403.93 731.158 1405.8>
LayerCount: 2
Fore
SplineSet
209.615234375 798 m 2,0,-1
 206.615234375 1224 l 2,1,2
 203.615234375 1620 203.615234375 1620 529.086914062 1620 c 0,3,4
 674.086914062 1620 674.086914062 1620 673.086914062 1537 c 0,5,6
 673.086914062 1422 673.086914062 1422 514.086914062 1434 c 0,7,8
 390.615234375 1444 390.615234375 1444 392.615234375 1218 c 2,9,-1
 394.53515625 795 l 2,10,11
 395.17578125 690 395.17578125 690 260.615234375 568 c 1,12,13
 395.17578125 445 395.17578125 445 394.53515625 340 c 2,14,-1
 392.615234375 19 l 2,15,16
 390.615234375 -199 390.615234375 -199 515.086914062 -197 c 0,17,18
 657.086914062 -195 657.086914062 -195 657.086914062 -283 c 0,19,20
 657.086914062 -383 657.086914062 -383 529.086914062 -383 c 0,21,22
 202.615234375 -383 202.615234375 -383 206.615234375 13 c 2,23,-1
 209.615234375 337 l 2,24,25
 209.615234375 385 209.615234375 385 98.615234375 449 c 0,26,27
 -1.384765625 508 -1.384765625 508 2.615234375 568 c 1,28,29
 -1.384765625 629 -1.384765625 629 98.615234375 686 c 0,30,31
 209.615234375 750 209.615234375 750 209.615234375 798 c 2,0,-1
EndSplineSet
Validated: 33
EndChar

StartChar: bar
Encoding: 124 124 95
Width: 729
GlyphClass: 2
Flags: W
VStem: 231.561 173<-350.953 1708.5>
LayerCount: 2
Fore
SplineSet
316.560546875 1715 m 0,0,1
 402.560546875 1716 402.560546875 1716 402.560546875 1638 c 2,2,-1
 404.560546875 -247 l 2,3,4
 404.560546875 -361 404.560546875 -361 316.560546875 -361 c 0,5,6
 232.560546875 -360 232.560546875 -360 231.560546875 -246 c 2,7,-1
 226.560546875 1638 l 2,8,9
 226.560546875 1714 226.560546875 1714 316.560546875 1715 c 0,0,1
EndSplineSet
Validated: 33
EndChar

StartChar: braceright
Encoding: 125 125 96
Width: 710
GlyphClass: 2
Flags: W
HStem: -383 186<36.5098 242.436> 1434 186<20.4395 250.66>
VStem: 284.953 186<-160.25 406.891 728.145 1405.8>
LayerCount: 2
Fore
SplineSet
467.953125 798 m 2,0,1
 467.953125 750 467.953125 750 578.953125 686 c 0,2,3
 678.953125 628 678.953125 628 674.953125 568 c 1,4,5
 678.953125 507 678.953125 507 578.953125 449 c 0,6,7
 467.953125 385 467.953125 385 467.953125 337 c 2,8,-1
 470.953125 13 l 2,9,10
 474.953125 -383 474.953125 -383 148.482421875 -383 c 0,11,12
 22.482421875 -383 22.482421875 -383 20.482421875 -283 c 0,13,14
 18.482421875 -195 18.482421875 -195 163.482421875 -197 c 0,15,16
 286.953125 -199 286.953125 -199 284.953125 19 c 2,17,-1
 283.033203125 340 l 2,18,19
 282.393554688 444 282.393554688 444 416.953125 568 c 1,20,21
 282.393554688 691 282.393554688 691 283.033203125 795 c 2,22,-1
 284.953125 1218 l 2,23,24
 286.953125 1444 286.953125 1444 163.482421875 1434 c 0,25,26
 5.482421875 1422 5.482421875 1422 4.482421875 1537 c 0,27,28
 3.482421875 1620 3.482421875 1620 148.482421875 1620 c 0,29,30
 473.953125 1620 473.953125 1620 470.953125 1224 c 2,31,-1
 467.953125 798 l 2,0,1
EndSplineSet
Validated: 33
EndChar

StartChar: asciitilde
Encoding: 126 126 97
Width: 943
GlyphClass: 2
Flags: W
VStem: 73.8311 162<525.935 687.234> 675.512 183<699.987 892.34>
LayerCount: 2
Fore
SplineSet
235.831054688 576 m 0,0,1
 192.831054688 492 192.831054688 492 113.831054688 527 c 0,2,3
 46.8310546875 557 46.8310546875 557 73.8310546875 648 c 0,4,5
 108.831054688 766 108.831054688 766 208.831054688 851 c 0,6,7
 283.19140625 936 283.19140625 936 349.751953125 935 c 0,8,9
 436.791992188 934 436.791992188 934 476.471679688 822 c 0,10,11
 527.03125 684 527.03125 684 594.231445312 680 c 0,12,13
 645.431640625 677 645.431640625 677 675.51171875 819 c 0,14,15
 706.51171875 913 706.51171875 913 773.51171875 910 c 0,16,17
 864.51171875 907 864.51171875 907 858.51171875 772 c 0,18,19
 853.51171875 658 853.51171875 658 758.51171875 570 c 0,20,21
 678.51171875 497 678.51171875 497 600.631835938 496 c 0,22,23
 497.591796875 495 497.591796875 495 443.19140625 624 c 0,24,25
 377.912109375 778 377.912109375 778 335.671875 756 c 0,26,27
 287.03125 732 287.03125 732 235.831054688 576 c 0,0,1
EndSplineSet
Validated: 33
EndChar

StartChar: cent
Encoding: 162 162 100
Width: 1196
GlyphClass: 2
Flags: W
HStem: 278 187<397.396 476.48 649.28 775.171>
VStem: 80 168<623.609 1056.25> 476.48 170.8<43.6084 285 471 1280 1477 1720.24>
LayerCount: 2
Fore
SplineSet
579.280273438 1740 m 0,0,1
 659.280273438 1740 659.280273438 1740 658.280273438 1629 c 0,2,3
 657.280273438 1553 657.280273438 1553 657.280273438 1477 c 1,4,5
 729.280273438 1476 729.280273438 1476 778.280273438 1456 c 0,6,7
 908.280273438 1400 908.280273438 1400 946.280273438 1368 c 0,8,9
 1049.28027344 1283 1049.28027344 1283 1003.28027344 1216 c 0,10,11
 948.280273438 1139 948.280273438 1139 860.280273438 1202 c 0,12,13
 726.280273438 1298 726.280273438 1298 678.280273438 1303 c 0,14,15
 667.280273438 1304 667.280273438 1304 656.280273438 1305 c 1,16,-1
 649.280273438 465 l 1,17,18
 723.280273438 476 723.280273438 476 779.280273438 511 c 0,19,20
 916.280273438 596 916.280273438 596 952.280273438 601 c 0,21,22
 1065.28027344 615 1065.28027344 615 1043.28027344 489 c 0,23,24
 1031.28027344 438 1031.28027344 438 852.280273438 344 c 0,25,26
 749.280273438 290 749.280273438 290 647.280273438 278 c 1,27,-1
 646.280273438 160 l 2,28,29
 645.280273438 31 645.280273438 31 565.280273438 33 c 0,30,31
 473.599609375 34 473.599609375 34 474.559570312 162 c 0,32,33
 475.51953125 224 475.51953125 224 476.48046875 285 c 1,34,35
 301.759765625 321 301.759765625 321 175 475 c 0,36,37
 80 588 80 588 80 874 c 0,38,39
 80 1072 80 1072 185 1227 c 0,40,41
 310.400390625 1416 310.400390625 1416 487.280273438 1458 c 1,42,-1
 489.280273438 1628 l 2,43,44
 490.280273438 1739 490.280273438 1739 579.280273438 1740 c 0,0,1
485.280273438 1280 m 1,45,46
 386.240234375 1228 386.240234375 1228 328.640625 1131 c 0,47,48
 248 993 248 993 248 842 c 0,49,50
 248 678 248 678 307.51953125 598 c 0,51,52
 380.48046875 499 380.48046875 499 478.080078125 471 c 1,53,54
 481.280273438 875 481.280273438 875 485.280273438 1280 c 1,45,46
EndSplineSet
Validated: 33
EndChar

StartChar: sterling
Encoding: 163 163 101
Width: 1229
GlyphClass: 2
Flags: W
HStem: -150 180<614.568 876.029> 718 176<37.6992 286.874 416.153 814.283>
VStem: 286.874 114.56<897 1257.2> 937.107 174<90.6836 290.698>
LayerCount: 2
Fore
SplineSet
284.953125 924 m 0,0,1
 272.153320312 1195 272.153320312 1195 374.553710938 1407 c 0,2,3
 465.43359375 1595 465.43359375 1595 615.193359375 1608 c 0,4,5
 827.673828125 1626 827.673828125 1626 933.107421875 1452 c 0,6,7
 1015.10742188 1340 1015.10742188 1340 981.107421875 1284 c 0,8,9
 937.107421875 1212 937.107421875 1212 875.107421875 1229 c 0,10,11
 852.6328125 1237 852.6328125 1237 816.79296875 1334 c 0,12,13
 776.473632812 1444 776.473632812 1444 628.6328125 1434 c 0,14,15
 437.2734375 1423 437.2734375 1423 402.07421875 1035 c 0,16,17
 396.953125 981 396.953125 981 401.43359375 897 c 1,18,-1
 755.993164062 904 l 2,19,20
 823.193359375 905 823.193359375 905 823.193359375 814 c 0,21,22
 823.193359375 728 823.193359375 728 759.833007812 727 c 0,23,24
 588.313476562 724 588.313476562 724 416.153320312 721 c 1,25,26
 428.313476562 610 428.313476562 610 450.07421875 468 c 0,27,28
 471.833007812 324 471.833007812 324 428.313476562 143 c 1,29,30
 446.874023438 147 446.874023438 147 459.673828125 146 c 0,31,32
 518.553710938 139 518.553710938 139 614.553710938 74 c 0,33,34
 684.313476562 27 684.313476562 27 759.193359375 30 c 0,35,36
 843.673828125 34 843.673828125 34 889.107421875 86 c 0,37,38
 918.107421875 111 918.107421875 111 937.107421875 230 c 0,39,40
 951.107421875 309 951.107421875 309 1031.10742188 300 c 0,41,42
 1119.10742188 290 1119.10742188 290 1111.10742188 196 c 0,43,44
 1098.10742188 27 1098.10742188 27 1003.10742188 -50 c 0,45,46
 874.107421875 -156 874.107421875 -156 752.79296875 -150 c 0,47,48
 670.874023438 -146 670.874023438 -146 605.59375 -100 c 0,49,50
 501.2734375 -27 501.2734375 -27 420.6328125 -34 c 0,51,52
 387.353515625 -37 387.353515625 -37 339.353515625 -75 c 0,53,54
 233.25390625 -148 233.25390625 -148 199.25390625 -68 c 0,55,56
 177.25390625 -16 177.25390625 -16 209.25390625 21 c 0,57,58
 219.25390625 36 219.25390625 36 238.25390625 53 c 0,59,60
 375.833007812 227 375.833007812 227 329.11328125 540 c 0,61,62
 314.393554688 639 314.393554688 639 304.153320312 720 c 1,63,64
 223.25390625 719 223.25390625 719 125.25390625 718 c 0,65,66
 24.25390625 717 24.25390625 717 26.25390625 803 c 0,67,68
 29.25390625 893 29.25390625 893 130.25390625 894 c 0,69,70
 212.25390625 895 212.25390625 895 286.874023438 895 c 1,71,72
 285.59375 910 285.59375 910 284.953125 924 c 0,0,1
EndSplineSet
Validated: 33
EndChar

StartChar: currency
Encoding: 164 164 102
Width: 1100
GlyphClass: 2
Flags: W
HStem: 396 207<455.232 593.692> 908 209<456.965 593.094>
VStem: 214.184 213<626.158 882.987> 623.023 201<627.281 881.812>
LayerCount: 2
Fore
SplineSet
527.0234375 908 m 0,0,1
 525.743164062 908 525.743164062 908 525.103515625 908 c 0,2,3
 500.143554688 908 500.143554688 908 478.3828125 889 c 0,4,5
 455.34375 870 455.34375 870 441.903320312 835 c 0,6,7
 427.18359375 798 427.18359375 798 427.18359375 755 c 0,8,9
 427.18359375 715 427.18359375 715 438.0625 684 c 0,10,11
 450.22265625 648 450.22265625 648 470.0625 628 c 0,12,13
 488.623046875 608 488.623046875 608 516.143554688 603 c 0,14,15
 520.623046875 602 520.623046875 602 524.462890625 603 c 0,16,17
 548.143554688 603 548.143554688 603 567.34375 617 c 0,18,19
 587.18359375 632 587.18359375 632 601.262695312 660 c 0,20,21
 618.54296875 694 618.54296875 694 622.3828125 737 c 0,22,23
 623.0234375 746 623.0234375 746 623.0234375 755 c 0,24,25
 623.0234375 789 623.0234375 789 613.422851562 820 c 0,26,27
 601.262695312 859 601.262695312 859 578.86328125 883 c 0,28,29
 555.823242188 907 555.823242188 907 527.0234375 908 c 0,0,1
98.18359375 1290 m 0,30,31
 172.18359375 1356 172.18359375 1356 238.18359375 1282 c 2,32,-1
 420.18359375 1081 l 2,33,34
 423.18359375 1083 423.18359375 1083 426.18359375 1084 c 0,35,36
 472.623046875 1116 472.623046875 1116 521.903320312 1117 c 0,37,38
 527.663085938 1117 527.663085938 1117 534.0625 1116 c 0,39,40
 585.903320312 1112 585.903320312 1112 635.0234375 1073 c 1,41,-1
 824.0234375 1282 l 2,42,43
 890.0234375 1356 890.0234375 1356 964.0234375 1290 c 0,44,45
 1037.0234375 1225 1037.0234375 1225 970.0234375 1152 c 2,46,-1
 775.0234375 938 l 1,47,48
 780.0234375 930 780.0234375 930 785.0234375 921 c 0,49,50
 825.0234375 844 825.0234375 844 824.0234375 756 c 0,51,52
 824.0234375 748 824.0234375 748 824.0234375 739 c 0,53,54
 820.0234375 647 820.0234375 647 772.0234375 570 c 1,55,-1
 952.0234375 370 l 2,56,57
 1039.0234375 274 1039.0234375 274 971.0234375 207 c 0,58,59
 902.0234375 139 902.0234375 139 814.0234375 236 c 2,60,-1
 632.0234375 437 l 1,61,62
 620.462890625 430 620.462890625 430 611.50390625 425 c 0,63,64
 567.983398438 396 567.983398438 396 521.262695312 396 c 0,65,66
 498.86328125 396 498.86328125 396 476.462890625 403 c 0,67,68
 448.943359375 411 448.943359375 411 423.18359375 429 c 1,69,-1
 248.18359375 236 l 2,70,71
 160.18359375 139 160.18359375 139 91.18359375 207 c 0,72,73
 23.18359375 274 23.18359375 274 110.18359375 370 c 2,74,-1
 276.18359375 554 l 1,75,76
 234.18359375 616 234.18359375 616 220.18359375 692 c 0,77,78
 214.18359375 723 214.18359375 723 214.18359375 754 c 0,79,80
 214.18359375 820 214.18359375 820 237.18359375 883 c 0,81,82
 251.18359375 921 251.18359375 921 273.18359375 954 c 1,83,-1
 92.18359375 1152 l 2,84,85
 25.18359375 1225 25.18359375 1225 98.18359375 1290 c 0,30,31
EndSplineSet
Validated: 33
EndChar

StartChar: yen
Encoding: 165 165 103
Width: 1110
GlyphClass: 2
Flags: W
HStem: 307 165<240.737 459.674 619.674 853.684> 535 165<240.737 421.914 652.313 853.684>
VStem: 459.674 160<-48.3643 307 472 535>
LayerCount: 2
Fore
SplineSet
129.293945312 1443 m 0,0,1
 193.293945312 1478 193.293945312 1478 231.293945312 1416 c 2,2,-1
 535.673828125 782 l 1,3,-1
 842.93359375 1416 l 2,4,5
 880.93359375 1478 880.93359375 1478 944.93359375 1443 c 0,6,7
 1010.93359375 1407 1010.93359375 1407 974.93359375 1344 c 2,8,-1
 652.313476562 700 l 1,9,-1
 750.93359375 700 l 2,10,11
 856.93359375 700 856.93359375 700 862.93359375 621 c 0,12,13
 868.93359375 535 868.93359375 535 762.93359375 535 c 2,14,-1
 619.673828125 535 l 1,15,-1
 619.673828125 472 l 1,16,-1
 750.93359375 472 l 2,17,18
 856.93359375 472 856.93359375 472 862.93359375 393 c 0,19,20
 868.93359375 307 868.93359375 307 762.93359375 307 c 2,21,-1
 619.673828125 307 l 1,22,23
 619.673828125 171 619.673828125 171 619.673828125 35 c 0,24,25
 619.673828125 -55 619.673828125 -55 543.673828125 -55 c 0,26,27
 459.673828125 -56 459.673828125 -56 459.673828125 34 c 2,28,-1
 459.673828125 307 l 1,29,-1
 336.79296875 307 l 2,30,31
 229.293945312 307 229.293945312 307 231.293945312 387 c 0,32,33
 233.293945312 472 233.293945312 472 339.353515625 472 c 2,34,-1
 459.673828125 472 l 1,35,-1
 459.673828125 535 l 1,36,-1
 336.79296875 535 l 2,37,38
 229.293945312 535 229.293945312 535 231.293945312 615 c 0,39,40
 233.293945312 700 233.293945312 700 339.353515625 700 c 2,41,-1
 421.9140625 700 l 1,42,-1
 99.2939453125 1344 l 2,43,44
 63.2939453125 1407 63.2939453125 1407 129.293945312 1443 c 0,0,1
EndSplineSet
Validated: 33
EndChar

StartChar: brokenbar
Encoding: 166 166 104
Width: 690
GlyphClass: 2
Flags: W
HStem: -43 21G<254.26 329.76>
VStem: 213.76 151<-37.2849 749.88 904.715 1691.88>
LayerCount: 2
Fore
SplineSet
288.759765625 754 m 128,-1,1
 363.759765625 754 363.759765625 754 363.759765625 679 c 2,2,-1
 364.759765625 38 l 2,3,4
 364.759765625 -43 364.759765625 -43 294.759765625 -43 c 0,5,6
 213.759765625 -43 213.759765625 -43 213.759765625 38 c 2,7,-1
 213.759765625 679 l 2,8,0
 213.759765625 754 213.759765625 754 288.759765625 754 c 128,-1,1
288.759765625 1696 m 128,-1,10
 363.759765625 1696 363.759765625 1696 363.759765625 1621 c 2,11,-1
 364.759765625 980 l 2,12,13
 364.759765625 899 364.759765625 899 294.759765625 899 c 0,14,15
 213.759765625 899 213.759765625 899 213.759765625 980 c 2,16,-1
 213.759765625 1621 l 2,17,9
 213.759765625 1696 213.759765625 1696 288.759765625 1696 c 128,-1,10
EndSplineSet
Validated: 1
EndChar

StartChar: section
Encoding: 167 167 105
Width: 1047
GlyphClass: 2
Flags: W
LayerCount: 2
Fore
SplineSet
363.673828125 1012 m 1,0,1
 320.954101562 940 320.954101562 940 329.75390625 876 c 0,2,3
 342.553710938 772 342.553710938 772 415.513671875 720 c 0,4,5
 443.673828125 700 443.673828125 700 580.6328125 643 c 0,6,7
 618.393554688 627 618.393554688 627 652.39453125 609 c 1,8,9
 689.39453125 664 689.39453125 664 679.39453125 692 c 0,10,11
 647.39453125 775 647.39453125 775 563.353515625 854 c 0,12,13
 469.9140625 946 469.9140625 946 444.313476562 962 c 0,14,15
 400.153320312 991 400.153320312 991 370.07421875 1020 c 1,16,-1
 363.673828125 1012 l 1,0,1
790.39453125 512 m 1,17,18
 892.39453125 362 892.39453125 362 881.39453125 255 c 0,19,20
 865.39453125 96 865.39453125 96 755.39453125 12 c 0,21,22
 643.39453125 -74 643.39453125 -74 489.75390625 -75 c 0,23,24
 374.553710938 -76 374.553710938 -76 284.954101562 -26 c 0,25,26
 204.954101562 7 204.954101562 7 148.954101562 56 c 0,27,28
 70.9541015625 125 70.9541015625 125 76.9541015625 192 c 0,29,30
 81.9541015625 242 81.9541015625 242 131.954101562 252 c 0,31,32
 197.954101562 267 197.954101562 267 257.954101562 207 c 0,33,34
 332.953125 127 332.953125 127 391.833007812 106 c 0,35,36
 487.833007812 74 487.833007812 74 546.713867188 88 c 0,37,38
 637.59375 111 637.59375 111 675.39453125 185 c 0,39,40
 752.39453125 333 752.39453125 333 619.033203125 429 c 0,41,42
 566.553710938 484 566.553710938 484 391.833007812 560 c 0,43,44
 241.954101562 613 241.954101562 613 182.954101562 751 c 0,45,46
 133.954101562 867 133.954101562 867 168.954101562 998 c 0,47,48
 190.954101562 1080 190.954101562 1080 274.954101562 1145 c 1,49,50
 221.954101562 1227 221.954101562 1227 218.954101562 1295 c 0,51,52
 212.954101562 1453 212.954101562 1453 338.713867188 1559 c 0,53,54
 404.6328125 1641 404.6328125 1641 483.353515625 1642 c 0,55,56
 587.673828125 1643 587.673828125 1643 661.39453125 1600 c 0,57,58
 741.39453125 1567 741.39453125 1567 797.39453125 1518 c 0,59,60
 875.39453125 1449 875.39453125 1449 869.39453125 1382 c 0,61,62
 864.39453125 1332 864.39453125 1332 814.39453125 1322 c 0,63,64
 751.39453125 1308 751.39453125 1308 688.39453125 1367 c 0,65,66
 616.473632812 1444 616.473632812 1444 581.2734375 1461 c 0,67,68
 530.07421875 1487 530.07421875 1487 459.673828125 1454 c 0,69,70
 395.673828125 1425 395.673828125 1425 380.313476562 1352 c 0,71,72
 362.393554688 1272 362.393554688 1272 438.553710938 1175 c 0,73,74
 483.353515625 1119 483.353515625 1119 595.993164062 1049 c 0,75,76
 726.39453125 988 726.39453125 988 821.39453125 863 c 0,77,78
 918.39453125 734 918.39453125 734 864.39453125 608 c 0,79,80
 847.39453125 564 847.39453125 564 790.39453125 512 c 1,17,18
EndSplineSet
Validated: 33
EndChar

StartChar: dieresis
Encoding: 168 168 106
Width: 976
GlyphClass: 2
Flags: W
HStem: 1186 184<154.785 370.873 568.171 784.26>
VStem: 142.08 241<1201.66 1354.65> 555.467 241<1201.66 1354.65>
LayerCount: 2
Fore
SplineSet
673.466796875 1370 m 0,0,1
 796.466796875 1370 796.466796875 1370 796.466796875 1277 c 0,2,3
 796.466796875 1186 796.466796875 1186 671.466796875 1186 c 0,4,5
 555.466796875 1186 555.466796875 1186 555.466796875 1274 c 0,6,7
 555.466796875 1370 555.466796875 1370 673.466796875 1370 c 0,0,1
260.080078125 1370 m 0,8,9
 383.080078125 1370 383.080078125 1370 383.080078125 1277 c 0,10,11
 383.080078125 1186 383.080078125 1186 258.080078125 1186 c 0,12,13
 142.080078125 1186 142.080078125 1186 142.080078125 1274 c 0,14,15
 142.080078125 1370 142.080078125 1370 260.080078125 1370 c 0,8,9
EndSplineSet
Validated: 1
EndChar

StartChar: copyright
Encoding: 169 169 107
Width: 1206
GlyphClass: 2
Flags: W
HStem: 216 191<449.51 719.315> 1452 177<450.256 719.063>
VStem: 63.3604 187<676.054 1174.56> 359.16 114.561<786.391 1102.82> 918.521 182<676.521 1172.7>
LayerCount: 2
Fore
SplineSet
699 800 m 0,0,1
 752.120117188 862 752.120117188 862 783.479492188 784 c 0,2,3
 807.16015625 725 807.16015625 725 745.080078125 643 c 0,4,5
 675.3203125 549 675.3203125 549 590.200195312 556 c 0,6,7
 459.639648438 566 459.639648438 566 406.520507812 700 c 0,8,9
 359.16015625 821 359.16015625 821 359.16015625 911 c 0,10,11
 359.16015625 1064 359.16015625 1064 403.959960938 1164 c 0,12,13
 451.959960938 1272 451.959960938 1272 535.16015625 1306 c 0,14,15
 611.3203125 1338 611.3203125 1338 667.639648438 1300 c 0,16,17
 745.720703125 1249 745.720703125 1249 773.240234375 1189 c 0,18,19
 803.3203125 1123 803.3203125 1123 773.240234375 1066 c 0,20,21
 740.599609375 1006 740.599609375 1006 672.759765625 1094 c 0,22,23
 617.720703125 1166 617.720703125 1166 561.400390625 1136 c 0,24,25
 498.6796875 1103 498.6796875 1103 487.16015625 1040 c 0,26,27
 473.080078125 964 473.080078125 964 473.720703125 924 c 0,28,29
 475.639648438 869 475.639648438 869 498.6796875 820 c 0,30,31
 538.360351562 735 538.360351562 735 589.560546875 727 c 0,32,33
 633.080078125 722 633.080078125 722 699 800 c 0,0,1
585.080078125 1452 m 2,34,-1
 584.439453125 1452 l 2,35,36
 498.6796875 1452 498.6796875 1452 419.959960938 1385 c 0,37,38
 340.599609375 1317 340.599609375 1317 296.439453125 1200 c 0,39,40
 252.279296875 1082 252.279296875 1082 250.360351562 943 c 0,41,42
 250.360351562 936 250.360351562 936 250.360351562 930 c 0,43,44
 250.360351562 799 250.360351562 799 289.400390625 684 c 0,45,46
 334.200195312 556 334.200195312 556 409.080078125 483 c 0,47,48
 482.040039062 411 482.040039062 411 578.040039062 408 c 0,49,50
 581.240234375 408 581.240234375 408 584.439453125 407 c 0,51,52
 672.120117188 407 672.120117188 407 748.279296875 474 c 0,53,54
 827.639648438 543 827.639648438 543 873.080078125 666 c 0,55,56
 918.520507812 788 918.520507812 788 918.520507812 930 c 0,57,58
 918.520507812 1069 918.520507812 1069 874.360351562 1189 c 0,59,60
 828.279296875 1314 828.279296875 1314 753.400390625 1382 c 0,61,62
 675.959960938 1452 675.959960938 1452 585.080078125 1452 c 2,34,-1
574.83984375 1629 m 0,63,64
 578.6796875 1629 578.6796875 1629 582.520507812 1629 c 0,65,66
 691.959960938 1629 691.959960938 1629 792.439453125 1549 c 0,67,68
 896.759765625 1465 896.759765625 1465 984.520507812 1315 c 0,69,70
 1082.52050781 1165 1082.52050781 1165 1098.52050781 984 c 0,71,72
 1101.52050781 954 1101.52050781 954 1100.52050781 923 c 0,73,74
 1100.52050781 771 1100.52050781 771 1041.52050781 639 c 0,75,76
 996.520507812 542 996.520507812 542 937.520507812 468 c 0,77,78
 895.479492188 398 895.479492188 398 834.6796875 336 c 0,79,80
 725.240234375 221 725.240234375 221 593.400390625 216 c 0,81,82
 588.279296875 216 588.279296875 216 583.16015625 216 c 0,83,84
 462.200195312 216 462.200195312 216 348.919921875 318 c 0,85,86
 291.3203125 370 291.3203125 370 248.360351562 444 c 0,87,88
 178.360351562 524 178.360351562 524 136.360351562 609 c 0,89,90
 63.3603515625 757 63.3603515625 757 63.3603515625 923 c 0,91,92
 63.3603515625 938 63.3603515625 938 63.3603515625 953 c 0,93,94
 72.3603515625 1144 72.3603515625 1144 163.360351562 1291 c 0,95,96
 257.400390625 1448 257.400390625 1448 356.599609375 1538 c 0,97,98
 455.16015625 1626 455.16015625 1626 574.83984375 1629 c 0,63,64
EndSplineSet
Validated: 33
EndChar

StartChar: ordfeminine
Encoding: 170 170 108
Width: 911
GlyphClass: 2
Flags: W
VStem: 88.4629 177<1147.36 1440.78> 501.914 188.986<1143.02 1510.79>
LayerCount: 2
Fore
SplineSet
359.193359375 918 m 0,0,1
 101.462890625 938 101.462890625 938 88.462890625 1269 c 0,2,3
 81.462890625 1467 81.462890625 1467 197.462890625 1602 c 0,4,5
 314.462890625 1737 314.462890625 1737 511.513671875 1689 c 1,6,7
 538.900390625 1714 538.900390625 1714 599.900390625 1700 c 0,8,9
 701.900390625 1677 701.900390625 1677 696.900390625 1545 c 0,10,11
 692.900390625 1437 692.900390625 1437 690.900390625 1312 c 0,12,13
 687.900390625 1126 687.900390625 1126 722.900390625 1067 c 0,14,15
 807.900390625 921 807.900390625 921 698.900390625 899 c 0,16,17
 573.900390625 873 573.900390625 873 553.900390625 1005 c 1,18,19
 444.313476562 908 444.313476562 908 359.193359375 918 c 0,0,1
419.993164062 1126 m 0,20,21
 480.79296875 1148 480.79296875 1148 501.9140625 1186 c 1,22,-1
 494.874023438 1484 l 1,23,24
 462.874023438 1525 462.874023438 1525 399.513671875 1513 c 0,25,26
 346.393554688 1503 346.393554688 1503 298.462890625 1426 c 0,27,28
 257.462890625 1370 257.462890625 1370 265.462890625 1266 c 0,29,30
 273.462890625 1157 273.462890625 1157 331.462890625 1131 c 0,31,32
 366.874023438 1107 366.874023438 1107 419.993164062 1126 c 0,20,21
EndSplineSet
Validated: 33
EndChar

StartChar: logicalnot
Encoding: 172 172 110
Width: 795
GlyphClass: 2
Flags: W
HStem: 561 172<40.2417 563.354>
VStem: 563.354 173<255.997 561>
LayerCount: 2
Fore
SplineSet
31.36328125 646 m 0,0,1
 30.36328125 733 30.36328125 733 138.36328125 733 c 2,2,-1
 597.353515625 733 l 2,3,4
 734.353515625 733 734.353515625 733 735.353515625 646 c 0,5,6
 735.353515625 643 735.353515625 643 735.353515625 641 c 0,7,8
 736.353515625 635 736.353515625 635 736.353515625 628 c 2,9,-1
 736.353515625 334 l 2,10,11
 736.353515625 249 736.353515625 249 657.353515625 248 c 0,12,13
 563.353515625 247 563.353515625 247 563.353515625 332 c 2,14,-1
 563.353515625 561 l 1,15,-1
 127.36328125 561 l 2,16,17
 32.36328125 561 32.36328125 561 31.36328125 646 c 0,0,1
EndSplineSet
Validated: 33
EndChar

StartChar: registered
Encoding: 174 174 112
Width: 1233
GlyphClass: 2
Flags: W
HStem: 216 191<454.418 745.875> 1452 177<455.829 745.623>
VStem: 63.3604 187<676.054 1174.56> 430.84 132.8<543.441 866> 457.24 116.64<989.922 1183> 670.521 104.319<998.922 1173.87> 945.08 182<676.521 1172.7>
LayerCount: 2
Fore
SplineSet
582.200195312 1183 m 1,0,-1
 573.879882812 992 l 1,1,2
 620.599609375 985 620.599609375 985 639.799804688 996 c 0,3,4
 668.599609375 1013 668.599609375 1013 670.520507812 1089 c 0,5,6
 672.439453125 1167 672.439453125 1167 634.040039062 1173 c 2,7,-1
 582.200195312 1183 l 1,0,-1
706.360351562 1304 m 0,8,9
 767.16015625 1234 767.16015625 1234 774.83984375 1130 c 0,10,11
 779.959960938 1058 779.959960938 1058 772.919921875 1014 c 0,12,13
 755.639648438 915 755.639648438 915 680.120117188 880 c 1,14,-1
 758.83984375 712 l 2,15,16
 810.680664062 602 810.680664062 602 758.83984375 556 c 0,17,18
 717.239257812 520 717.239257812 520 668.599609375 637 c 2,19,-1
 573.879882812 865 l 2,20,21
 573.239257812 863 573.239257812 863 571.3203125 866 c 2,22,-1
 563.639648438 646 l 2,23,24
 558.83984375 537 558.83984375 537 500.440429688 539 c 0,25,26
 427 541 427 541 430.83984375 648 c 2,27,-1
 457.240234375 1250 l 2,28,29
 460.440429688 1329 460.440429688 1329 530.83984375 1343 c 0,30,31
 648.120117188 1370 648.120117188 1370 706.360351562 1304 c 0,8,9
601.399414062 1629 m 0,32,33
 605.239257812 1629 605.239257812 1629 609.080078125 1629 c 0,34,35
 718.520507812 1629 718.520507812 1629 819 1549 c 0,36,37
 923.3203125 1465 923.3203125 1465 1011.08007812 1315 c 0,38,39
 1109.08007812 1165 1109.08007812 1165 1125.08007812 984 c 0,40,41
 1128.08007812 954 1128.08007812 954 1127.08007812 923 c 0,42,43
 1127.08007812 771 1127.08007812 771 1068.08007812 639 c 0,44,45
 1023.08007812 542 1023.08007812 542 964.080078125 468 c 0,46,47
 922.040039062 398 922.040039062 398 861.239257812 336 c 0,48,49
 751.799804688 221 751.799804688 221 619.959960938 216 c 0,50,51
 614.83984375 216 614.83984375 216 609.719726562 216 c 0,52,53
 470.040039062 216 470.040039062 216 348.919921875 318 c 0,54,55
 291.3203125 370 291.3203125 370 248.360351562 444 c 0,56,57
 178.360351562 524 178.360351562 524 136.360351562 609 c 0,58,59
 63.3603515625 757 63.3603515625 757 63.3603515625 923 c 0,60,61
 63.3603515625 938 63.3603515625 938 63.3603515625 953 c 0,62,63
 72.3603515625 1144 72.3603515625 1144 163.360351562 1291 c 0,64,65
 257.400390625 1448 257.400390625 1448 356.599609375 1538 c 0,66,67
 461.240234375 1626 461.240234375 1626 601.399414062 1629 c 0,32,33
611.639648438 1452 m 2,68,-1
 611 1452 l 2,69,70
 515.639648438 1452 515.639648438 1452 419.959960938 1385 c 0,71,72
 340.599609375 1317 340.599609375 1317 296.439453125 1200 c 0,73,74
 252.279296875 1082 252.279296875 1082 250.360351562 943 c 0,75,76
 250.360351562 936 250.360351562 936 250.360351562 930 c 0,77,78
 250.360351562 799 250.360351562 799 289.400390625 684 c 0,79,80
 334.200195312 556 334.200195312 556 409.080078125 483 c 0,81,82
 494.83984375 411 494.83984375 411 604.599609375 408 c 0,83,84
 607.799804688 408 607.799804688 408 611 407 c 0,85,86
 698.680664062 407 698.680664062 407 774.83984375 474 c 0,87,88
 854.200195312 543 854.200195312 543 899.639648438 666 c 0,89,90
 945.080078125 788 945.080078125 788 945.080078125 930 c 0,91,92
 945.080078125 1069 945.080078125 1069 900.919921875 1189 c 0,93,94
 854.83984375 1314 854.83984375 1314 779.959960938 1382 c 0,95,96
 702.520507812 1452 702.520507812 1452 611.639648438 1452 c 2,68,-1
EndSplineSet
Validated: 33
EndChar

StartChar: overscore
Encoding: 175 175 113
Width: 987
GlyphClass: 2
Flags: W
HStem: 1702 185<-22.4004 1023.67>
LayerCount: 2
Fore
SplineSet
1023.66699219 1887 m 1,0,-1
 1023.66699219 1702 l 1,1,-1
 -22.400390625 1702 l 1,2,-1
 -22.400390625 1887 l 1,3,-1
 1023.66699219 1887 l 1,0,-1
EndSplineSet
Validated: 1
EndChar

StartChar: degree
Encoding: 176 176 114
Width: 734
GlyphClass: 2
Flags: W
HStem: 978 147<263.328 443.859> 1531 149<263.334 442.769>
VStem: 43.5205 144<1201.55 1454.16> 518.107 151<1200.51 1455.88>
LayerCount: 2
Fore
SplineSet
225.520507812 1210 m 0,0,1
 257.520507812 1168 257.520507812 1168 291.353515625 1149 c 0,2,3
 315.033203125 1128 315.033203125 1128 347.673828125 1125 c 0,4,5
 350.874023438 1125 350.874023438 1125 354.07421875 1125 c 0,6,7
 382.233398438 1125 382.233398438 1125 408.473632812 1143 c 0,8,9
 439.107421875 1161 439.107421875 1161 468.107421875 1194 c 0,10,11
 508.107421875 1239 508.107421875 1239 516.107421875 1299 c 0,12,13
 518.107421875 1313 518.107421875 1313 518.107421875 1328 c 0,14,15
 518.107421875 1373 518.107421875 1373 500.107421875 1413 c 0,16,17
 475.107421875 1468 475.107421875 1468 423.193359375 1500 c 0,18,19
 391.193359375 1531 391.193359375 1531 354.07421875 1531 c 0,20,21
 352.79296875 1531 352.79296875 1531 352.153320312 1531 c 0,22,23
 315.033203125 1530 315.033203125 1530 281.520507812 1500 c 0,24,25
 234.520507812 1470 234.520507812 1470 209.520507812 1419 c 0,26,27
 187.520507812 1376 187.520507812 1376 187.520507812 1328 c 0,28,29
 187.520507812 1320 187.520507812 1320 188.520507812 1312 c 0,30,31
 192.520507812 1253 192.520507812 1253 225.520507812 1210 c 0,0,1
350.233398438 1680 m 0,32,33
 353.43359375 1680 353.43359375 1680 355.993164062 1680 c 0,34,35
 419.353515625 1680 419.353515625 1680 502.107421875 1628 c 0,36,37
 591.107421875 1574 591.107421875 1574 635.107421875 1480 c 0,38,39
 669.107421875 1408 669.107421875 1408 669.107421875 1329 c 0,40,41
 669.107421875 1306 669.107421875 1306 666.107421875 1283 c 0,42,43
 651.107421875 1173 651.107421875 1173 585.107421875 1101 c 0,44,45
 545.107421875 1054 545.107421875 1054 490.107421875 1023 c 128,-1,46
 435.107421875 992 435.107421875 992 389.9140625 982 c 0,47,48
 373.2734375 978 373.2734375 978 357.2734375 978 c 0,49,50
 291.993164062 978 291.993164062 978 207.520507812 1032 c 0,51,52
 109.520507812 1094 109.520507812 1094 67.5205078125 1202 c 0,53,54
 43.5205078125 1263 43.5205078125 1263 43.5205078125 1330 c 0,55,56
 43.5205078125 1377 43.5205078125 1377 55.5205078125 1422 c 0,57,58
 86.5205078125 1534 86.5205078125 1534 176.520507812 1605 c 0,59,60
 267.520507812 1677 267.520507812 1677 350.233398438 1680 c 0,32,33
EndSplineSet
Validated: 1
EndChar

StartChar: plusminus
Encoding: 177 177 115
Width: 894
GlyphClass: 2
Flags: W
HStem: -111 163<64.7871 786.744> 557 179<55.623 343.914 521.914 797.913>
VStem: 341.914 180<238.593 557 736 1033.61>
LayerCount: 2
Fore
SplineSet
146.736328125 52 m 2,0,-1
 680.787109375 54 l 2,1,2
 794.787109375 54 794.787109375 54 794.787109375 -28 c 0,3,4
 794.787109375 -112 794.787109375 -112 685.787109375 -112 c 2,5,-1
 137.736328125 -111 l 2,6,7
 57.736328125 -111 57.736328125 -111 57.736328125 -31 c 0,8,9
 58.736328125 52 58.736328125 52 146.736328125 52 c 2,0,-1
435.9140625 1044 m 0,10,11
 521.9140625 1043 521.9140625 1043 521.9140625 942 c 2,12,-1
 521.9140625 736 l 1,13,-1
 708.787109375 737 l 2,14,15
 808.787109375 737 808.787109375 737 808.787109375 648 c 0,16,17
 808.787109375 562 808.787109375 562 707.787109375 561 c 0,18,19
 602.787109375 560 602.787109375 560 521.9140625 559 c 1,20,-1
 521.9140625 318 l 2,21,22
 521.9140625 228 521.9140625 228 431.9140625 230 c 0,23,24
 340.6328125 231 340.6328125 231 341.9140625 322 c 0,25,26
 342.9140625 439 342.9140625 439 343.9140625 557 c 1,27,28
 253.736328125 556 253.736328125 556 134.736328125 555 c 0,29,30
 44.736328125 554 44.736328125 554 46.736328125 644 c 0,31,32
 46.736328125 735 46.736328125 735 137.736328125 735 c 2,33,-1
 344.9140625 736 l 1,34,35
 345.9140625 840 345.9140625 840 345.9140625 944 c 0,36,37
 345.9140625 1045 345.9140625 1045 435.9140625 1044 c 0,10,11
EndSplineSet
Validated: 33
EndChar

StartChar: twosuperior
Encoding: 178 178 116
Width: 1192
GlyphClass: 2
Flags: W
HStem: 910 144<431.498 846.748>
LayerCount: 2
Fore
SplineSet
431.498046875 1054 m 1,0,-1
 745.498046875 1061 l 2,1,2
 853.498046875 1063 853.498046875 1063 853.498046875 989 c 0,3,4
 853.498046875 910 853.498046875 910 745.498046875 910 c 2,5,-1
 362.498046875 910 l 2,6,7
 235.498046875 910 235.498046875 910 251.498046875 1038 c 0,8,9
 273.498046875 1210 273.498046875 1210 471.498046875 1316 c 0,10,11
 657.498046875 1416 657.498046875 1416 667.498046875 1481 c 0,12,13
 682.498046875 1568 682.498046875 1568 596.498046875 1598 c 0,14,15
 533.498046875 1620 533.498046875 1620 478.498046875 1589 c 0,16,17
 427.498046875 1560 427.498046875 1560 384.498046875 1500 c 0,18,19
 340.498046875 1438 340.498046875 1438 281.498046875 1470 c 0,20,21
 208.498046875 1509 208.498046875 1509 251.498046875 1575 c 0,22,23
 312.498046875 1671 312.498046875 1671 391.498046875 1717 c 0,24,25
 457.498046875 1756 457.498046875 1756 593.498046875 1742 c 0,26,27
 692.498046875 1732 692.498046875 1732 769.498046875 1646 c 0,28,29
 827.498046875 1582 827.498046875 1582 817.498046875 1466 c 0,30,31
 803.498046875 1312 803.498046875 1312 615.498046875 1211 c 0,32,33
 433.498046875 1112 433.498046875 1112 431.498046875 1054 c 1,0,-1
EndSplineSet
Validated: 33
EndChar

StartChar: threesuperior
Encoding: 179 179 117
Width: 1176
GlyphClass: 2
Flags: W
HStem: 855 159<292.55 635.322> 1209 163<423.323 598.091> 1546 151<331.697 599.127>
VStem: 265.643 532
LayerCount: 2
Fore
SplineSet
760.642578125 1466 m 0,0,1
 758.642578125 1374 758.642578125 1374 672.642578125 1301 c 1,2,3
 797.642578125 1232 797.642578125 1232 797.642578125 1083 c 0,4,5
 797.642578125 969 797.642578125 969 685.642578125 906 c 0,6,7
 578.642578125 847 578.642578125 847 468.642578125 855 c 0,8,9
 260.642578125 871 260.642578125 871 265.642578125 950 c 0,10,11
 272.642578125 1050 272.642578125 1050 397.642578125 1014 c 0,12,13
 467.642578125 994 467.642578125 994 565.642578125 1017 c 0,14,15
 654.642578125 1038 654.642578125 1038 648.642578125 1106 c 0,16,17
 640.642578125 1207 640.642578125 1207 539.642578125 1209 c 0,18,19
 398.642578125 1212 398.642578125 1212 402.642578125 1287 c 0,20,21
 406.642578125 1342 406.642578125 1342 510.642578125 1372 c 0,22,23
 646.642578125 1411 646.642578125 1411 608.642578125 1489 c 0,24,25
 560.642578125 1588 560.642578125 1588 410.642578125 1546 c 0,26,27
 330.642578125 1523 330.642578125 1523 315.642578125 1579 c 0,28,29
 289.642578125 1677 289.642578125 1677 447.642578125 1697 c 0,30,31
 576.642578125 1714 576.642578125 1714 680.642578125 1637 c 0,32,33
 763.642578125 1576 763.642578125 1576 760.642578125 1466 c 0,0,1
EndSplineSet
Validated: 33
EndChar

StartChar: acute
Encoding: 180 180 118
Width: 955
GlyphClass: 2
Flags: W
LayerCount: 2
Fore
SplineSet
532.798828125 1636 m 4,0,1
 607.798828125 1577 607.798828125 1577 546.798828125 1510 c 6,2,-1
 309.798828125 1250 l 6,3,4
 222.798828125 1154 222.798828125 1154 165.798828125 1210 c 4,5,6
 111.798828125 1263 111.798828125 1263 193.798828125 1365 c 6,7,-1
 401.798828125 1625 l 6,8,9
 458.798828125 1696 458.798828125 1696 532.798828125 1636 c 4,0,1
EndSplineSet
Validated: 33
EndChar

StartChar: mu1
Encoding: 181 181 119
Width: 864
GlyphClass: 2
Flags: W
HStem: -18 231<380.546 570.742>
VStem: 18.2197 196<-388.651 -249.367> 731.477 197<889.413 1036.77>
LayerCount: 2
Fore
SplineSet
641.43359375 -77 m 0,0,1
 564.6328125 -77 564.6328125 -77 574.874023438 13 c 1,2,3
 524.313476562 -18 524.313476562 -18 460.953125 -18 c 0,4,5
 350.233398438 -17 350.233398438 -17 290.713867188 47 c 1,6,-1
 214.219726562 -311 l 2,7,8
 190.219726562 -404 190.219726562 -404 120.219726562 -404 c 0,9,10
 -7.7802734375 -404 -7.7802734375 -404 18.2197265625 -305 c 2,11,-1
 194.219726562 378 l 1,12,13
 194.219726562 378 194.219726562 378 215.219726562 457 c 2,14,-1
 306.07421875 929 l 2,15,16
 326.553710938 1053 326.553710938 1053 363.673828125 1058 c 0,17,18
 449.43359375 1070 449.43359375 1070 430.233398438 947 c 2,19,-1
 363.673828125 510 l 2,20,21
 359.193359375 481 359.193359375 481 355.993164062 455 c 0,22,23
 355.993164062 441 355.993164062 441 353.43359375 423 c 0,24,25
 340.6328125 217 340.6328125 217 459.033203125 213 c 0,26,27
 570.393554688 209 570.393554688 209 623.513671875 340 c 1,28,-1
 731.4765625 952 l 2,29,30
 757.4765625 1061 757.4765625 1061 841.4765625 1060 c 0,31,32
 954.4765625 1057 954.4765625 1057 928.4765625 950 c 2,33,-1
 707.4765625 16 l 2,34,35
 686.233398438 -77 686.233398438 -77 641.43359375 -77 c 0,0,1
EndSplineSet
Validated: 33
EndChar

StartChar: paragraph
Encoding: 182 182 120
Width: 1355
GlyphClass: 2
Flags: W
VStem: 40.96 804<915.29 1275> 610.96 197<-158.891 403.884> 987.96 197<-158.002 526.349> 1026.96 196<951.651 1623.3>
LayerCount: 2
Fore
SplineSet
1120.95996094 1635 m 0,0,1
 1224.95996094 1635 1224.95996094 1635 1222.95996094 1536 c 2,2,-1
 1184.95996094 -66 l 2,3,4
 1180.95996094 -175 1180.95996094 -175 1074.95996094 -173 c 0,5,6
 984.959960938 -171 984.959960938 -171 987.959960938 -64 c 2,7,-1
 1026.95996094 1542 l 2,8,9
 1028.95996094 1635 1028.95996094 1635 1120.95996094 1635 c 0,0,1
742.959960938 1635 m 0,10,11
 846.959960938 1635 846.959960938 1635 844.959960938 1536 c 2,12,-1
 807.959960938 -66 l 2,13,14
 804.959960938 -175 804.959960938 -175 698.959960938 -173 c 0,15,16
 608.959960938 -171 608.959960938 -171 610.959960938 -64 c 2,17,-1
 621.959960938 399 l 1,18,19
 40.9599609375 439 40.9599609375 439 40.9599609375 995 c 0,20,21
 40.9599609375 1635 40.9599609375 1635 742.959960938 1635 c 0,10,11
EndSplineSet
Validated: 33
EndChar

StartChar: cedilla
Encoding: 184 184 122
Width: 1026
GlyphClass: 2
Flags: W
HStem: -29 143<319.221 479.021>
LayerCount: 2
Fore
SplineSet
319.858398438 73 m 0,0,1
 329.858398438 112 329.858398438 112 385.858398438 114 c 0,2,3
 511.858398438 119 511.858398438 119 637.858398438 0 c 0,4,5
 791.858398438 -143 791.858398438 -143 703.858398438 -337 c 0,6,7
 657.858398438 -438 657.858398438 -438 493.858398438 -445 c 0,8,9
 387.858398438 -450 387.858398438 -450 287.858398438 -388 c 0,10,11
 227.858398438 -351 227.858398438 -351 235.858398438 -285 c 0,12,13
 239.858398438 -249 239.858398438 -249 297.858398438 -243 c 0,14,15
 321.858398438 -241 321.858398438 -241 388.858398438 -271 c 0,16,17
 457.858398438 -302 457.858398438 -302 513.858398438 -289 c 0,18,19
 575.858398438 -274 575.858398438 -274 575.858398438 -209 c 0,20,21
 577.858398438 -123 577.858398438 -123 475.858398438 -71 c 0,22,23
 427.858398438 -46 427.858398438 -46 369.858398438 -29 c 0,24,25
 297.858398438 -10 297.858398438 -10 319.858398438 73 c 0,0,1
EndSplineSet
Validated: 33
EndChar

StartChar: onesuperior
Encoding: 185 185 123
Width: 1180
GlyphClass: 2
Flags: W
HStem: 903 132<260.155 455.64 606.64 805.854>
VStem: 455.64 151<1036 1506>
LayerCount: 2
Fore
SplineSet
612.639648438 1622 m 0,0,1
 607.639648438 1414 607.639648438 1414 606.639648438 1035 c 1,2,3
 657.639648438 1035 657.639648438 1035 707.639648438 1035 c 0,4,5
 810.639648438 1035 810.639648438 1035 810.639648438 974 c 0,6,7
 810.639648438 903 810.639648438 903 710.639648438 903 c 2,8,-1
 347.639648438 903 l 2,9,10
 257.639648438 903 257.639648438 903 256.639648438 968 c 0,11,12
 256.639648438 1036 256.639648438 1036 356.639648438 1036 c 0,13,14
 405.639648438 1036 405.639648438 1036 455.639648438 1036 c 1,15,-1
 457.639648438 1506 l 1,16,-1
 431.639648438 1483 l 2,17,18
 346.639648438 1408 346.639648438 1408 294.639648438 1457 c 0,19,20
 230.639648438 1518 230.639648438 1518 321.639648438 1581 c 2,21,-1
 441.639648438 1664 l 2,22,23
 535.639648438 1729 535.639648438 1729 558.639648438 1724 c 0,24,25
 614.639648438 1712 614.639648438 1712 612.639648438 1622 c 0,0,1
EndSplineSet
Validated: 33
EndChar

StartChar: ordmasculine
Encoding: 186 186 124
Width: 881
GlyphClass: 2
Flags: W
HStem: 881 203<298.532 464.785> 1503 196<298.785 464.579>
VStem: 30.0801 202<1157.65 1427.72> 533.496 197<1160.54 1425.42>
LayerCount: 2
Fore
SplineSet
293.2734375 1676 m 0,0,1
 335.513671875 1699 335.513671875 1699 380.953125 1699 c 0,2,3
 404.6328125 1699 404.6328125 1699 427.033203125 1693 c 0,4,5
 506.49609375 1673 506.49609375 1673 586.49609375 1603 c 0,6,7
 670.49609375 1531 670.49609375 1531 706.49609375 1431 c 0,8,9
 728.49609375 1372 728.49609375 1372 730.49609375 1290 c 0,10,11
 731.49609375 1255 731.49609375 1255 725.49609375 1221 c 0,12,13
 706.49609375 1110 706.49609375 1110 633.49609375 1024 c 0,14,15
 563.49609375 941 563.49609375 941 464.79296875 903 c 0,16,17
 423.833007812 881 423.833007812 881 380.313476562 881 c 0,18,19
 352.79296875 881 352.79296875 881 326.553710938 890 c 0,20,21
 245.080078125 913 245.080078125 913 163.080078125 989 c 0,22,23
 84.080078125 1062 84.080078125 1062 50.080078125 1164 c 0,24,25
 30.080078125 1225 30.080078125 1225 30.080078125 1291 c 0,26,27
 30.080078125 1332 30.080078125 1332 38.080078125 1372 c 0,28,29
 60.080078125 1481 60.080078125 1481 130.080078125 1559 c 0,30,31
 203.080078125 1641 203.080078125 1641 293.2734375 1676 c 0,0,1
382.874023438 1084 m 2,32,33
 419.993164062 1084 419.993164062 1084 451.353515625 1114 c 0,34,35
 483.353515625 1145 483.353515625 1145 508.49609375 1194 c 0,36,37
 533.49609375 1240 533.49609375 1240 533.49609375 1294 c 0,38,39
 533.49609375 1298 533.49609375 1298 532.49609375 1302 c 0,40,41
 529.49609375 1362 529.49609375 1362 499.49609375 1408 c 0,42,43
 480.79296875 1441 480.79296875 1441 457.75390625 1466 c 0,44,45
 435.993164062 1489 435.993164062 1489 409.75390625 1498 c 0,46,47
 396.313476562 1503 396.313476562 1503 382.233398438 1503 c 0,48,49
 343.193359375 1503 343.193359375 1503 309.9140625 1470 c 0,50,51
 270.080078125 1432 270.080078125 1432 245.080078125 1367 c 0,52,53
 232.080078125 1332 232.080078125 1332 232.080078125 1293 c 0,54,55
 232.080078125 1263 232.080078125 1263 240.080078125 1234 c 0,56,57
 260.080078125 1167 260.080078125 1167 301.59375 1125 c 0,58,59
 336.79296875 1084 336.79296875 1084 381.59375 1084 c 2,60,-1
 382.874023438 1084 l 2,32,33
EndSplineSet
Validated: 33
EndChar

StartChar: AE
Encoding: 198 198 136
Width: 1687
GlyphClass: 2
Flags: W
HStem: -56 210<1035.63 1570.75> 721 215<716.953 849.434 1046.51 1520.54> 1301 210<1052.28 1629.63>
VStem: 836.633 199<154 721> 854.233 192.28<936 1185>
LayerCount: 2
Fore
SplineSet
1019.23339844 1507 m 2,0,-1
 1508.72460938 1511 l 2,1,2
 1649.72460938 1512 1649.72460938 1512 1652.72460938 1395 c 0,3,4
 1655.72460938 1302 1655.72460938 1302 1514.72460938 1301 c 0,5,6
 1263.859375 1299 1263.859375 1299 1052.28417969 1297 c 1,7,-1
 1046.51367188 934 l 1,8,-1
 1401.0625 938 l 2,9,10
 1538.72460938 939 1538.72460938 939 1541.72460938 821 c 0,11,12
 1544.72460938 728 1544.72460938 728 1404.91015625 728 c 0,13,14
 1224.109375 726 1224.109375 726 1043.31347656 725 c 1,15,-1
 1035.6328125 154 l 1,16,-1
 1446.72460938 158 l 2,17,18
 1587.72460938 159 1587.72460938 159 1590.72460938 42 c 0,19,20
 1593.72460938 -51 1593.72460938 -51 1452.72460938 -52 c 2,21,-1
 961.6328125 -56 l 2,22,23
 949.6328125 -56 949.6328125 -56 939.6328125 -54 c 0,24,25
 931.6328125 -54 931.6328125 -54 923.6328125 -54 c 0,26,27
 834.713867188 -52 834.713867188 -52 836.6328125 49 c 2,28,-1
 849.43359375 721 l 1,29,-1
 598.553710938 721 l 1,30,-1
 220.536132812 72 l 2,31,32
 148.536132812 -11 148.536132812 -11 67.5361328125 55 c 0,33,34
 -7.4638671875 117 -7.4638671875 117 64.5361328125 199 c 2,35,-1
 825.75390625 1433 l 2,36,37
 876.233398438 1504 876.233398438 1504 938.233398438 1507 c 0,38,39
 949.233398438 1508 949.233398438 1508 959.233398438 1508 c 0,40,41
 980.233398438 1508 980.233398438 1508 996.233398438 1505 c 0,42,43
 1007.23339844 1507 1007.23339844 1507 1019.23339844 1507 c 2,0,-1
716.953125 936 m 1,44,-1
 854.233398438 936 l 1,45,-1
 860.233398438 1185 l 1,46,-1
 716.953125 936 l 1,44,-1
EndSplineSet
Validated: 33
EndChar

StartChar: Eth
Encoding: 208 208 146
Width: 1175
GlyphClass: 2
Flags: W
HStem: -51 189<398.868 736.689> 583 200<-13.0806 634.897>
VStem: 199.868 199<138 696.99> 230.604 186.453<790.01 1290>
LayerCount: 2
Fore
SplineSet
79.8681640625 583 m 2,0,1
 -31.1318359375 583 -31.1318359375 583 -28.1318359375 680 c 0,2,3
 -25.1318359375 783 -25.1318359375 783 85.8681640625 783 c 2,4,-1
 572.577148438 783 l 2,5,6
 644.256835938 783 644.256835938 783 645.538085938 674 c 0,7,8
 646.065429688 582 646.065429688 582 574.153320312 582 c 2,9,-1
 79.8681640625 583 l 2,0,1
322.604492188 1525 m 0,10,11
 346.604492188 1525 346.604492188 1525 366.604492188 1520 c 0,12,13
 378.604492188 1519 378.604492188 1519 390.604492188 1517 c 0,14,15
 626.337890625 1476 626.337890625 1476 801.057617188 1243 c 0,16,17
 1146.93359375 910 1146.93359375 910 1123.93359375 539 c 0,18,19
 1108.93359375 268 1108.93359375 268 854.095703125 52 c 0,20,21
 774.479492188 -48 774.479492188 -48 544.618164062 -53 c 0,22,23
 409.784179688 -56 409.784179688 -56 322.868164062 -51 c 0,24,25
 307.868164062 -54 307.868164062 -54 287.868164062 -54 c 0,26,27
 196.868164062 -52 196.868164062 -52 199.868164062 51 c 2,28,-1
 230.604492188 1436 l 2,29,30
 232.604492188 1525 232.604492188 1525 322.604492188 1525 c 0,10,11
417.057617188 1290 m 1,31,-1
 398.868164062 138 l 1,32,-1
 536.913085938 135 l 1,33,34
 748.795898438 143 748.795898438 143 813.645507812 255 c 0,35,36
 912.93359375 406 912.93359375 406 921.93359375 549 c 0,37,38
 938.93359375 798 938.93359375 798 720.416992188 1081 c 0,39,40
 586.657226562 1276 586.657226562 1276 417.057617188 1290 c 1,31,-1
EndSplineSet
Validated: 37
EndChar

StartChar: multiply
Encoding: 215 215 153
Width: 835
GlyphClass: 2
Flags: W
LayerCount: 2
Fore
SplineSet
90.181640625 973 m 0,0,1
 156.181640625 1025 156.181640625 1025 224.181640625 958 c 2,2,-1
 383.513671875 757 l 1,3,-1
 542.845703125 958 l 2,4,5
 611.845703125 1026 611.845703125 1026 676.845703125 973 c 0,6,7
 750.845703125 914 750.845703125 914 652.845703125 817 c 2,8,-1
 465.845703125 631 l 1,9,-1
 648.845703125 451 l 2,10,11
 741.845703125 360 741.845703125 360 676.845703125 291 c 0,12,13
 616.845703125 227 616.845703125 227 555.845703125 288 c 2,14,-1
 383.513671875 504 l 1,15,-1
 211.181640625 288 l 2,16,17
 150.181640625 227 150.181640625 227 90.181640625 291 c 0,18,19
 25.181640625 360 25.181640625 360 118.181640625 451 c 2,20,-1
 301.181640625 631 l 1,21,-1
 114.181640625 817 l 2,22,23
 16.181640625 914 16.181640625 914 90.181640625 973 c 0,0,1
EndSplineSet
Validated: 33
EndChar

StartChar: Oslash
Encoding: 216 216 154
Width: 1263
GlyphClass: 2
Flags: W
HStem: -63 206<463.427 736.072>
VStem: 99.4834 210<350.706 893.169> 964.202 201<551.182 1091.99>
LayerCount: 2
Fore
SplineSet
228.483398438 -48 m 2,0,1
 155.483398438 -126 155.483398438 -126 81.4833984375 -54 c 0,2,3
 13.4833984375 12 13.4833984375 12 87.4833984375 90 c 2,4,-1
 1047.20214844 1492 l 2,5,6
 1130.20214844 1580 1130.20214844 1580 1200.20214844 1525 c 0,7,8
 1280.20214844 1463 1280.20214844 1463 1200.20214844 1378 c 2,9,-1
 228.483398438 -48 l 2,0,1
712.682617188 1313 m 0,10,11
 569.962890625 1328 569.962890625 1328 465.002929688 1170 c 0,12,13
 309.483398438 936 309.483398438 936 309.483398438 575 c 0,14,15
 309.483398438 393 309.483398438 393 380.522460938 278 c 0,16,17
 463.72265625 143 463.72265625 143 605.163085938 143 c 0,18,19
 742.123046875 143 742.123046875 143 820.202148438 290 c 0,20,21
 961.643554688 555 961.643554688 555 964.202148438 878 c 0,22,23
 970.202148438 1286 970.202148438 1286 712.682617188 1313 c 0,10,11
705.002929688 1512 m 0,24,25
 1166.20214844 1505 1166.20214844 1505 1165.20214844 879 c 0,26,27
 1164.20214844 475 1164.20214844 475 937.323242188 185 c 0,28,29
 805.483398438 -63 805.483398438 -63 605.163085938 -63 c 0,30,31
 396.522460938 -63 396.522460938 -63 243.483398438 160 c 0,32,33
 99.4833984375 319 99.4833984375 319 99.4833984375 573 c 0,34,35
 99.4833984375 970 99.4833984375 970 342.123046875 1274 c 0,36,37
 475.8828125 1516 475.8828125 1516 705.002929688 1512 c 0,24,25
EndSplineSet
Validated: 37
EndChar

StartChar: Thorn
Encoding: 222 222 160
Width: 858
GlyphClass: 2
Flags: W
HStem: 385 190<260.062 483.888> 1158 175<286.062 496.901>
VStem: 64.0615 182<-9.1748 385> 106.062 180<1008.23 1160.21 1333 1615.76> 608.621 180<687.854 1044.3>
LayerCount: 2
Fore
SplineSet
210.061523438 1638 m 0,0,1
 292.4609375 1640 292.4609375 1640 289.901367188 1486 c 0,2,3
 287.98046875 1410 287.98046875 1410 286.061523438 1333 c 1,4,5
 796.62109375 1408 796.62109375 1408 788.62109375 818 c 0,6,7
 782.62109375 364 782.62109375 364 254.061523438 385 c 1,8,9
 256.061523438 384 256.061523438 384 246.061523438 94 c 0,10,11
 242.061523438 -23 242.061523438 -23 150.061523438 -23 c 0,12,13
 60.0615234375 -23 60.0615234375 -23 64.0615234375 94 c 2,14,-1
 106.061523438 1482 l 2,15,16
 110.061523438 1636 110.061523438 1636 210.061523438 1638 c 0,0,1
280.061523438 1158 m 1,17,-1
 260.061523438 575 l 1,18,19
 604.78125 576 604.78125 576 608.62109375 836 c 0,20,21
 614.62109375 1187 614.62109375 1187 280.061523438 1158 c 1,17,-1
EndSplineSet
Validated: 33
EndChar

StartChar: germandbls
Encoding: 223 223 161
Width: 762
GlyphClass: 2
Flags: W
VStem: 32.0684 194<-141.502 408.048> 64.0684 182<506.952 1260.39>
LayerCount: 2
Fore
SplineSet
108.068359375 -156 m 0,0,1
 28.068359375 -149 28.068359375 -149 32.068359375 -18 c 2,2,-1
 64.068359375 933 l 2,3,4
 82.068359375 1496 82.068359375 1496 326.708007812 1554 c 0,5,6
 656.400390625 1637 656.400390625 1637 690.400390625 1161 c 0,7,8
 698.400390625 1053 698.400390625 1053 486.708007812 822 c 1,9,10
 660.400390625 669 660.400390625 669 702.400390625 492 c 0,11,12
 767.400390625 223 767.400390625 223 694.400390625 85 c 0,13,14
 597.400390625 -97 597.400390625 -97 416.272460938 -74 c 0,15,16
 272.137695312 -52 272.137695312 -52 266.215820312 109 c 0,17,18
 261.608398438 241 261.608398438 241 364.936523438 151 c 0,19,20
 451.811523438 75 451.811523438 75 508.400390625 157 c 0,21,22
 574.400390625 230 574.400390625 230 524.400390625 446 c 0,23,24
 490.400390625 587 490.400390625 587 372.7890625 714 c 0,25,26
 331.829101562 758 331.829101562 758 335.028320312 792 c 1,27,28
 326.708007812 851 326.708007812 851 375.348632812 915 c 0,29,30
 482.868164062 1059 482.868164062 1059 486.708007812 1143 c 0,31,32
 500.400390625 1358 500.400390625 1358 411.188476562 1380 c 0,33,34
 320.30859375 1404 320.30859375 1404 275.508789062 1209 c 0,35,36
 248.62890625 1094 248.62890625 1094 246.068359375 927 c 2,37,-1
 226.068359375 -36 l 2,38,39
 222.068359375 -167 222.068359375 -167 108.068359375 -156 c 0,0,1
EndSplineSet
Validated: 33
EndChar

StartChar: eth
Encoding: 240 240 178
Width: 902
GlyphClass: 2
Flags: W
LayerCount: 2
Fore
SplineSet
255.8359375 1491 m 0,0,1
 313.8359375 1574 313.8359375 1574 387.993164062 1505 c 0,2,3
 439.193359375 1442 439.193359375 1442 486.553710938 1359 c 1,4,-1
 570.013671875 1427 l 2,5,6
 702.013671875 1497 702.013671875 1497 749.013671875 1412 c 0,7,8
 792.013671875 1333 792.013671875 1333 660.013671875 1262 c 2,9,-1
 561.43359375 1207 l 1,10,11
 588.013671875 1163 588.013671875 1163 617.013671875 1115 c 0,12,13
 851.013671875 729 851.013671875 729 806.013671875 423 c 0,14,15
 766.013671875 148 766.013671875 148 617.013671875 39 c 0,16,17
 452.6328125 -126 452.6328125 -126 290.8359375 29 c 0,18,19
 19.8359375 228 19.8359375 228 172.8359375 589 c 0,20,21
 282.8359375 848 282.8359375 848 528.79296875 919 c 1,22,23
 496.153320312 1029 496.153320312 1029 457.75390625 1120 c 1,24,-1
 357.8359375 1037 l 2,25,26
 238.8359375 973 238.8359375 973 194.8359375 1049 c 0,27,28
 142.8359375 1138 142.8359375 1138 261.8359375 1202 c 2,29,-1
 381.59375 1272 l 1,30,31
 347.8359375 1319 347.8359375 1319 299.8359375 1359 c 0,32,33
 213.8359375 1431 213.8359375 1431 255.8359375 1491 c 0,0,1
571.013671875 763 m 1,34,35
 551.833007812 752 551.833007812 752 528.79296875 742 c 0,36,37
 398.874023438 687 398.874023438 687 354.8359375 577 c 0,38,39
 258.8359375 410 258.8359375 410 323.8359375 251 c 0,40,41
 364.313476562 151 364.313476562 151 457.11328125 140.5 c 128,-1,42
 549.9140625 130 549.9140625 130 611.013671875 350 c 0,43,44
 659.013671875 500 659.013671875 500 596.013671875 692 c 0,45,46
 584.013671875 728 584.013671875 728 571.013671875 763 c 1,34,35
EndSplineSet
Validated: 33
EndChar

StartChar: divide
Encoding: 247 247 185
Width: 822
GlyphClass: 2
Flags: W
HStem: 186 184<341.781 505.954> 549 184<41.375 745.807> 958 184<336.76 441.831>
VStem: 327.833 191<199.964 355.645> 327.833 122.241<967.347 1138.41>
LayerCount: 2
Fore
SplineSet
128 733 m 2,0,-1
 632.427734375 735 l 2,1,2
 756.427734375 735 756.427734375 735 757.427734375 643 c 0,3,4
 757.427734375 548 757.427734375 548 638.427734375 548 c 2,5,-1
 119 549 l 2,6,7
 32 549 32 549 32 639 c 0,8,9
 32 733 32 733 128 733 c 2,0,-1
399.833007812 367 m 0,10,11
 411.833007812 370 411.833007812 370 423.833007812 370 c 0,12,13
 436.833007812 370 436.833007812 370 448.833007812 367 c 0,14,15
 472.833007812 361 472.833007812 361 490.833007812 343 c 0,16,17
 511.833007812 324 511.833007812 324 515.833007812 302 c 0,18,19
 518.833007812 290 518.833007812 290 518.833007812 278 c 0,20,21
 518.833007812 263 518.833007812 263 516.833007812 255 c 0,22,23
 508.833007812 228 508.833007812 228 487.833007812 209 c 0,24,25
 468.833007812 192 468.833007812 192 436.833007812 187 c 0,26,27
 429.833007812 186 429.833007812 186 423.833007812 186 c 0,28,29
 401.833007812 186 401.833007812 186 381.833007812 195 c 0,30,31
 355.833007812 207 355.833007812 207 340.833007812 232 c 0,32,33
 327.833007812 253 327.833007812 253 327.833007812 278 c 0,34,35
 327.833007812 297 327.833007812 297 334.833007812 313 c 0,36,37
 342.833007812 333 342.833007812 333 360.833007812 347 c 0,38,39
 376.833007812 361 376.833007812 361 399.833007812 367 c 0,10,11
373.9140625 1139 m 0,40,41
 381.59375 1142 381.59375 1142 389.2734375 1142 c 0,42,43
 397.59375 1142 397.59375 1142 405.2734375 1139 c 0,44,45
 420.6328125 1133 420.6328125 1133 432.153320312 1115 c 0,46,47
 445.59375 1096 445.59375 1096 448.153320312 1074 c 0,48,49
 450.07421875 1062 450.07421875 1062 450.07421875 1050 c 0,50,51
 450.07421875 1035 450.07421875 1035 448.79296875 1027 c 0,52,53
 443.673828125 1000 443.673828125 1000 430.233398438 981 c 0,54,55
 418.07421875 964 418.07421875 964 397.59375 959 c 0,56,57
 393.11328125 958 393.11328125 958 389.2734375 958 c 0,58,59
 375.193359375 958 375.193359375 958 362.393554688 967 c 0,60,61
 345.75390625 979 345.75390625 979 336.153320312 1004 c 0,62,63
 327.833007812 1025 327.833007812 1025 327.833007812 1050 c 0,64,65
 327.833007812 1069 327.833007812 1069 332.313476562 1085 c 0,66,67
 337.43359375 1105 337.43359375 1105 348.953125 1119 c 0,68,69
 359.193359375 1133 359.193359375 1133 373.9140625 1139 c 0,40,41
EndSplineSet
Validated: 1
EndChar

StartChar: oslash
Encoding: 248 248 186
Width: 879
GlyphClass: 2
Flags: W
HStem: -49 189<331.12 506.372> 845 204<356.763 529.622>
VStem: 64.4795 196<302.285 706.638> 584.319 186<235.52 653.13>
LayerCount: 2
Fore
SplineSet
156.479492188 -23 m 2,0,1
 108.479492188 -77 108.479492188 -77 64.4794921875 -38 c 0,2,3
 4.4794921875 15 4.4794921875 15 52.4794921875 68 c 2,4,-1
 722.319335938 1026 l 2,5,6
 760.319335938 1068 760.319335938 1068 808.319335938 1028 c 0,7,8
 861.319335938 982 861.319335938 982 824.319335938 940 c 2,9,-1
 156.479492188 -23 l 2,0,1
449.919921875 845 m 0,10,11
 366.080078125 842 366.080078125 842 324.479492188 754 c 0,12,13
 260.479492188 618 260.479492188 618 260.479492188 455 c 0,14,15
 260.479492188 298 260.479492188 298 306.559570312 220 c 0,16,17
 353.919921875 140 353.919921875 140 415.359375 140 c 0,18,19
 485.120117188 140 485.120117188 140 533.120117188 220 c 0,20,21
 583.6796875 305 583.6796875 305 584.319335938 493 c 0,22,23
 585.319335938 849 585.319335938 849 449.919921875 845 c 0,10,11
444.799804688 1049 m 0,24,25
 771.319335938 1046 771.319335938 1046 770.319335938 473 c 0,26,27
 769.319335938 229 769.319335938 229 662.319335938 102 c 1,28,29
 557.440429688 -51 557.440429688 -51 400 -49 c 0,30,31
 286.080078125 -48 286.080078125 -48 176.479492188 99 c 0,32,33
 64.4794921875 232 64.4794921875 232 64.4794921875 473 c 0,34,35
 64.4794921875 701 64.4794921875 701 198.479492188 877 c 0,36,37
 305.280273438 1051 305.280273438 1051 444.799804688 1049 c 0,24,25
EndSplineSet
Validated: 37
EndChar

StartChar: thorn
Encoding: 254 254 192
Width: 888
GlyphClass: 2
Flags: W
HStem: -19 190<278.057 482.259> 754 175<304.736 505.069>
VStem: 94.7363 182<-555.175 -19.1365 171 322.144> 124.736 180<524.64 756.212 929 1302.93> 604.256 180<283.722 640.304>
LayerCount: 2
Fore
SplineSet
228.736328125 1324 m 0,0,1
 312.416015625 1326 312.416015625 1326 308.576171875 1172 c 0,2,3
 304.736328125 1030 304.736328125 1030 304.736328125 929 c 1,4,5
 792.255859375 1004 792.255859375 1004 784.255859375 414 c 0,6,7
 778.255859375 -40 778.255859375 -40 272.736328125 -19 c 1,8,9
 287.30078125 -20 287.30078125 -20 276.736328125 -452 c 0,10,11
 272.736328125 -569 272.736328125 -569 180.736328125 -569 c 0,12,13
 92.736328125 -569 92.736328125 -569 94.736328125 -452 c 2,14,-1
 124.736328125 1168 l 2,15,16
 126.736328125 1322 126.736328125 1322 228.736328125 1324 c 0,0,1
298.736328125 754 m 1,17,-1
 278.056640625 171 l 1,18,19
 601.614257812 172 601.614257812 172 604.255859375 432 c 0,20,21
 610.255859375 783 610.255859375 783 298.736328125 754 c 1,17,-1
EndSplineSet
Validated: 33
EndChar

StartChar: dcroat
Encoding: 273 273 211
Width: 916
GlyphClass: 2
Flags: W
HStem: 1188 156<407.624 960.175> 1590 20G<704.467 801.467>
VStem: 63.5469 178<269.502 712.909> 627.467 193<221.984 733.167> 643.467 208<940 1591.05>
LayerCount: 2
Fore
SplineSet
453.38671875 1188 m 2,0,1
 402.827148438 1189 402.827148438 1189 403.466796875 1260 c 0,2,3
 404.747070312 1345 404.747070312 1345 455.306640625 1344 c 2,4,-1
 892.466796875 1338 l 2,5,6
 969.466796875 1337 969.466796875 1337 967.466796875 1254 c 0,7,8
 966.466796875 1181 966.466796875 1181 889.466796875 1182 c 2,9,-1
 453.38671875 1188 l 2,0,1
749.466796875 1610 m 0,10,11
 853.466796875 1610 853.466796875 1610 851.466796875 1511 c 2,12,-1
 820.466796875 64 l 2,13,14
 819.466796875 -45 819.466796875 -45 711.466796875 -43 c 0,15,16
 631.466796875 -41 631.466796875 -41 625.546875 43 c 1,17,18
 530.827148438 -51 530.827148438 -51 423.306640625 -50 c 0,19,20
 312.586914062 -49 312.586914062 -49 219.546875 82 c 0,21,22
 71.546875 230 71.546875 230 63.546875 427 c 0,23,24
 54.546875 693 54.546875 693 201.546875 874 c 0,25,26
 304.907226562 1045 304.907226562 1045 448.267578125 1045 c 0,27,28
 525.067382812 1045 525.067382812 1045 582.666992188 994 c 0,29,30
 612.747070312 967 612.747070312 967 643.466796875 940 c 1,31,-1
 657.466796875 1517 l 2,32,33
 659.466796875 1608 659.466796875 1608 749.466796875 1610 c 0,10,11
627.466796875 269 m 1,34,35
 638.466796875 477 638.466796875 477 638.466796875 710 c 1,36,37
 521.227539062 893 521.227539062 893 411.146484375 851 c 0,38,39
 330.506835938 820 330.506835938 820 294.666992188 751 c 0,40,41
 244.107421875 652 244.107421875 652 241.546875 475 c 0,42,43
 239.546875 361 239.546875 361 294.666992188 250 c 0,44,45
 338.186523438 160 338.186523438 160 423.306640625 145 c 0,46,47
 512.907226562 129 512.907226562 129 627.466796875 269 c 1,34,35
EndSplineSet
Validated: 37
EndChar

StartChar: Hbar
Encoding: 294 294 232
Width: 1271
GlyphClass: 2
Flags: W
HStem: 631 209<386.96 935.92> 1106 195<-7.92944 1290.79> 1493 20G<252.96 348.08 999.561 1096.56>
VStem: 171.96 197<-31.7766 631> 204.96 182<840 1502.64> 921.92 197<-32.7344 631> 940.561 206<840 1495.36>
LayerCount: 2
Fore
SplineSet
93.9599609375 1106 m 2,0,1
 -23.0400390625 1106 -23.0400390625 1106 -23.0400390625 1202 c 0,2,3
 -23.0400390625 1301 -23.0400390625 1301 111.959960938 1301 c 2,4,-1
 1169.56054688 1304 l 2,5,6
 1304.56054688 1304 1304.56054688 1304 1305.56054688 1206 c 0,7,8
 1305.56054688 1106 1305.56054688 1106 1180.56054688 1106 c 2,9,-1
 93.9599609375 1106 l 2,0,1
298.959960938 1513 m 0,10,11
 397.200195312 1513 397.200195312 1513 395.919921875 1420 c 2,12,-1
 386.959960938 840 l 1,13,-1
 940.560546875 840 l 1,14,-1
 952.560546875 1424 l 2,15,16
 954.560546875 1510 954.560546875 1510 1044.56054688 1512 c 0,17,18
 1148.56054688 1512 1148.56054688 1512 1146.56054688 1419 c 2,19,-1
 1118.91992188 55 l 2,20,21
 1117.91992188 -48 1117.91992188 -48 1009.91992188 -46 c 0,22,23
 920.639648438 -44 920.639648438 -44 921.919921875 57 c 0,24,25
 928.919921875 344 928.919921875 344 935.919921875 631 c 1,26,-1
 377.279296875 631 l 1,27,-1
 368.959960938 56 l 2,28,29
 366.959960938 -47 366.959960938 -47 258.959960938 -46 c 0,30,31
 168.959960938 -44 168.959960938 -44 171.959960938 57 c 2,32,-1
 204.959960938 1425 l 2,33,34
 206.959960938 1511 206.959960938 1511 298.959960938 1513 c 0,10,11
EndSplineSet
Validated: 37
EndChar

StartChar: hbar
Encoding: 295 295 233
Width: 954
GlyphClass: 2
Flags: W
HStem: 1183 172<6.30029 606.362> 1591 20G<228.721 320.6>
VStem: 147.721 211.079<-17.25 696.35> 180.721 178.079<919 1600> 677.521 202<-39.5837 778.125>
LayerCount: 2
Fore
SplineSet
75.720703125 1183 m 0,0,1
 -1.279296875 1184 -1.279296875 1184 -1.279296875 1267 c 0,2,3
 -1.279296875 1355 -1.279296875 1355 84.720703125 1355 c 2,4,-1
 541.200195312 1357 l 2,5,6
 611.599609375 1357 611.599609375 1357 612.240234375 1271 c 0,7,8
 612.240234375 1182 612.240234375 1182 544.400390625 1182 c 0,9,10
 542.479492188 1179 542.479492188 1179 75.720703125 1183 c 0,0,1
274.720703125 1611 m 0,11,12
 366.479492188 1611 366.479492188 1611 365.200195312 1511 c 2,13,-1
 358.799804688 919 l 1,14,15
 438.799804688 1035 438.799804688 1035 571.919921875 1035 c 0,16,17
 887.520507812 1034 887.520507812 1034 883.520507812 579 c 2,18,-1
 879.520507812 72 l 2,19,20
 878.520507812 -49 878.520507812 -49 783.520507812 -57 c 0,21,22
 676.879882812 -66 676.879882812 -66 677.520507812 54 c 2,23,-1
 680.520507812 533 l 2,24,25
 682.520507812 799 682.520507812 799 577.040039062 812 c 0,26,27
 458.639648438 828 458.639648438 828 358.799804688 641 c 1,28,-1
 344.720703125 64 l 2,29,30
 340.720703125 -45 340.720703125 -45 234.720703125 -43 c 0,31,32
 145.720703125 -41 145.720703125 -41 147.720703125 66 c 2,33,-1
 180.720703125 1517 l 2,34,35
 182.720703125 1609 182.720703125 1609 274.720703125 1611 c 0,11,12
EndSplineSet
Validated: 37
EndChar

StartChar: dotlessi
Encoding: 305 305 243
Width: 502
GlyphClass: 2
Flags: W
HStem: -50 21G<168.29 268.79>
VStem: 117.79 200<-34.542 784.524> 134.79 197<208.476 1030.74>
LayerCount: 2
Fore
SplineSet
238.790039062 1047 m 0,0,1
 333.790039062 1045 333.790039062 1045 331.790039062 917 c 2,2,-1
 317.790039062 85 l 2,3,4
 315.790039062 -50 315.790039062 -50 221.790039062 -50 c 0,5,6
 114.790039062 -49 114.790039062 -49 117.790039062 77 c 2,7,-1
 134.790039062 916 l 2,8,9
 137.790039062 1049 137.790039062 1049 238.790039062 1047 c 0,0,1
EndSplineSet
Validated: 33
EndChar

StartChar: kgreenlandic
Encoding: 312 312 250
Width: 910
GlyphClass: 2
Flags: W
VStem: 83.875 197<-28.8906 360 626 784.234> 103.875 186.84<349.766 360 626 1150.34>
LayerCount: 2
Fore
SplineSet
196.875 1161 m 0,0,1
 295.1953125 1161 295.1953125 1161 294.5546875 1062 c 2,2,-1
 290.71484375 626 l 1,3,-1
 583.981445312 1046 l 2,4,5
 691.981445312 1144 691.981445312 1144 755.981445312 1072 c 0,6,7
 823.981445312 994 823.981445312 994 739.981445312 920 c 2,8,-1
 490.395507812 647 l 1,9,-1
 781.981445312 172 l 2,10,11
 863.981445312 59 863.981445312 59 803.981445312 0 c 0,12,13
 709.981445312 -94 709.981445312 -94 629.981445312 22 c 2,14,-1
 395.674804688 513 l 1,15,-1
 286.875 360 l 1,16,-1
 280.875 64 l 2,17,18
 278.875 -45 278.875 -45 170.875 -43 c 0,19,20
 80.875 -41 80.875 -41 83.875 66 c 2,21,-1
 103.875 1068 l 2,22,23
 105.875 1159 105.875 1159 196.875 1161 c 0,0,1
EndSplineSet
Validated: 33
EndChar

StartChar: Lslash
Encoding: 321 321 259
Width: 924
GlyphClass: 2
Flags: W
HStem: -44 206<349.909 817.562> -31 208<371.569 925.824>
VStem: 150.909 199<162 662.678> 183.909 185.199<844.322 1524.54>
LayerCount: 2
Fore
SplineSet
67.9091796875 528 m 2,0,1
 -17.0908203125 473 -17.0908203125 473 -58.0908203125 540 c 0,2,3
 -116.090820312 634 -116.090820312 634 -31.0908203125 690 c 2,4,-1
 440.1484375 1035 l 2,5,6
 506.708984375 1104 506.708984375 1104 536.1484375 1017 c 0,7,8
 566.229492188 928 566.229492188 928 499.668945312 861 c 2,9,-1
 67.9091796875 528 l 2,0,1
237.909179688 -44 m 2,10,11
 147.909179688 -45 147.909179688 -45 150.909179688 61 c 2,12,-1
 183.909179688 1446 l 2,13,14
 185.909179688 1533 185.909179688 1533 277.909179688 1535 c 0,15,16
 370.388671875 1535 370.388671875 1535 369.108398438 1440 c 2,17,-1
 349.909179688 162 l 1,18,-1
 839.22265625 177 l 2,19,20
 938.22265625 179 938.22265625 179 938.22265625 74 c 0,21,22
 938.22265625 -30 938.22265625 -30 842.22265625 -31 c 2,23,-1
 258.909179688 -44 l 1,24,-1
 237.909179688 -44 l 2,10,11
EndSplineSet
Validated: 37
EndChar

StartChar: lslash
Encoding: 322 322 260
Width: 499
GlyphClass: 2
Flags: W
HStem: 1590 20G<238.394 335.394>
VStem: 157.394 197<-28.8906 677.81> 191.394 194<905.19 1598.3>
LayerCount: 2
Fore
SplineSet
114.393554688 495 m 2,0,1
 32.3935546875 425 32.3935546875 425 -29.6064453125 495 c 0,2,3
 -90.6064453125 564 -90.6064453125 564 -9.6064453125 635 c 2,4,-1
 422.393554688 1013 l 2,5,6
 506.393554688 1087 506.393554688 1087 561.393554688 1009 c 0,7,8
 619.393554688 926 619.393554688 926 534.393554688 853 c 2,9,-1
 114.393554688 495 l 2,0,1
283.393554688 1610 m 0,10,11
 387.393554688 1610 387.393554688 1610 385.393554688 1511 c 2,12,-1
 354.393554688 64 l 2,13,14
 353.393554688 -45 353.393554688 -45 245.393554688 -43 c 0,15,16
 155.393554688 -41 155.393554688 -41 157.393554688 66 c 2,17,-1
 191.393554688 1517 l 2,18,19
 193.393554688 1608 193.393554688 1608 283.393554688 1610 c 0,10,11
EndSplineSet
Validated: 37
EndChar

StartChar: Eng
Encoding: 330 330 268
Width: 1249
GlyphClass: 2
Flags: W
HStem: -495 177<664.607 880.031>
VStem: 83.2344 197<-28.875 631.332> 117.234 186<843.668 1145> 921.475 201<-275.156 45 334 688.312> 959.475 195<914.612 1522.48>
LayerCount: 2
Fore
SplineSet
921.474609375 45 m 1,0,-1
 303.234375 1145 l 1,1,-1
 280.234375 58 l 2,2,3
 278.234375 -44 278.234375 -44 171.234375 -42 c 0,4,5
 80.234375 -40 80.234375 -40 83.234375 60 c 2,6,-1
 117.234375 1415 l 2,7,8
 119.234375 1500 119.234375 1500 209.234375 1502 c 0,9,10
 262.234375 1503 262.234375 1503 288.234375 1473 c 2,11,-1
 929.474609375 334 l 1,12,13
 929.474609375 334 929.474609375 334 959.474609375 1446 c 0,14,15
 961.474609375 1531 961.474609375 1531 1052.47460938 1533 c 0,16,17
 1156.47460938 1533 1156.47460938 1533 1154.47460938 1444 c 2,18,-1
 1122.47460938 75 l 2,19,20
 1109.47460938 -495 1109.47460938 -495 857.93359375 -515 c 0,21,22
 762.623046875 -526 762.623046875 -526 698.434570312 -495 c 0,23,24
 639.432617188 -468 639.432617188 -468 660.829101562 -375 c 0,25,26
 680.280273438 -288 680.280273438 -288 745.1171875 -318 c 0,27,28
 819.032226562 -352 819.032226562 -352 871.549804688 -288 c 0,29,30
 918.880859375 -228 918.880859375 -228 921.474609375 45 c 1,0,-1
EndSplineSet
Validated: 33
EndChar

StartChar: eng
Encoding: 331 331 269
Width: 872
GlyphClass: 2
Flags: W
VStem: 85.1543 197<-23.8906 650.673> 108.154 184.241<421.327 735.476 936 1083.99> 312.875 119.04<-375.093 -220.4> 581.675 197<-381.812 788.686>
LayerCount: 2
Fore
SplineSet
576.5546875 61 m 1,0,-1
 585.674804688 535 l 2,1,2
 592.674804688 811 592.674804688 811 483.114257812 823 c 0,3,4
 394.154296875 833 394.154296875 833 292.395507812 674 c 1,5,-1
 282.154296875 69 l 2,6,7
 279.154296875 -40 279.154296875 -40 172.154296875 -38 c 0,8,9
 82.154296875 -36 82.154296875 -36 85.154296875 71 c 2,10,-1
 108.154296875 1001 l 2,11,12
 110.154296875 1094 110.154296875 1094 202.154296875 1094 c 0,13,14
 298.154296875 1094 298.154296875 1094 296.235351562 995 c 0,15,16
 295.594726562 966 295.594726562 966 294.954101562 936 c 1,17,18
 364.71484375 1035 364.71484375 1035 473.514648438 1035 c 0,19,20
 790.674804688 1034 790.674804688 1034 783.674804688 579 c 2,21,-1
 775.674804688 79 l 1,22,23
 775.674804688 79 775.674804688 79 778.674804688 -221 c 0,24,25
 782.674804688 -589 782.674804688 -589 507.434570312 -586 c 0,26,27
 422.954101562 -585 422.954101562 -585 362.154296875 -484 c 0,28,29
 314.794921875 -406 314.794921875 -406 312.875 -314 c 0,30,31
 310.954101562 -220 310.954101562 -220 360.875 -210 c 0,32,33
 394.794921875 -203 394.794921875 -203 431.915039062 -300 c 0,34,35
 474.154296875 -409 474.154296875 -409 528.5546875 -388 c 0,36,37
 581.674804688 -368 581.674804688 -368 581.674804688 -244 c 0,38,39
 581.03515625 -200 581.03515625 -200 576.5546875 61 c 1,0,-1
EndSplineSet
Validated: 33
EndChar

StartChar: Tbar
Encoding: 358 358 296
Width: 1149
GlyphClass: 2
Flags: W
HStem: 669 198<285.226 825.174> 1307 193<39.313 499.193 690.434 1117.88>
VStem: 474.394 197<-36.875 778.055> 499.193 191.24<581.945 1308>
LayerCount: 2
Fore
SplineSet
277.9140625 762 m 0,0,1
 279.193359375 866 279.193359375 866 329.75390625 867 c 2,2,-1
 767.295898438 871 l 2,3,4
 833.26953125 872 833.26953125 872 832.62890625 768 c 0,5,6
 831.98828125 668 831.98828125 668 766.015625 668 c 2,7,-1
 327.833007812 669 l 2,8,9
 277.2734375 669 277.2734375 669 277.9140625 762 c 0,0,1
158.040039062 1500 m 2,10,-1
 1000.9765625 1500 l 2,11,12
 1130.9765625 1500 1130.9765625 1500 1132.9765625 1402 c 0,13,14
 1134.9765625 1310 1134.9765625 1310 1000.9765625 1310 c 2,15,-1
 690.43359375 1309 l 1,16,-1
 671.393554688 50 l 2,17,18
 669.393554688 -52 669.393554688 -52 562.393554688 -50 c 0,19,20
 473.11328125 -48 473.11328125 -48 474.393554688 52 c 2,21,-1
 499.193359375 1308 l 1,22,23
 343.193359375 1307 343.193359375 1307 149.040039062 1307 c 0,24,25
 23.0400390625 1307 23.0400390625 1307 23.0400390625 1412 c 0,26,27
 23.0400390625 1500 23.0400390625 1500 158.040039062 1500 c 2,10,-1
EndSplineSet
Validated: 37
EndChar

StartChar: tbar
Encoding: 359 359 297
Width: 885
GlyphClass: 2
Flags: W
HStem: 501 151<142.383 720.337> 844 199<51.5459 340.714 533.793 817.082> 1590 20G<403.714 494.134>
VStem: 322.714 197<-28.8906 685.634> 340.714 189.88<458.581 844> 345.714 188.079<1045 1594.65>
LayerCount: 2
Fore
SplineSet
136.3203125 575 m 0,0,1
 140.3203125 652 140.3203125 652 209.3203125 652 c 2,2,-1
 631.907226562 654 l 2,3,4
 723.907226562 654 723.907226562 654 725.907226562 578 c 0,5,6
 727.907226562 500 727.907226562 500 635.907226562 500 c 2,7,-1
 201.3203125 501 l 2,8,9
 132.3203125 501 132.3203125 501 136.3203125 575 c 0,0,1
448.713867188 1610 m 0,10,11
 539.553710938 1610 539.553710938 1610 539.553710938 1511 c 0,12,13
 538.2734375 1256 538.2734375 1256 533.79296875 1045 c 1,14,-1
 707.907226562 1046 l 2,15,16
 830.907226562 1047 830.907226562 1047 830.907226562 946 c 0,17,18
 830.907226562 844 830.907226562 844 713.907226562 844 c 0,19,20
 606.907226562 844 606.907226562 844 530.59375 844 c 1,21,-1
 519.713867188 64 l 2,22,23
 518.713867188 -45 518.713867188 -45 410.713867188 -43 c 0,24,25
 321.43359375 -41 321.43359375 -41 322.713867188 66 c 2,26,-1
 340.713867188 844 l 1,27,28
 243.3203125 844 243.3203125 844 126.3203125 844 c 0,29,30
 40.3203125 844 40.3203125 844 40.3203125 942 c 0,31,32
 40.3203125 1043 40.3203125 1043 135.3203125 1043 c 0,33,34
 250.3203125 1043 250.3203125 1043 345.713867188 1044 c 1,35,-1
 356.713867188 1517 l 2,36,37
 358.713867188 1610 358.713867188 1610 448.713867188 1610 c 0,10,11
EndSplineSet
Validated: 37
EndChar

StartChar: longs
Encoding: 383 383 321
Width: 992
GlyphClass: 2
Flags: W
HStem: 1404 195<540.561 808.978>
VStem: 205.475 197<-28.8906 689.616> 221.475 196<355.884 1241.81>
LayerCount: 2
Fore
SplineSet
222.474609375 765 m 2,0,-1
 226.474609375 978 l 2,1,2
 240.474609375 1587 240.474609375 1587 662.474609375 1599 c 0,3,4
 834.474609375 1604 834.474609375 1604 826.474609375 1494 c 0,5,6
 820.474609375 1401 820.474609375 1401 658.474609375 1404 c 0,7,8
 432.474609375 1408 432.474609375 1408 422.474609375 984 c 2,9,-1
 418.474609375 762 l 2,10,11
 418.474609375 757 418.474609375 757 417.474609375 752 c 2,12,-1
 402.474609375 64 l 2,13,14
 400.474609375 -45 400.474609375 -45 292.474609375 -43 c 0,15,16
 202.474609375 -41 202.474609375 -41 205.474609375 66 c 2,17,-1
 221.474609375 762 l 2,18,19
 222.474609375 763 222.474609375 763 222.474609375 765 c 2,0,-1
EndSplineSet
Validated: 33
EndChar

StartChar: florin
Encoding: 402 402 322
Width: 702
GlyphClass: 2
Flags: W
HStem: -361 195<-46.4336 125.597> 629 186<146.624 335.514 483.993 666.989> 1373 188<645.405 890.403>
LayerCount: 2
Fore
SplineSet
37.6484375 -361 m 0,0,1
 -51.3515625 -353 -51.3515625 -353 -64.3515625 -292 c 0,2,3
 -83.3515625 -196 -83.3515625 -196 37.6484375 -166 c 0,4,5
 247.833007812 -100 247.833007812 -100 282.393554688 215 c 0,6,7
 306.713867188 436 306.713867188 436 335.513671875 631 c 1,8,9
 280.473632812 630 280.473632812 630 226.07421875 629 c 0,10,11
 128.6484375 627 128.6484375 627 132.6484375 716 c 0,12,13
 137.6484375 814 137.6484375 814 231.833007812 815 c 2,14,-1
 364.953125 817 l 1,15,16
 394.393554688 989 394.393554688 989 428.313476562 1139 c 0,17,18
 475.033203125 1347 475.033203125 1347 562.713867188 1463 c 0,19,20
 633.11328125 1556 633.11328125 1556 794.286132812 1561 c 0,21,22
 916.286132812 1565 916.286132812 1565 910.286132812 1475 c 0,23,24
 903.286132812 1376 903.286132812 1376 781.286132812 1373 c 0,25,26
 651.673828125 1370 651.673828125 1370 606.874023438 1280 c 0,27,28
 555.033203125 1178 555.033203125 1178 533.9140625 1079 c 0,29,30
 507.033203125 953 507.033203125 953 483.993164062 819 c 1,31,32
 540.953125 820 540.953125 820 598.553710938 821 c 0,33,34
 668.286132812 822 668.286132812 822 675.286132812 746 c 0,35,36
 684.286132812 640 684.286132812 640 608.79296875 638 c 2,37,-1
 455.193359375 634 l 1,38,39
 428.313476562 448 428.313476562 448 409.11328125 248 c 0,40,41
 373.2734375 -118 373.2734375 -118 274.713867188 -221 c 0,42,43
 109.6484375 -368 109.6484375 -368 37.6484375 -361 c 0,0,1
EndSplineSet
Validated: 33
EndChar

StartChar: Aringacute
Encoding: 506 506 323
Width: 1178
GlyphClass: 2
Flags: W
HStem: 501 203<457.113 670.233> 1308 140<494.874 576.153> 1900 110<545.434 581.273>
VStem: 334.874 92.1592<1505.72 1811.46> 510.874 173.439<1962.5 2178.5> 686.874 96.6396<1504.01 1810.68>
LayerCount: 2
Fore
SplineSet
656.79296875 1363 m 2,0,-1
 1024.8671875 122 l 2,1,2
 1073.8671875 -15 1073.8671875 -15 974.8671875 -44 c 0,3,4
 880.8671875 -72 880.8671875 -72 830.8671875 66 c 2,5,-1
 717.59375 501 l 1,6,-1
 410.393554688 501 l 1,7,-1
 297.120117188 66 l 2,8,9
 247.120117188 -72 247.120117188 -72 153.120117188 -44 c 0,10,11
 54.1201171875 -15 54.1201171875 -15 103.120117188 122 c 2,12,-1
 470.553710938 1363 l 2,13,14
 489.75390625 1448 489.75390625 1448 563.993164062 1448 c 0,15,16
 636.953125 1448 636.953125 1448 656.79296875 1363 c 2,0,-1
563.993164062 1167 m 1,17,-1
 457.11328125 704 l 1,18,-1
 670.233398438 706 l 1,19,-1
 563.993164062 1167 l 1,17,-1
601.75390625 1947 m 2,20,21
 581.2734375 1900 581.2734375 1900 563.353515625 1900 c 128,-1,22
 545.43359375 1900 545.43359375 1900 528.153320312 1916 c 128,-1,23
 510.874023438 1932 510.874023438 1932 510.874023438 1962.5 c 128,-1,24
 510.874023438 1993 510.874023438 1993 519.833007812 2023 c 2,25,-1
 572.313476562 2197 l 2,26,27
 589.59375 2257 589.59375 2257 619.673828125 2257 c 0,28,29
 635.673828125 2257 635.673828125 2257 659.994140625 2235 c 128,-1,30
 684.313476562 2213 684.313476562 2213 684.313476562 2178.5 c 128,-1,31
 684.313476562 2144 684.313476562 2144 669.59375 2109 c 2,32,-1
 601.75390625 1947 l 2,20,21
451.353515625 1540 m 0,33,34
 471.833007812 1498 471.833007812 1498 494.233398438 1479 c 0,35,36
 517.9140625 1458 517.9140625 1458 550.553710938 1455 c 0,37,38
 553.75390625 1455 553.75390625 1455 556.953125 1455 c 0,39,40
 585.11328125 1455 585.11328125 1455 611.353515625 1473 c 0,41,42
 636.313476562 1491 636.313476562 1491 654.874023438 1524 c 0,43,44
 680.473632812 1569 680.473632812 1569 685.59375 1629 c 0,45,46
 686.874023438 1643 686.874023438 1643 686.874023438 1658 c 0,47,48
 686.874023438 1703 686.874023438 1703 675.353515625 1743 c 0,49,50
 659.353515625 1798 659.353515625 1798 626.07421875 1830 c 0,51,52
 594.07421875 1861 594.07421875 1861 556.953125 1861 c 0,53,54
 555.673828125 1861 555.673828125 1861 555.033203125 1861 c 0,55,56
 517.9140625 1860 517.9140625 1860 487.193359375 1830 c 0,57,58
 457.11328125 1800 457.11328125 1800 441.11328125 1749 c 0,59,60
 427.033203125 1706 427.033203125 1706 427.033203125 1658 c 0,61,62
 427.033203125 1650 427.033203125 1650 427.673828125 1642 c 0,63,64
 430.233398438 1583 430.233398438 1583 451.353515625 1540 c 0,33,34
553.11328125 2010 m 0,65,66
 556.313476562 2010 556.313476562 2010 558.874023438 2010 c 0,67,68
 622.233398438 2010 622.233398438 2010 676.6328125 1958 c 0,69,70
 733.59375 1904 733.59375 1904 761.75390625 1810 c 0,71,72
 783.513671875 1738 783.513671875 1738 783.513671875 1659 c 0,73,74
 783.513671875 1636 783.513671875 1636 781.59375 1613 c 0,75,76
 771.993164062 1503 771.993164062 1503 729.75390625 1431 c 0,77,78
 704.153320312 1384 704.153320312 1384 668.953125 1353 c 128,-1,79
 633.75390625 1322 633.75390625 1322 592.79296875 1312 c 0,80,81
 576.153320312 1308 576.153320312 1308 560.153320312 1308 c 0,82,83
 494.874023438 1308 494.874023438 1308 439.833007812 1362 c 0,84,85
 377.11328125 1424 377.11328125 1424 350.233398438 1532 c 0,86,87
 334.874023438 1593 334.874023438 1593 334.874023438 1660 c 0,88,89
 334.874023438 1707 334.874023438 1707 342.553710938 1752 c 0,90,91
 362.393554688 1864 362.393554688 1864 419.993164062 1935 c 0,92,93
 478.233398438 2007 478.233398438 2007 553.11328125 2010 c 0,65,66
EndSplineSet
Validated: 37
EndChar

StartChar: caron
Encoding: 711 711 334
Width: 991
GlyphClass: 2
Flags: W
LayerCount: 2
Fore
SplineSet
483.353515625 1174 m 0,0,1
 459.673828125 1173 459.673828125 1173 434.713867188 1215 c 2,2,-1
 206.625976562 1477 l 2,3,4
 146.625976562 1543 146.625976562 1543 188.625976562 1588 c 0,5,6
 254.625976562 1657 254.625976562 1657 314.625976562 1590 c 2,7,-1
 483.353515625 1366 l 1,8,-1
 651.141601562 1590 l 2,9,10
 712.141601562 1656 712.141601562 1656 778.141601562 1588 c 0,11,12
 820.141601562 1544 820.141601562 1544 759.141601562 1477 c 2,13,-1
 531.353515625 1215 l 2,14,15
 507.033203125 1173 507.033203125 1173 483.353515625 1174 c 0,0,1
EndSplineSet
Validated: 33
EndChar

StartChar: macron
Encoding: 713 713 335
Width: 1027
GlyphClass: 2
Flags: W
HStem: 1191 151<184.013 825.03>
VStem: 179.2 651.104<1198.4 1335.02>
LayerCount: 2
Fore
SplineSet
256.200195312 1342 m 2,0,-1
 729.303710938 1344 l 2,1,2
 829.303710938 1344 829.303710938 1344 830.303710938 1268 c 0,3,4
 830.303710938 1190 830.303710938 1190 734.303710938 1190 c 2,5,-1
 249.200195312 1191 l 2,6,7
 179.200195312 1191 179.200195312 1191 179.200195312 1265 c 0,8,9
 179.200195312 1342 179.200195312 1342 256.200195312 1342 c 2,0,-1
EndSplineSet
Validated: 1
EndChar

StartChar: breve
Encoding: 728 728 336
Width: 971
GlyphClass: 2
Flags: W
HStem: 1180 145<359.822 624.952>
VStem: 155.897 140<1391.85 1570.33>
LayerCount: 2
Fore
SplineSet
493.59375 1325 m 0,0,1
 641.341796875 1320 641.341796875 1320 691.341796875 1470 c 0,2,3
 736.341796875 1607 736.341796875 1607 807.341796875 1582 c 0,4,5
 883.341796875 1555 883.341796875 1555 843.341796875 1438 c 0,6,7
 753.341796875 1178 753.341796875 1178 491.033203125 1180 c 0,8,9
 246.897460938 1182 246.897460938 1182 155.897460938 1413 c 0,10,11
 95.8974609375 1564 95.8974609375 1564 184.897460938 1581 c 0,12,13
 274.897460938 1598 274.897460938 1598 295.897460938 1488 c 0,14,15
 324.897460938 1331 324.897460938 1331 493.59375 1325 c 0,0,1
EndSplineSet
Validated: 33
EndChar

StartChar: ogonek
Encoding: 731 731 339
Width: 1008
GlyphClass: 2
Flags: W
HStem: -351 156<354.017 622.795> 39 125<414.134 555.052>
LayerCount: 2
Fore
SplineSet
549.904296875 135 m 0,0,1
 579.904296875 60 579.904296875 60 512.904296875 39 c 0,2,3
 453.904296875 21 453.904296875 21 428.904296875 5 c 0,4,5
 340.904296875 -49 340.904296875 -49 340.904296875 -98 c 0,6,7
 340.904296875 -180 340.904296875 -180 420.904296875 -195 c 0,8,9
 483.904296875 -207 483.904296875 -207 546.904296875 -178 c 0,10,11
 614.904296875 -147 614.904296875 -147 636.904296875 -149 c 0,12,13
 694.904296875 -155 694.904296875 -155 698.904296875 -191 c 0,14,15
 707.904296875 -257 707.904296875 -257 647.904296875 -294 c 0,16,17
 547.904296875 -356 547.904296875 -356 440.904296875 -351 c 0,18,19
 276.904296875 -344 276.904296875 -344 231.904296875 -243 c 0,20,21
 149.904296875 -57 149.904296875 -57 285.904296875 81 c 0,22,23
 350.904296875 149 350.904296875 149 445.904296875 164 c 0,24,25
 532.904296875 178 532.904296875 178 549.904296875 135 c 0,0,1
EndSplineSet
Validated: 33
EndChar

StartChar: hungarumlaut
Encoding: 733 733 341
Width: 972
GlyphClass: 2
Flags: W
LayerCount: 2
Fore
SplineSet
467.353515625 1196 m 0,0,1
 421.2734375 1252 421.2734375 1252 455.833007812 1308 c 2,2,-1
 639.965820312 1550 l 2,3,4
 709.965820312 1622 709.965820312 1622 763.965820312 1572 c 0,5,6
 821.965820312 1518 821.965820312 1518 751.965820312 1446 c 2,7,-1
 531.353515625 1214 l 2,8,9
 496.79296875 1160 496.79296875 1160 467.353515625 1196 c 0,0,1
174.458984375 1196 m 0,10,11
 104.458984375 1252 104.458984375 1252 156.458984375 1308 c 2,12,-1
 386.713867188 1550 l 2,13,14
 430.233398438 1622 430.233398438 1622 464.79296875 1572 c 0,15,16
 501.9140625 1518 501.9140625 1518 457.11328125 1446 c 2,17,-1
 272.458984375 1214 l 2,18,19
 220.458984375 1160 220.458984375 1160 174.458984375 1196 c 0,10,11
EndSplineSet
Validated: 33
EndChar

StartChar: tonos
Encoding: 900 900 343
Width: 975
GlyphClass: 2
Flags: W
HStem: 1149 357<402.229 438.244>
VStem: 298.24 271
LayerCount: 2
Fore
SplineSet
440.240234375 1196 m 2,0,1
 408.240234375 1149 408.240234375 1149 380.240234375 1149 c 128,-1,2
 352.240234375 1149 352.240234375 1149 325.240234375 1165 c 128,-1,3
 298.240234375 1181 298.240234375 1181 298.240234375 1211.5 c 128,-1,4
 298.240234375 1242 298.240234375 1242 312.240234375 1272 c 2,5,-1
 394.240234375 1446 l 2,6,7
 421.240234375 1506 421.240234375 1506 468.240234375 1506 c 0,8,9
 493.240234375 1506 493.240234375 1506 531.240234375 1484 c 128,-1,10
 569.240234375 1462 569.240234375 1462 569.240234375 1427.5 c 128,-1,11
 569.240234375 1393 569.240234375 1393 546.240234375 1358 c 2,12,-1
 440.240234375 1196 l 2,0,1
EndSplineSet
Validated: 1
EndChar

StartChar: dieresistonos
Encoding: 901 901 344
Width: 945
GlyphClass: 2
Flags: W
HStem: 1186 184<92.0649 308.153 620.652 836.74>
VStem: 79.3604 241<1201.66 1354.65> 386.714 173.439<1211.5 1427.5> 386.714 90.8799<1165.5 1196> 607.947 241<1201.66 1354.65>
LayerCount: 2
Fore
SplineSet
725.947265625 1370 m 0,0,1
 848.947265625 1370 848.947265625 1370 848.947265625 1277 c 0,2,3
 848.947265625 1186 848.947265625 1186 723.947265625 1186 c 0,4,5
 607.947265625 1186 607.947265625 1186 607.947265625 1274 c 0,6,7
 607.947265625 1370 607.947265625 1370 725.947265625 1370 c 0,0,1
197.360351562 1370 m 0,8,9
 320.360351562 1370 320.360351562 1370 320.360351562 1277 c 0,10,11
 320.360351562 1186 320.360351562 1186 195.360351562 1186 c 0,12,13
 79.3603515625 1186 79.3603515625 1186 79.3603515625 1274 c 0,14,15
 79.3603515625 1370 79.3603515625 1370 197.360351562 1370 c 0,8,9
477.59375 1196 m 2,16,17
 457.11328125 1149 457.11328125 1149 439.193359375 1149 c 128,-1,18
 421.2734375 1149 421.2734375 1149 403.994140625 1165 c 128,-1,19
 386.713867188 1181 386.713867188 1181 386.713867188 1211.5 c 128,-1,20
 386.713867188 1242 386.713867188 1242 395.673828125 1272 c 2,21,-1
 448.153320312 1446 l 2,22,23
 465.43359375 1506 465.43359375 1506 495.513671875 1506 c 0,24,25
 511.513671875 1506 511.513671875 1506 535.833984375 1484 c 128,-1,26
 560.153320312 1462 560.153320312 1462 560.153320312 1427.5 c 128,-1,27
 560.153320312 1393 560.153320312 1393 545.43359375 1358 c 2,28,-1
 477.59375 1196 l 2,16,17
EndSplineSet
Validated: 1
EndChar

StartChar: Gamma
Encoding: 915 915 356
Width: 1046
GlyphClass: 2
Flags: W
HStem: 1273 218<373.318 923.09> 1289 215<319.38 784.074>
VStem: 120.38 199<1107.18 1289> 185.38 192.118<7.89478 377.823>
LayerCount: 2
Fore
SplineSet
278.379882812 -3 m 0,0,1
 190.379882812 -1 190.379882812 -1 185.379882812 90 c 2,2,-1
 120.379882812 1395 l 2,3,4
 116.379882812 1502 116.379882812 1502 208.379882812 1504 c 0,5,6
 216.379882812 1504 216.379882812 1504 222.379882812 1504 c 0,7,8
 225.379882812 1504 225.379882812 1504 228.379882812 1504 c 2,9,-1
 841.01171875 1491 l 2,10,11
 937.01171875 1489 937.01171875 1489 937.01171875 1381 c 0,12,13
 937.01171875 1271 937.01171875 1271 838.01171875 1273 c 2,14,-1
 319.379882812 1289 l 1,15,-1
 377.498046875 96 l 2,16,17
 380.698242188 -3 380.698242188 -3 278.379882812 -3 c 0,0,1
EndSplineSet
Validated: 33
EndChar

StartChar: uni0394
Encoding: 916 916 357
Width: 1248
GlyphClass: 2
Flags: W
HStem: -51 210<329.754 940.953>
LayerCount: 2
Fore
SplineSet
1102.56933594 -51 m 1,0,-1
 167.331054688 -51 l 2,1,2
 143.331054688 -52 143.331054688 -52 116.331054688 -48 c 0,3,4
 32.3310546875 -35 32.3310546875 -35 77.3310546875 72 c 2,5,-1
 553.11328125 1551 l 2,6,7
 582.553710938 1661 582.553710938 1661 635.033203125 1658 c 1,8,9
 688.153320312 1662 688.153320312 1662 717.59375 1551 c 2,10,-1
 1192.56933594 72 l 2,11,12
 1243.56933594 -51 1243.56933594 -51 1149.56933594 -51 c 2,13,-1
 1102.56933594 -51 l 1,0,-1
635.033203125 1339 m 1,14,-1
 329.75390625 159 l 1,15,-1
 940.953125 159 l 1,16,-1
 635.033203125 1339 l 1,14,-1
EndSplineSet
Validated: 33
EndChar

StartChar: Theta
Encoding: 920 920 361
Width: 1231
GlyphClass: 2
Flags: W
HStem: -63 206<437.544 710.189> 682 151<411.28 818.28>
VStem: 73.5996 210<330.728 893.169> 408.4 413.439<683.203 832.755> 938.32 201<551.182 1153.31>
LayerCount: 2
Fore
SplineSet
454.479492188 833 m 2,0,-1
 761.6796875 835 l 2,1,2
 821.83984375 835 821.83984375 835 821.83984375 759 c 0,3,4
 821.83984375 682 821.83984375 682 764.879882812 682 c 2,5,-1
 450.639648438 682 l 2,6,7
 408.400390625 682 408.400390625 682 408.400390625 756 c 0,8,9
 408.400390625 833 408.400390625 833 454.479492188 833 c 2,0,-1
686.799804688 1313 m 0,10,11
 544.080078125 1328 544.080078125 1328 439.120117188 1170 c 0,12,13
 283.599609375 936 283.599609375 936 283.599609375 575 c 0,14,15
 283.599609375 393 283.599609375 393 354.639648438 278 c 0,16,17
 437.83984375 143 437.83984375 143 579.279296875 143 c 0,18,19
 716.240234375 143 716.240234375 143 794.3203125 290 c 0,20,21
 935.759765625 555 935.759765625 555 938.3203125 878 c 0,22,23
 944.3203125 1286 944.3203125 1286 686.799804688 1313 c 0,10,11
679.120117188 1512 m 0,24,25
 1140.3203125 1505 1140.3203125 1505 1139.3203125 879 c 0,26,27
 1138.3203125 475 1138.3203125 475 911.439453125 185 c 0,28,29
 779.599609375 -63 779.599609375 -63 579.279296875 -63 c 0,30,31
 370.639648438 -63 370.639648438 -63 217.599609375 160 c 0,32,33
 73.599609375 319 73.599609375 319 73.599609375 573 c 0,34,35
 73.599609375 970 73.599609375 970 316.240234375 1274 c 0,36,37
 450 1516 450 1516 679.120117188 1512 c 0,24,25
EndSplineSet
Validated: 33
EndChar

StartChar: Lambda
Encoding: 923 923 364
Width: 1086
GlyphClass: 2
Flags: W
VStem: 31.4131 198<-41.3445 76.8296> 865.934 198<-41.3445 76.9359>
LayerCount: 2
Fore
SplineSet
61.4130859375 -45 m 0,0,1
 -19.5869140625 -8 -19.5869140625 -8 31.4130859375 114 c 2,2,-1
 473.11328125 1464 l 2,3,4
 497.43359375 1554 497.43359375 1554 547.673828125 1554 c 128,-1,5
 597.9140625 1554 597.9140625 1554 622.233398438 1464 c 2,6,-1
 1063.93359375 114 l 2,7,8
 1114.93359375 -8 1114.93359375 -8 1033.93359375 -45 c 0,9,10
 915.93359375 -99 915.93359375 -99 865.93359375 24 c 2,11,-1
 547.993164062 1198 l 1,12,-1
 229.413085938 24 l 2,13,14
 179.413085938 -99 179.413085938 -99 61.4130859375 -45 c 0,0,1
EndSplineSet
Validated: 33
EndChar

StartChar: Xi
Encoding: 926 926 367
Width: 1150
GlyphClass: 2
Flags: W
HStem: -19 201<73.2676 1046.95> 685 191<192.22 867.899> 1305 201<73.2676 1046.95>
LayerCount: 2
Fore
SplineSet
60.1728515625 74 m 0,0,1
 58.1728515625 182 58.1728515625 182 164.172851562 182 c 2,2,-1
 935.383789062 182 l 2,3,4
 1065.38378906 182 1065.38378906 182 1061.38378906 74 c 0,5,6
 1058.38378906 -18 1058.38378906 -18 928.383789062 -18 c 2,7,-1
 167.172851562 -19 l 2,8,9
 61.1728515625 -19 61.1728515625 -19 60.1728515625 74 c 0,0,1
177.172851562 779 m 0,10,11
 180.172851562 876 180.172851562 876 300.172851562 876 c 2,12,-1
 772.6328125 876 l 2,13,14
 878.383789062 876 878.383789062 876 879.383789062 782 c 0,15,16
 881.383789062 684 881.383789062 684 774.553710938 684 c 2,17,-1
 294.172851562 685 l 2,18,19
 174.172851562 685 174.172851562 685 177.172851562 779 c 0,10,11
60.1728515625 1398 m 0,20,21
 58.1728515625 1506 58.1728515625 1506 164.172851562 1506 c 2,22,-1
 935.383789062 1506 l 2,23,24
 1065.38378906 1506 1065.38378906 1506 1061.38378906 1398 c 0,25,26
 1058.38378906 1306 1058.38378906 1306 928.383789062 1306 c 2,27,-1
 167.172851562 1305 l 2,28,29
 61.1728515625 1305 61.1728515625 1305 60.1728515625 1398 c 0,20,21
EndSplineSet
Validated: 33
EndChar

StartChar: Pi
Encoding: 928 928 369
Width: 1530
GlyphClass: 2
Flags: W
HStem: 1362 207<82.3638 313.843 520.843 1028.16 1231.92 1414.52>
VStem: 322.843 201<-24.8643 1362> 1033.92 201<-24.8643 1362>
LayerCount: 2
Fore
SplineSet
67.8427734375 1464 m 0,0,1
 66.8427734375 1569 66.8427734375 1569 183.842773438 1569 c 2,2,-1
 1295.92285156 1569 l 2,3,4
 1429.92285156 1569 1429.92285156 1569 1430.92285156 1468 c 0,5,6
 1432.92285156 1362 1432.92285156 1362 1298.92285156 1362 c 2,7,-1
 1231.92285156 1362 l 1,8,9
 1232.92285156 716 1232.92285156 716 1234.92285156 69 c 0,10,11
 1234.92285156 -36 1234.92285156 -36 1132.92285156 -39 c 0,12,13
 1034.92285156 -42 1034.92285156 -42 1033.92285156 63 c 2,14,-1
 1028.16308594 1362 l 1,15,-1
 520.842773438 1362 l 1,16,17
 521.842773438 716 521.842773438 716 523.842773438 69 c 0,18,19
 523.842773438 -36 523.842773438 -36 421.842773438 -39 c 0,20,21
 323.842773438 -42 323.842773438 -42 322.842773438 63 c 2,22,-1
 313.842773438 1362 l 1,23,-1
 184.842773438 1362 l 2,24,25
 67.8427734375 1362 67.8427734375 1362 67.8427734375 1464 c 0,0,1
EndSplineSet
Validated: 33
EndChar

StartChar: Sigma
Encoding: 931 931 371
Width: 1199
GlyphClass: 2
Flags: W
HStem: -21 193<371.354 1043.75> 1322 193<373.914 1043.75>
LayerCount: 2
Fore
SplineSet
87.0576171875 64 m 0,0,1
 86.0576171875 111 86.0576171875 111 106.057617188 138 c 0,2,3
 118.057617188 160 118.057617188 160 141.057617188 184 c 2,4,-1
 561.43359375 749 l 1,5,-1
 141.057617188 1314 l 2,6,7
 128.057617188 1327 128.057617188 1327 119.057617188 1340 c 1,8,9
 88.0576171875 1361 88.0576171875 1361 87.0576171875 1407 c 0,10,11
 85.0576171875 1515 85.0576171875 1515 191.057617188 1515 c 2,12,-1
 932.18359375 1515 l 2,13,14
 1062.18359375 1515 1062.18359375 1515 1058.18359375 1407 c 0,15,16
 1055.18359375 1323 1055.18359375 1323 925.18359375 1323 c 0,17,18
 629.2734375 1323 629.2734375 1323 373.9140625 1322 c 1,19,-1
 652.313476562 864 l 2,20,21
 683.033203125 814 683.033203125 814 690.713867188 774 c 0,22,23
 693.2734375 762 693.2734375 762 692.6328125 749 c 0,24,25
 692.6328125 736 692.6328125 736 690.713867188 724 c 0,26,27
 683.033203125 684 683.033203125 684 652.313476562 634 c 2,28,-1
 371.353515625 172 l 1,29,-1
 932.18359375 172 l 2,30,31
 1062.18359375 172 1062.18359375 172 1058.18359375 64 c 0,32,33
 1055.18359375 -20 1055.18359375 -20 925.18359375 -20 c 2,34,-1
 194.057617188 -21 l 2,35,36
 88.0576171875 -21 88.0576171875 -21 87.0576171875 64 c 0,0,1
EndSplineSet
Validated: 33
EndChar

